STARTFONT 2.1
COMMENT This font was automatically resized by bdfresize-1.4
COMMENT   mag_x = 3/5, mag_y = 3/5, blackness = 3
COMMENT HBF_START_FONT 1.0
COMMENT HBF_CODE_SCHEME CNS11643-1992-2
COMMENT
COMMENT   Plane 2 of CNS11643-1992
COMMENT
COMMENT	  Bitmaps provided by Central Bureau of Standards
COMMENT	  Ministry of Economy, Taiwan, ROC, March 9, 1994
COMMENT
FONT -CBS-Song-medium-r-normal-fantizi-24-240-75-75-c-240-CNS11643.1992-2
COMMENT
COMMENT An equivalent full X11R6 XLFD conforming font name is
COMMENT -CBS-Song-medium-r-normal-fantizi-40-400-75-75-c-400-CNS11643.1992.2-0
COMMENT which is formed from the first 15 properties listed in
COMMENT the STARTPROPERTIES section below.
COMMENT Any of these properties is optional, as in the simple HBF file.
COMMENT
SIZE 24 150 150
COMMENT HBF_BITMAP_BOUNDING_BOX 40 40 0 -6
FONTBOUNDINGBOX 24 24 0 -2
STARTPROPERTIES 23
FONTNAME_REGISTRY ""
FOUNDRY "CBS"
FAMILY_NAME "Song"
WEIGHT_NAME "medium"
SLANT "r"
SETWIDTH_NAME "normal"
ADD_STYLE_NAME "fantizi"
PIXEL_SIZE 24
POINT_SIZE 240
RESOLUTION_X 75
RESOLUTION_Y 75
SPACING "c"
AVERAGE_WIDTH 240
CHARS 1
CHARS 1
COPYRIGHT "1994, Central Bureau of Standards, Ministry of Economy, ROC"
WEIGHT 19329
RESOLUTION 110
X_HEIGHT 34
QUAD_WIDTH 40
FONT_ASCENT 22
FONT_DESCENT 2
DEFAULT_CHAR 32382
ENDPROPERTIES
CHARS 7651
COMMENT HBF_START_BYTE_2_RANGES 1
COMMENT HBF_BYTE_2_RANGE 0x21-0x7E
COMMENT HBF_END_BYTE_2_RANGES
COMMENT HBF_START_CODE_RANGES 1
COMMENT HBF_CODE_RANGE 0x2121-0x7244 cns4040.w2.bin 0
COMMENT HBF_END_CODE_RANGES
COMMENT  7650 less-frequently used characters defined in 2121--7244.
COMMENT  (BIG-5 characters C940--F9D5, except C94A and DDFC, eliminated
COMMENT  as duplicates of A461 and DCD1 respectively)
COMMENT HBF_END_FONT

STARTCHAR C2121
ENCODING 8481
SWIDTH 400 0
DWIDTH 24 0
BBX 24 24 0 -2
BITMAP
000070
040070
060060
060060
020060
0200C0
0300C0
0100C0
0181C0
018180
00C300
00C300
006700
007600
003E00
001C00
001E00
003F00
006380
00C1C0
0180F8
07007F
1C001E
700004
ENDCHAR
STARTCHAR C2122
ENCODING 8482
SWIDTH 400 0
DWIDTH 24 0
BBX 24 24 0 -2
BITMAP
070000
070000
060000
060000
060000
060018
060FFC
07FC1C
7E0018
060018
060038
060030
060030
060060
060040
060000
060000
060001
060001
060003
070003
07FFFF
03FFFF
00FFFC
ENDCHAR
STARTCHAR C2123
ENCODING 8483
SWIDTH 400 0
DWIDTH 24 0
BBX 24 24 0 -2
BITMAP
000000
000000
38000E
30000E
30000C
30000C
30000C
30000C
30000C
30000C
30000C
30000C
30000C
30000C
30000C
30000C
30000C
30000C
30000C
30000C
30000C
7FFFFC
00000C
000000
ENDCHAR
STARTCHAR C2124
ENCODING 8484
SWIDTH 400 0
DWIDTH 24 0
BBX 24 24 0 -2
BITMAP
000004
60000E
7FFFFE
600000
600000
600000
600000
600000
600000
600000
600000
600000
600000
600000
600000
600000
600000
600000
600000
600000
600000
600006
7FFFFF
000000
ENDCHAR
STARTCHAR C2125
ENCODING 8485
SWIDTH 400 0
DWIDTH 24 0
BBX 24 24 0 -2
BITMAP
000000
300007
3FFFFF
300000
300000
300000
300000
300000
300000
300000
300000
300000
300000
300000
300000
300000
200000
600000
600000
600000
C00000
C00000
800000
000000
ENDCHAR
STARTCHAR C2126
ENCODING 8486
SWIDTH 400 0
DWIDTH 24 0
BBX 24 24 0 -2
BITMAP
000000
000007
FFFFFF
00C000
00C000
00C000
00C000
00C030
00FFF8
00C038
00C038
00C038
00C038
00C038
018038
018038
030038
030038
060030
060070
0C0060
180FE0
3003C0
600180
ENDCHAR
STARTCHAR C2127
ENCODING 8487
SWIDTH 400 0
DWIDTH 24 0
BBX 24 24 0 -2
BITMAP
000000
000007
FFFFFF
038180
038180
038180
038180
038180
038180
038180
038180
038180
038180
030180
030180
030180
060180
060180
060180
0C0180
0C0180
180180
300180
600180
ENDCHAR
STARTCHAR C2128
ENCODING 8488
SWIDTH 400 0
DWIDTH 24 0
BBX 24 24 0 -2
BITMAP
0001C0
0007E0
003F00
03F000
1E7000
007000
007000
007000
007000
007000
007004
7FFFFE
007000
007000
007000
007000
007000
007001
007001
007003
007003
003FFF
001FFF
000FFC
ENDCHAR
STARTCHAR C2129
ENCODING 8489
SWIDTH 400 0
DWIDTH 24 0
BBX 24 24 0 -2
BITMAP
000020
000070
0FFFF0
000000
000000
000000
000000
000004
7FFFFE
001800
001800
001800
001800
001800
001800
001800
001800
001800
001800
001800
001800
01F800
007800
003000
ENDCHAR
STARTCHAR C212a
ENCODING 8490
SWIDTH 400 0
DWIDTH 24 0
BBX 24 24 0 -2
BITMAP
200000
30000C
3FFFFE
30000C
30000C
30000C
30000C
30000C
30000C
30000C
30000C
30000C
30000C
30000C
30000C
30000C
30000C
30000C
30000C
30000C
30000C
3FFFFC
30000C
200000
ENDCHAR
STARTCHAR C212b
ENCODING 8491
SWIDTH 400 0
DWIDTH 24 0
BBX 24 24 0 -2
BITMAP
001800
001800
001800
38181C
38181C
301818
301818
301818
301818
301818
301818
301818
3FFFF8
303818
001800
001800
001800
001800
001800
001800
001800
001800
001800
001000
ENDCHAR
STARTCHAR C212c
ENCODING 8492
SWIDTH 400 0
DWIDTH 24 0
BBX 24 24 0 -2
BITMAP
000600
000600
000C00
001800
003000
0061C0
00C180
018300
060600
000C00
001800
003800
007800
00D800
019800
031800
0C1800
001800
001800
001800
001800
001800
001800
001800
ENDCHAR
STARTCHAR C212d
ENCODING 8493
SWIDTH 400 0
DWIDTH 24 0
BBX 24 24 0 -2
BITMAP
000000
000007
FFFFFF
001800
001800
081800
1E1830
1C1FF8
1C1838
1C1838
1C1838
1C1838
1C1838
1FFFF8
000038
000038
000038
000038
000030
000070
000060
000FE0
0003C0
000180
ENDCHAR
STARTCHAR C212e
ENCODING 8494
SWIDTH 400 0
DWIDTH 24 0
BBX 24 24 0 -2
BITMAP
007000
007000
006000
00E006
FFFFFF
00C000
018000
018060
03FFF0
070070
070060
0F0060
1B0060
330060
E30060
030060
030060
060060
060060
060060
0C0060
0C07E0
1801E0
7000C0
ENDCHAR
STARTCHAR C212f
ENCODING 8495
SWIDTH 400 0
DWIDTH 24 0
BBX 24 24 0 -2
BITMAP
070000
070000
060000
060000
07000C
07FFFC
060000
060000
060008
0FFFFC
04001C
00000C
00000C
00000C
00018C
7FFFCC
00000C
00001C
000018
000018
000038
0007F0
0001E0
0000C0
ENDCHAR
STARTCHAR C2130
ENCODING 8496
SWIDTH 400 0
DWIDTH 24 0
BBX 24 24 0 -2
BITMAP
000000
0001C0
3FFFE0
00C0C0
00C0C0
00C0C0
00C0C0
01CCC0
1FFCC0
00C0C0
00C0C0
00C0C0
00C0C0
01CEC0
1FFEC0
00C0C0
00C0C0
00C0C1
00C0C1
00C0C1
00C0C3
00C0FF
00C07F
00803E
ENDCHAR
STARTCHAR C2131
ENCODING 8497
SWIDTH 400 0
DWIDTH 24 0
BBX 24 24 0 -2
BITMAP
000000
000030
1FFFF8
000000
000000
000000
000000
000000
000006
FFFFFF
038180
038180
038180
030180
030180
030180
060180
060180
060180
0C0180
0C0180
180180
300180
600180
ENDCHAR
STARTCHAR C2132
ENCODING 8498
SWIDTH 400 0
DWIDTH 24 0
BBX 24 24 0 -2
BITMAP
038380
038380
070300
060300
060300
0C0302
1C7FFF
1C0387
3C0307
3C0307
7C0307
5C0307
9C0307
1C0307
1C0607
1C0607
1C0607
1C0C06
1C0C06
1C180E
1C300C
1C61FC
1CC078
1B8030
ENDCHAR
STARTCHAR C2133
ENCODING 8499
SWIDTH 400 0
DWIDTH 24 0
BBX 24 24 0 -2
BITMAP
038000
039020
071FF0
061830
061830
0C1830
1C1830
1C1830
3C1830
3C1830
7C1830
5C1830
9C1830
1C1830
1C1830
1C3830
1C3030
1C3030
1C3030
1C6031
1C6031
1C403F
1CC03F
19800E
ENDCHAR
STARTCHAR C2134
ENCODING 8500
SWIDTH 400 0
DWIDTH 24 0
BBX 24 24 0 -2
BITMAP
070200
070100
060180
060180
0C1880
0C1CC0
1C18C0
1C1840
3C1840
7C1840
7C1860
DC1860
1C1860
1C1820
1C3030
1C3030
1C3018
1C7018
1C601C
1C400C
1CC00E
1CC007
1D8007
1B0000
ENDCHAR
STARTCHAR C2135
ENCODING 8501
SWIDTH 400 0
DWIDTH 24 0
BBX 24 24 0 -2
BITMAP
001800
001800
001800
001800
201804
3FFFFE
60180E
60180C
C01808
003800
003E00
003E00
007E00
006E00
006E00
00CE00
00CE00
018E00
018E01
030E01
060E03
0C07FF
1803FF
6001FE
ENDCHAR
STARTCHAR C2136
ENCODING 8502
SWIDTH 400 0
DWIDTH 24 0
BBX 24 24 0 -2
BITMAP
0E0000
0E0000
0C0000
1C0006
1FFFFE
180006
30C006
30C006
60C006
40CC06
0FFE06
00CE06
01CE06
018E06
018E06
030E26
030E66
060E46
0C07EE
1803CC
20000C
0003FC
0001F8
000070
ENDCHAR
STARTCHAR C2137
ENCODING 8503
SWIDTH 400 0
DWIDTH 24 0
BBX 24 24 0 -2
BITMAP
00C000
03E000
2F8C0C
380FFE
300E0C
300E0C
300E0C
300E0C
300E0C
300E0C
300E0C
300E0C
300E0C
300E0C
300E0C
31CE0C
370E0C
3C0E0C
300EFC
300E18
000E00
000E00
000E00
000C00
ENDCHAR
STARTCHAR C2138
ENCODING 8504
SWIDTH 400 0
DWIDTH 24 0
BBX 24 24 0 -2
BITMAP
00E000
00E000
00C000
00C180
3FFFC0
00C1C0
00C1C0
00C1C0
0181C1
0181C1
0301C1
0701C3
0E00FF
1C787F
707000
006000
00C000
018080
0300C0
060060
0C0030
1FFFF8
1FC01C
0C000C
ENDCHAR
STARTCHAR C2139
ENCODING 8505
SWIDTH 400 0
DWIDTH 24 0
BBX 24 24 0 -2
BITMAP
000E00
0E0E00
0C0E00
0C0E00
0C0E00
0C0E00
0C0E00
0CCE00
7FCE00
0C0E00
0C0E00
0C0E00
0C0E00
0C0E00
0C0E00
0C4E00
0FCE00
3F0E01
F80E01
E00E03
000E03
000FFF
0007FF
0003FC
ENDCHAR
STARTCHAR C213a
ENCODING 8506
SWIDTH 400 0
DWIDTH 24 0
BBX 24 24 0 -2
BITMAP
0000C0
7FFFE0
0001C0
0001C0
080180
1C0180
1C0300
183304
1FFBFE
387B06
387006
2C6006
446006
06C006
02C006
038006
038006
06E00E
0C7C0C
183C0C
70181C
C001F8
0000F0
000060
ENDCHAR
STARTCHAR C213b
ENCODING 8507
SWIDTH 400 0
DWIDTH 24 0
BBX 24 24 0 -2
BITMAP
003800
003800
003000
003000
003060
1FFFF0
003070
003060
003060
003060
003060
003062
FFFFFF
007000
007000
006000
00C300
00C0E0
01C070
038038
07001C
0E000E
1C0006
700000
ENDCHAR
STARTCHAR C213c
ENCODING 8508
SWIDTH 400 0
DWIDTH 24 0
BBX 24 24 0 -2
BITMAP
001800
001800
001800
041800
0718C0
061830
0C1818
0C180C
18180E
10180E
201806
401800
001800
301800
081000
060000
038000
01C000
00F000
003C00
000F80
0003FF
00007F
00003E
ENDCHAR
STARTCHAR C213d
ENCODING 8509
SWIDTH 400 0
DWIDTH 24 0
BBX 24 24 0 -2
BITMAP
001800
001800
001800
001800
003807
FFFFFF
001800
001800
301810
3FFFF8
38381C
301818
301818
301818
301818
301818
301818
301818
3019F8
301830
001820
001800
001800
001000
ENDCHAR
STARTCHAR C213e
ENCODING 8510
SWIDTH 400 0
DWIDTH 24 0
BBX 24 24 0 -2
BITMAP
000000
080038
1FFFF8
1C0C00
1C0C00
1C0C00
181800
181800
181804
1FFFFE
103F00
003300
003300
003300
006300
006300
00C300
00C300
018301
030301
060303
0C03FF
1803FF
6001FE
ENDCHAR
STARTCHAR C213f
ENCODING 8511
SWIDTH 400 0
DWIDTH 24 0
BBX 24 24 0 -2
BITMAP
000100
010380
03FFC0
038180
038180
038180
030180
060180
0601FE
0C00FF
180000
3000C0
47FFE0
0101C0
010180
008180
00C300
006600
003C00
003C00
007F00
01C3FE
0700FE
7C003C
ENDCHAR
STARTCHAR C2140
ENCODING 8512
SWIDTH 400 0
DWIDTH 24 0
BBX 24 24 0 -2
BITMAP
000020
0C0070
0FFFF8
0C1830
0C1830
0C1830
0C1830
0C1830
0C1830
1C1830
1C1832
FFFFFF
1C1830
1C1830
1C1830
183830
183030
183030
183030
183030
183030
1FFFF0
100030
000020
ENDCHAR
STARTCHAR C2141
ENCODING 8513
SWIDTH 400 0
DWIDTH 24 0
BBX 24 24 0 -2
BITMAP
1C0000
1C0000
1C001C
1FFFFC
180000
380000
3FFFF0
300000
600000
600060
DFFFF0
800070
000060
000060
000060
000030
000030
000030
000039
000019
00001F
00000F
000007
000003
ENDCHAR
STARTCHAR C2142
ENCODING 8514
SWIDTH 400 0
DWIDTH 24 0
BBX 24 24 0 -2
BITMAP
020070
038070
030060
030060
030060
030060
030060
030060
07FFE0
020060
000060
000060
000060
07FFE0
060060
060060
060060
060060
060060
0C0060
0C0060
180060
300060
600060
ENDCHAR
STARTCHAR C2143
ENCODING 8515
SWIDTH 400 0
DWIDTH 24 0
BBX 24 24 0 -2
BITMAP
00C380
00C380
00C300
30C30E
30C30E
30C30C
30C30C
30C30C
30C30C
30C30C
30C30C
30C30C
7FC3FC
21C38C
00C300
018300
018300
018300
030300
030300
060300
0C0300
180300
600300
ENDCHAR
STARTCHAR C2144
ENCODING 8516
SWIDTH 400 0
DWIDTH 24 0
BBX 24 24 0 -2
BITMAP
0381C0
0381C0
038180
038180
038180
03818C
7FFFFE
038180
03E180
03B180
039980
039980
038980
038187
FFFFFF
030180
030180
060180
060180
060180
0C0180
180180
300180
600180
ENDCHAR
STARTCHAR C2145
ENCODING 8517
SWIDTH 400 0
DWIDTH 24 0
BBX 24 24 0 -2
BITMAP
070000
070000
06000E
06FFFE
0C0000
0C0000
180000
180000
380000
780000
780000
D80018
183FFC
180000
180000
180000
180000
180000
180000
180000
180002
19FFFF
180000
180000
ENDCHAR
STARTCHAR C2146
ENCODING 8518
SWIDTH 400 0
DWIDTH 24 0
BBX 24 24 0 -2
BITMAP
038000
038000
070008
067FFC
060380
0C0300
1C0300
1C0300
3C0300
3C0300
7C0300
5C0300
9C0300
1C0300
1C0300
1C0300
1C0300
1C0300
1C0300
1C0300
1C0302
1DFFFF
1C0000
180000
ENDCHAR
STARTCHAR C2147
ENCODING 8519
SWIDTH 400 0
DWIDTH 24 0
BBX 24 24 0 -2
BITMAP
070700
070700
060600
060600
0C0600
0C0600
1C0600
1C0600
3C0608
7C07FC
7C0600
DC0600
1C0600
1C0600
1C0600
1C0600
1C0600
1C0600
1C0600
1C0600
1C0600
1C0606
1FFFFF
180000
ENDCHAR
STARTCHAR C2148
ENCODING 8520
SWIDTH 400 0
DWIDTH 24 0
BBX 24 24 0 -2
BITMAP
038E00
038E00
071C00
061804
06180E
0C3FFE
1C6000
1C4000
3C8010
3C3FF8
7C0038
5C0060
9C00C0
1C0180
1C0300
1C0600
1C0C00
1C1800
1C3001
1C6001
1C6003
1C7FFF
1C7FFF
181FFE
ENDCHAR
STARTCHAR C2149
ENCODING 8521
SWIDTH 400 0
DWIDTH 24 0
BBX 24 24 0 -2
BITMAP
001800
003800
003800
006400
00C200
00C100
0180C0
030060
060038
0C001F
18000F
700067
CFFFF0
001800
001800
001800
001800
001800
001800
001800
001800
001800
00380C
3FFFFC
ENDCHAR
STARTCHAR C214a
ENCODING 8522
SWIDTH 400 0
DWIDTH 24 0
BBX 24 24 0 -2
BITMAP
001800
003800
003800
006400
00C200
018180
0300C0
060060
0C103C
181C1F
30180E
E01800
001800
081820
1C1838
1C1830
1C1830
1C1830
1C1830
1C1830
1C1830
1C1830
1FFFF0
000030
ENDCHAR
STARTCHAR C214b
ENCODING 8523
SWIDTH 400 0
DWIDTH 24 0
BBX 24 24 0 -2
BITMAP
007007
007007
006006
0060E6
0060E6
0064C6
FFFEC6
0060C6
0060C6
3060C6
1860C6
0C60C6
0C60C6
0460C6
0060C6
0060C6
0060C6
0060C6
006006
006006
006006
07E07E
03C03C
008008
ENDCHAR
STARTCHAR C214c
ENCODING 8524
SWIDTH 400 0
DWIDTH 24 0
BBX 24 24 0 -2
BITMAP
1C0007
1C0007
1C0006
1808E6
181CE6
3FFCC6
3000C6
6000C6
C000C6
0060C6
3FF0C6
00F0C6
01C0C6
0380C6
0700C6
0E00C6
1C00C6
3800C6
300206
600606
600406
7FFC7E
3FFC3C
0FF808
ENDCHAR
STARTCHAR C214d
ENCODING 8525
SWIDTH 400 0
DWIDTH 24 0
BBX 24 24 0 -2
BITMAP
000004
60000E
7FFFFE
600800
600E00
61CC00
61CC00
618C60
618FF0
67FC70
618C60
618CC0
618CC0
618C80
618D80
618C00
618008
618008
61FFF8
60FFF8
607FF0
600006
7FFFFF
000000
ENDCHAR
STARTCHAR C214e
ENCODING 8526
SWIDTH 400 0
DWIDTH 24 0
BBX 24 24 0 -2
BITMAP
1C001C
1C001C
18E398
18E318
18C318
18C318
18C318
18C318
18C318
18C318
FFFFFF
18C318
18C318
18C318
18C318
18C318
38C318
30C318
30C318
30C318
60C318
C0C318
800018
000018
ENDCHAR
STARTCHAR C214f
ENCODING 8527
SWIDTH 400 0
DWIDTH 24 0
BBX 24 24 0 -2
BITMAP
000000
1E0006
1C7FFF
1C01C0
1C01C0
1C01C0
1C01C0
1F81C0
7F81C0
1C01C0
1C01C0
1C01C0
1C01C0
1C01C0
1C01C0
1C81C0
1F81C0
3E01C0
F801C0
E001C0
0001C0
000FC0
000780
000300
ENDCHAR
STARTCHAR C2150
ENCODING 8528
SWIDTH 400 0
DWIDTH 24 0
BBX 24 24 0 -2
BITMAP
000040
0000E0
0FFFE0
0300C0
018180
01C380
00E700
007E00
003C00
007E00
00C780
0383FF
0E18FF
30180C
C01800
001800
003860
07FFE0
001800
001800
001800
001800
00380C
3FFFFC
ENDCHAR
STARTCHAR C2151
ENCODING 8529
SWIDTH 400 0
DWIDTH 24 0
BBX 24 24 0 -2
BITMAP
060000
060000
06020C
0E63FE
0FF30E
0C730C
1C730C
18730C
18630C
18630C
3C630C
36C30C
63C30C
63C30C
C1830C
0183FC
030318
030300
060301
060301
0C0303
1803FF
3003FF
6001FE
ENDCHAR
STARTCHAR C2152
ENCODING 8530
SWIDTH 400 0
DWIDTH 24 0
BBX 24 24 0 -2
BITMAP
001800
001800
001800
003006
7FFFFE
006C00
006600
00C300
0181C0
0300F8
06783F
1C700F
F07022
007070
0FFFF8
006030
006030
00C030
00C030
018070
030060
060FE0
0C03C0
700180
ENDCHAR
STARTCHAR C2153
ENCODING 8531
SWIDTH 400 0
DWIDTH 24 0
BBX 24 24 0 -2
BITMAP
003000
001800
201802
3FFFFF
600007
E00006
C0000C
000000
000006
7FFFFE
001800
001800
001800
001800
001800
001800
001800
001800
001800
001800
001800
01F800
00F000
006000
ENDCHAR
STARTCHAR C2154
ENCODING 8532
SWIDTH 400 0
DWIDTH 24 0
BBX 24 24 0 -2
BITMAP
003000
001800
201802
3FFFFF
600007
E02006
C0780C
007000
007000
0070C0
0FFFE0
0070C0
0070C0
0060C0
0060C0
00C0C0
00C0C0
0180C0
0180C1
0300C1
0600C3
0C00FF
18007F
60003E
ENDCHAR
STARTCHAR C2155
ENCODING 8533
SWIDTH 400 0
DWIDTH 24 0
BBX 24 24 0 -2
BITMAP
001800
003800
003800
006400
00C200
018180
0300C0
061860
0C1C3C
18181F
30180E
E01800
039800
0398C0
071860
061830
061818
0C181C
18180E
30180E
601806
40F800
007800
003000
ENDCHAR
STARTCHAR C2156
ENCODING 8534
SWIDTH 400 0
DWIDTH 24 0
BBX 24 24 0 -2
BITMAP
200008
30001C
3FFFFC
30000C
30000C
3FFFFC
30000C
303000
303800
303000
3030C0
37FFE0
3030E0
3030C0
3030C0
7070C0
6060C0
6060C0
60C0C1
C0C0C1
C180C3
8300FF
86007F
38003E
ENDCHAR
STARTCHAR C2157
ENCODING 8535
SWIDTH 400 0
DWIDTH 24 0
BBX 24 24 0 -2
BITMAP
001800
301818
38181C
301818
301818
301818
3FFFF8
002018
007000
007000
007018
3FFFFC
00701C
007018
006018
006018
00C018
00C018
01C038
038030
070070
0E0FE0
1803C0
600180
ENDCHAR
STARTCHAR C2158
ENCODING 8536
SWIDTH 400 0
DWIDTH 24 0
BBX 24 24 0 -2
BITMAP
00E000
003800
003C00
006600
00C300
018180
0300C0
060070
0C103F
181C1F
601806
801800
001800
081820
1C1838
1C1830
1C1830
1C1830
1C1830
1C1830
1C1830
1C1830
1FFFF0
000030
ENDCHAR
STARTCHAR C2159
ENCODING 8537
SWIDTH 400 0
DWIDTH 24 0
BBX 24 24 0 -2
BITMAP
0E0000
0E0002
0C3FFF
0C0060
4C8060
FFC060
ECC060
ECC060
ECC060
ECC060
ECC060
ECC060
ECC060
ECC060
ECC060
ECC060
EFC060
CD8060
0C0060
0C0060
0C0060
0C07E0
0C03C0
0C0180
ENDCHAR
STARTCHAR C215a
ENCODING 8538
SWIDTH 400 0
DWIDTH 24 0
BBX 24 24 0 -2
BITMAP
001800
000C00
300C06
3FFFFF
300000
30E000
30C000
30C000
30C000
30C010
30C078
30C3F8
30DF80
30F000
30C000
30C000
30C000
30C001
30C003
60C002
60C006
C0FFFF
80FFFE
007FF8
ENDCHAR
STARTCHAR C215b
ENCODING 8539
SWIDTH 400 0
DWIDTH 24 0
BBX 24 24 0 -2
BITMAP
001800
000C00
300C06
3FFFFF
300000
300E00
300C00
300C00
300C00
300C00
300C00
301E00
301A00
301B00
301900
303980
303080
3070C0
306060
60C070
61803C
C3001F
86000E
1C0000
ENDCHAR
STARTCHAR C215c
ENCODING 8540
SWIDTH 400 0
DWIDTH 24 0
BBX 24 24 0 -2
BITMAP
1C0000
1C0006
187FFF
180307
180307
180307
5C0307
5E0307
DB0307
D90307
D80307
980607
180607
180607
180607
180E07
180C07
181C07
181806
18180E
18300C
1861FC
18C078
1B8030
ENDCHAR
STARTCHAR C215d
ENCODING 8541
SWIDTH 400 0
DWIDTH 24 0
BBX 24 24 0 -2
BITMAP
001C00
001CC0
001860
201830
301C37
3FFFFF
301800
301800
300C00
300C00
300C18
300C1C
300E38
300630
300670
3003E0
3003C0
30C380
3387C1
3E0EE1
381C73
30703F
00C01F
0F8007
ENDCHAR
STARTCHAR C215e
ENCODING 8542
SWIDTH 400 0
DWIDTH 24 0
BBX 24 24 0 -2
BITMAP
1C0380
1C0380
1C0300
1C0300
1C0300
1D0302
7F3FFF
1C0387
1C0307
1C0307
1C0307
1F0307
1C0307
FC0307
FC0607
5C0607
1C0607
1C0C06
1C0C06
1C180E
1C300C
7C61FC
38C078
1B8030
ENDCHAR
STARTCHAR C215f
ENCODING 8543
SWIDTH 400 0
DWIDTH 24 0
BBX 24 24 0 -2
BITMAP
1C0000
1C0008
1FFFFC
180000
300000
3FFFF0
300000
600000
5FFFF0
800070
000060
001C60
001C60
001860
003060
003030
006030
00E031
01C039
03801B
07001F
0E000F
300007
000002
ENDCHAR
STARTCHAR C2160
ENCODING 8544
SWIDTH 400 0
DWIDTH 24 0
BBX 24 24 0 -2
BITMAP
000000
0001C0
03FFE0
000180
000300
000200
000400
001818
00983C
3FDC70
01DCC0
019F80
019B00
019B00
031980
0318C0
0618E0
061870
0C183C
18181F
30180F
E0F802
007800
003000
ENDCHAR
STARTCHAR C2161
ENCODING 8545
SWIDTH 400 0
DWIDTH 24 0
BBX 24 24 0 -2
BITMAP
000100
180180
0C00C0
0C00C0
0000C0
011C40
811840
E21860
721860
361860
061860
043020
0C3030
083030
183030
187038
307018
F06018
30601C
30C00C
38C00E
398007
398007
130000
ENDCHAR
STARTCHAR C2162
ENCODING 8546
SWIDTH 400 0
DWIDTH 24 0
BBX 24 24 0 -2
BITMAP
000E00
180E00
0C0C00
0C0C00
000C00
010C20
817FF0
E20C30
720C30
360C30
060C30
040C30
0C0C30
081830
181830
181830
301830
F01030
303030
302031
386031
38C03F
39803F
13000E
ENDCHAR
STARTCHAR C2163
ENCODING 8547
SWIDTH 400 0
DWIDTH 24 0
BBX 24 24 0 -2
BITMAP
000380
180380
0C0300
0C0300
000300
010302
813FFF
E20387
720307
360307
060307
040307
0C0307
080307
180607
180607
300607
F00C06
300C06
30180E
38300C
3861FC
38C078
138030
ENDCHAR
STARTCHAR C2164
ENCODING 8548
SWIDTH 400 0
DWIDTH 24 0
BBX 24 24 0 -2
BITMAP
001800
001800
001980
0018C0
001860
001820
001806
7FFFFE
003000
003800
003800
007800
006C00
006438
00E630
00C360
00C3C0
0181C0
0303C0
060660
0C0C3C
18181F
30600F
600002
ENDCHAR
STARTCHAR C2165
ENCODING 8549
SWIDTH 400 0
DWIDTH 24 0
BBX 24 24 0 -2
BITMAP
040700
860700
4C0600
380600
380600
380620
4C7FF0
8C0630
0C0630
0E0630
0E0630
1E0630
1E0630
360E30
660E30
C60C30
060C30
061C30
061830
061831
0E3031
7C603F
3CC03F
1B800E
ENDCHAR
STARTCHAR C2166
ENCODING 8550
SWIDTH 400 0
DWIDTH 24 0
BBX 24 24 0 -2
BITMAP
000004
00000E
3FFFFE
001800
001800
001B00
0018C0
001860
001820
001800
001800
001818
3FFFFC
001800
001800
001800
001800
001800
001800
001800
001800
001800
003807
FFFFFF
ENDCHAR
STARTCHAR C2167
ENCODING 8551
SWIDTH 400 0
DWIDTH 24 0
BBX 24 24 0 -2
BITMAP
001800
001800
001800
001800
001800
001800
601800
60180C
FFFFFE
60180E
60180C
60180C
60198C
6018CC
6018EC
601BEC
607E6C
6FF06C
66002C
60000C
60000C
6000FC
600078
600030
ENDCHAR
STARTCHAR C2168
ENCODING 8552
SWIDTH 400 0
DWIDTH 24 0
BBX 24 24 0 -2
BITMAP
200000
338000
3F800E
339FFF
33800C
338018
338038
3F8030
378060
3380C0
338180
338380
338700
378E00
3F8C00
6B9800
63B000
63B000
63F001
E3F001
C3B003
DFBFFF
871FFF
0207FE
ENDCHAR
STARTCHAR C2169
ENCODING 8553
SWIDTH 400 0
DWIDTH 24 0
BBX 24 24 0 -2
BITMAP
020300
E70300
FF8300
E30300
E60300
E60302
E47FFF
EC0707
EC0307
E40307
E60307
E30607
E30607
E38607
E38607
E38E07
E38C07
FF1C06
E61806
E0300E
E0600C
E0C1FC
E18078
C60030
ENDCHAR
STARTCHAR C216a
ENCODING 8554
SWIDTH 400 0
DWIDTH 24 0
BBX 24 24 0 -2
BITMAP
038300
038300
070300
060300
060304
0DFFFE
1C0300
1C0300
3C0300
3C0318
7CFFFC
5C2038
9C3030
1C1030
1C1860
1C0C60
1C06C0
1C0780
1C0380
1C07C0
1C0C70
1C181F
1C600F
1B8002
ENDCHAR
STARTCHAR C216b
ENCODING 8555
SWIDTH 400 0
DWIDTH 24 0
BBX 24 24 0 -2
BITMAP
038380
038380
070318
06030C
06030C
0C0304
1C0300
1CFFFE
3C0300
3C0300
7C0300
5C03E0
9C03C0
1C06C0
1C06C0
1C0EC0
1C0CC0
1C1CC0
1C18C1
1C18C1
1C30C3
1C60FF
1CC07F
1B803E
ENDCHAR
STARTCHAR C216c
ENCODING 8556
SWIDTH 400 0
DWIDTH 24 0
BBX 24 24 0 -2
BITMAP
039000
03980C
071FFE
06180C
06180C
0C180C
1C180C
1C180C
3C180C
3C1FFC
7C198C
5C1900
9C1980
1C1880
1C30C0
1C3040
1C3060
1C3020
1C6030
1C6018
1CC01E
1CC00F
1D8007
1B0000
ENDCHAR
STARTCHAR C216d
ENCODING 8557
SWIDTH 400 0
DWIDTH 24 0
BBX 24 24 0 -2
BITMAP
039800
039800
071800
063800
06300C
0C3FFC
1C6180
1C6180
3CC180
3CC180
7C8180
5C0180
9C0186
1CFFFF
1C0180
1C0180
1C0180
1C0180
1C0180
1C0180
1C0180
1C0180
1C0180
180180
ENDCHAR
STARTCHAR C216e
ENCODING 8558
SWIDTH 400 0
DWIDTH 24 0
BBX 24 24 0 -2
BITMAP
070000
074006
067FFF
064007
0CC004
0CC008
188E60
180E60
380C60
780C60
780C60
D80C60
180C60
180C60
181C60
181860
181860
181860
183861
183061
187063
18607F
18C07F
1B803E
ENDCHAR
STARTCHAR C216f
ENCODING 8559
SWIDTH 400 0
DWIDTH 24 0
BBX 24 24 0 -2
BITMAP
038300
038700
070700
060F80
060CC0
0C1CC0
1C1860
1C1030
3C3038
3C605C
7CFFEF
5C8007
9D0002
1C0020
1C7FF0
1C0030
1C0030
1C0060
1C0060
1C00C0
1C00C0
1C0180
1C0180
180300
ENDCHAR
STARTCHAR C2170
ENCODING 8560
SWIDTH 400 0
DWIDTH 24 0
BBX 24 24 0 -2
BITMAP
038180
038080
0700C0
060040
061C60
0C1C60
1C1830
1C1830
3C3038
3C3218
7C630C
5C630E
9CC60F
1CC607
1D8E00
1D0C00
1C0800
1C1830
1C1818
1C300C
1C30FC
1C7F8C
1C7004
181004
ENDCHAR
STARTCHAR C2171
ENCODING 8561
SWIDTH 400 0
DWIDTH 24 0
BBX 24 24 0 -2
BITMAP
038300
038300
070380
060780
060640
0C0C60
1C1C30
1C1838
3C301F
3C602F
7CDC36
5C1830
9C1830
1C1830
1C1830
1C1830
1C1830
1C1830
1C3030
1C3030
1C6030
1C4030
1C8030
190030
ENDCHAR
STARTCHAR C2172
ENCODING 8562
SWIDTH 400 0
DWIDTH 24 0
BBX 24 24 0 -2
BITMAP
038000
038200
070300
060180
0601C0
0C08C0
1C0CC0
1C0C40
3C0C00
3C0C00
7C0C00
5C4C00
9C4C00
1C4C08
1C4C0C
1CCC06
1CCC06
1CCC07
1DCC03
1D8C13
1D8C31
1C0FF0
1C07F0
1803E0
ENDCHAR
STARTCHAR C2173
ENCODING 8563
SWIDTH 400 0
DWIDTH 24 0
BBX 24 24 0 -2
BITMAP
038000
038000
07001C
063FFC
060000
0C0000
1C0000
1C0000
3C0002
3CFFFF
7C0E00
5C0E00
9C0C00
1C0C00
1C1C00
1C1800
1C1800
1C3018
1C300C
1C607E
1CFFE7
1CFC07
1C6002
180000
ENDCHAR
STARTCHAR C2174
ENCODING 8564
SWIDTH 400 0
DWIDTH 24 0
BBX 24 24 0 -2
BITMAP
0381C0
0381C0
070180
060186
06FFFF
0C0180
1C0180
1C218C
3C7FFE
3C718E
7C718C
5C718C
9C718C
1C718C
1C718C
1C718C
1C718C
1C718C
1C71BC
1C71BC
1C6198
1C0180
1C0180
180180
ENDCHAR
STARTCHAR C2175
ENCODING 8565
SWIDTH 400 0
DWIDTH 24 0
BBX 24 24 0 -2
BITMAP
038380
038380
070300
060304
06038E
0CFFFE
1C0300
1C4308
3C730E
3C630C
7C630C
5C630C
9C630C
1C630C
1C630C
1C7FFC
1C439C
1C0308
1C0301
1C0301
1C0303
1C03FF
1C01FF
1800FE
ENDCHAR
STARTCHAR C2176
ENCODING 8566
SWIDTH 400 0
DWIDTH 24 0
BBX 24 24 0 -2
BITMAP
038000
038006
071FFE
061860
061860
0C1860
1C1860
1C3060
3C3062
3C3FFF
7C30F0
5C00E0
9C01E0
1C01E0
1C0360
1C0760
1C0E60
1C0C60
1C1860
1C3060
1C6060
1CC7E0
1F01E0
1800C0
ENDCHAR
STARTCHAR C2177
ENCODING 8567
SWIDTH 400 0
DWIDTH 24 0
BBX 24 24 0 -2
BITMAP
070000
070007
067FFF
060180
0C0180
0C0300
1C0300
1C0700
3C0700
7C0F10
7C1B08
DC1B0C
1C3306
1C6307
1CC303
1D8303
1D0300
1C0300
1C0300
1C0300
1C0300
1C0300
1C0300
180300
ENDCHAR
STARTCHAR C2178
ENCODING 8568
SWIDTH 400 0
DWIDTH 24 0
BBX 24 24 0 -2
BITMAP
070000
07000C
067FFE
06030C
0C030C
0C030C
1C430C
1C7FFC
3C6300
7C6300
7CC300
DCC306
1CFFFF
1C0307
1C0307
1C0307
1C0306
1C030E
1C03FC
1C0318
1C0300
1C0300
1C0300
180300
ENDCHAR
STARTCHAR C2179
ENCODING 8569
SWIDTH 400 0
DWIDTH 24 0
BBX 24 24 0 -2
BITMAP
038004
03980E
071FFF
061806
061806
0C1806
1C1806
1C1C06
3C1FFE
3C1806
7C1806
5C1806
9C1806
1C1C06
1C1FFE
1C1806
1C1806
1C3006
1C3006
1C6006
1C6006
1CC07E
1D803C
1F0008
ENDCHAR
STARTCHAR C217a
ENCODING 8570
SWIDTH 400 0
DWIDTH 24 0
BBX 24 24 0 -2
BITMAP
03803C
0380FE
071FE0
061800
061800
0C1800
1C1800
1C1806
3C1FFF
3C1830
7C1830
5C1830
9C1830
1C1830
1C3030
1C3030
1C3030
1C3030
1C7030
1C6030
1C6030
1CC030
1C8030
190030
ENDCHAR
STARTCHAR C217b
ENCODING 8571
SWIDTH 400 0
DWIDTH 24 0
BBX 24 24 0 -2
BITMAP
000000
00000C
60FFFC
301800
381800
181800
021820
061870
041FF8
0C3830
0C3030
183030
183030
107060
307060
F07FE0
F060E0
600060
300060
3000C0
3000C0
3000C6
33FFFF
000000
ENDCHAR
STARTCHAR C217c
ENCODING 8572
SWIDTH 400 0
DWIDTH 24 0
BBX 24 24 0 -2
BITMAP
000007
002007
7FF006
0001C6
0001C6
0001C6
0001C6
0011C6
FFF9C6
1CC1C6
1CC1C6
1CC1C6
1CC1C6
18C1C6
18C1C6
18C1C6
10C1C6
30C186
30CC06
30F006
60E006
C0C07E
80003C
000008
ENDCHAR
STARTCHAR C217d
ENCODING 8573
SWIDTH 400 0
DWIDTH 24 0
BBX 24 24 0 -2
BITMAP
101007
183807
1FF806
1818E6
1818E6
1B18C6
1998C6
18D8C6
18D8C6
1818C6
183AC6
7FFEC6
1818C6
1818C6
1818C6
3018C6
3018C6
3018C6
301806
601806
601806
C1F87E
80F03C
006008
ENDCHAR
STARTCHAR C217e
ENCODING 8574
SWIDTH 400 0
DWIDTH 24 0
BBX 24 24 0 -2
BITMAP
003800
003800
003070
07FFF8
003030
003030
006030
00C070
018060
0307E0
0601C0
080000
040040
070070
062062
7FF3FF
0E70E7
067067
0C70C7
0C70C7
186186
1FE37E
33C63C
619C18
ENDCHAR
STARTCHAR C2221
ENCODING 8737
SWIDTH 400 0
DWIDTH 24 0
BBX 24 24 0 -2
BITMAP
000004
60000E
7FFFFE
60E000
60E000
60C008
60FFFC
60DDDC
6199CC
6319CC
62198C
64318C
60318C
60630C
60E31C
61C618
638C18
6E1838
6073F0
60C1E0
6000C0
600006
7FFFFF
000000
ENDCHAR
STARTCHAR C2222
ENCODING 8738
SWIDTH 400 0
DWIDTH 24 0
BBX 24 24 0 -2
BITMAP
000004
60000E
7FFFFE
601000
601800
600C00
67FFF8
600000
600000
607FC0
6061C0
6061C0
6061C0
6061C0
60E1C0
60C1C0
60C1C4
6181CC
6301F8
6600FC
6C0078
600002
7FFFFF
000000
ENDCHAR
STARTCHAR C2223
ENCODING 8739
SWIDTH 400 0
DWIDTH 24 0
BBX 24 24 0 -2
BITMAP
001000
00380E
3FF80E
00180C
00180C
00180C
00180C
00180C
00180C
00180C
00180C
40180C
7FFFFC
60180C
601800
601800
601800
601800
601800
601800
601800
601806
603FFE
001000
ENDCHAR
STARTCHAR C2224
ENCODING 8740
SWIDTH 400 0
DWIDTH 24 0
BBX 24 24 0 -2
BITMAP
000000
300007
3FFFFF
300008
30C01C
30FFFC
30C1C0
30C1C0
30C1C0
30C1C0
30C1C6
31FFFE
3003C0
3003C0
3007C0
300DC0
2019C0
6031C0
6061C0
60C1C0
C181C0
C70FC0
800780
000300
ENDCHAR
STARTCHAR C2225
ENCODING 8741
SWIDTH 400 0
DWIDTH 24 0
BBX 24 24 0 -2
BITMAP
000008
00001C
003FFC
C60038
FF0060
E700C0
E60180
E60180
E60180
E60180
E60186
E6FFFF
E60180
E60180
E60180
E60180
FE0180
E60180
C00180
000180
000180
001F80
000F00
000200
ENDCHAR
STARTCHAR C2226
ENCODING 8742
SWIDTH 400 0
DWIDTH 24 0
BBX 24 24 0 -2
BITMAP
000000
60000C
7FFFFE
60700C
60700C
60630C
60638C
60C30C
6FFFFC
60C30C
60C30C
61830C
63870C
63060C
670E0C
61FC0C
603C0C
603F0C
6063CC
6180EC
6E004C
60000C
7FFFFC
60000C
ENDCHAR
STARTCHAR C2227
ENCODING 8743
SWIDTH 400 0
DWIDTH 24 0
BBX 24 24 0 -2
BITMAP
060000
060000
44000C
7FFFFE
60000E
60010C
60018C
66018C
63030C
61830C
60C30C
60660C
603C0C
601C0C
603C0C
60670C
60C38C
6181CC
6300EC
66006C
68000C
60000C
7FFFFC
60000C
ENDCHAR
STARTCHAR C2228
ENCODING 8744
SWIDTH 400 0
DWIDTH 24 0
BBX 24 24 0 -2
BITMAP
000000
0E000C
0C0FFE
0C000C
0C000C
0C000C
0C000C
0D800C
7F800C
0C180C
0C1FFC
0C180C
0C180C
0C1800
0C1800
0C5800
0F9800
3E1800
F81801
E01801
001803
001FFF
000FFF
0007FE
ENDCHAR
STARTCHAR C2229
ENCODING 8745
SWIDTH 400 0
DWIDTH 24 0
BBX 24 24 0 -2
BITMAP
000700
1E0700
1C0600
1C0600
1C0E07
1C0FFF
1C1800
1F9000
7FA008
1C0FFC
1C001C
1C0038
1C0060
1C00C0
1C0180
1C8300
1F8600
3E0C00
F81801
E01801
001803
001FFF
000FFF
0003FE
ENDCHAR
STARTCHAR C222a
ENCODING 8746
SWIDTH 400 0
DWIDTH 24 0
BBX 24 24 0 -2
BITMAP
000E00
1E0E00
1C0E00
1C0C00
1C0C06
1C1FFF
1C1807
1F9807
7FB007
1C2007
1C0607
1C0307
1C0187
1C00C7
1C00C7
1C8007
1F8007
3E0007
F80006
E00006
00000E
0001FC
000078
000030
ENDCHAR
STARTCHAR C222b
ENCODING 8747
SWIDTH 400 0
DWIDTH 24 0
BBX 24 24 0 -2
BITMAP
001800
001800
001800
003006
7FFFFE
006C00
006600
00C300
0181C0
0300F8
06003F
1C000F
F61072
061C70
061860
061860
061860
0C1860
0C1860
0C1860
181860
181860
301060
600060
ENDCHAR
STARTCHAR C222c
ENCODING 8748
SWIDTH 400 0
DWIDTH 24 0
BBX 24 24 0 -2
BITMAP
000380
000380
018300
7FC300
018300
01831C
018318
01871B
019FFF
018618
FF8618
E00E38
E00E38
E00C30
E00C30
E01860
E0DE60
E383C0
EE01F0
FC0338
F0061C
600C0E
001807
007000
ENDCHAR
STARTCHAR C222d
ENCODING 8749
SWIDTH 400 0
DWIDTH 24 0
BBX 24 24 0 -2
BITMAP
000010
380078
3801F8
300F80
323F00
330300
FF8300
FB0300
330300
330304
33030E
333FFE
730300
660300
660300
E60300
3C0300
1E0300
1F0301
330301
218303
4003FF
8003FF
0001FE
ENDCHAR
STARTCHAR C222e
ENCODING 8750
SWIDTH 400 0
DWIDTH 24 0
BBX 24 24 0 -2
BITMAP
000000
380000
38000C
303FFE
320180
330180
FF8180
FB0180
330180
330180
330180
330180
730180
660180
660180
E60180
3C0180
1E0180
1F0180
330180
218182
407FFF
800000
000000
ENDCHAR
STARTCHAR C222f
ENCODING 8751
SWIDTH 400 0
DWIDTH 24 0
BBX 24 24 0 -2
BITMAP
0001C0
1E01C0
1C0180
1C0180
1C8180
1CC38C
FFE30C
F9FFFF
18C30C
18C30C
18C30C
30C618
318618
318618
318E38
3B0C30
0F0E60
0781E0
0FC0F0
1CE1F8
38639C
70270E
C00C07
803000
ENDCHAR
STARTCHAR C2230
ENCODING 8752
SWIDTH 400 0
DWIDTH 24 0
BBX 24 24 0 -2
BITMAP
0001C0
3801C0
3801C0
3001C0
3201C0
3301C0
FF81C4
FB39C7
3331C6
3331C6
3331C6
3331C6
7331C6
6631C6
6631C6
E631C6
3C31C6
1E31C6
1F31C6
3331C6
21B1C6
403FFE
803006
000004
ENDCHAR
STARTCHAR C2231
ENCODING 8753
SWIDTH 400 0
DWIDTH 24 0
BBX 24 24 0 -2
BITMAP
000038
3801FC
380FC0
303DC0
3101C0
3381C0
FFC1C0
FF81C0
3381C2
33BFFF
3381C0
3381C0
7301C0
6301C0
6301C0
E601C0
3E01C0
1E01C0
1F01C0
3381C0
2181C0
4001C0
8001C0
000180
ENDCHAR
STARTCHAR C2232
ENCODING 8754
SWIDTH 400 0
DWIDTH 24 0
BBX 24 24 0 -2
BITMAP
1C0100
1C01C0
1C0180
1C0180
1C019C
1C0198
1CDFFF
7FE318
1CE318
1CC318
1CC318
1CC638
1CC630
1CC630
1EC3E0
1BC0F0
1BC1B8
30C31C
30C60D
30D801
60E003
C0FFFF
807FFF
001FFE
ENDCHAR
STARTCHAR C2233
ENCODING 8755
SWIDTH 400 0
DWIDTH 24 0
BBX 24 24 0 -2
BITMAP
004004
00E00E
7FF7FF
00C01C
018018
070030
060060
060060
060060
060060
06E062
1F9FFF
FE0060
E60060
060060
060060
060060
060060
060060
060060
060060
3E03E0
1E01C0
0C0180
ENDCHAR
STARTCHAR C2234
ENCODING 8756
SWIDTH 400 0
DWIDTH 24 0
BBX 24 24 0 -2
BITMAP
000000
000060
0FFFF0
018060
0180C0
0180CE
0380FF
030006
030006
060006
0C1C0C
181CFC
301878
C01810
039880
0318C0
061860
061830
0E1818
0C180C
18180C
30F80C
607800
003000
ENDCHAR
STARTCHAR C2235
ENCODING 8757
SWIDTH 400 0
DWIDTH 24 0
BBX 24 24 0 -2
BITMAP
0E0000
0E0F00
0C0E00
0C0E04
0C0C0E
0C4FFF
7FF806
1F9806
1FB206
1F2386
1F0186
1F00C6
1F0006
1B0006
1B000E
1B000C
33001C
3303F9
330031
330003
630003
C3FFFF
81FFFF
007FFC
ENDCHAR
STARTCHAR C2236
ENCODING 8758
SWIDTH 400 0
DWIDTH 24 0
BBX 24 24 0 -2
BITMAP
000004
1E000E
1C7FFE
1C0E60
1C0E60
5D0E60
DDCE60
DD8E60
DD8E60
DD8E60
DD8E60
DD8E60
DD8E60
DD8C60
DD8C60
DD8C60
DD9860
DD9860
FF9860
01B061
003061
00607F
00C03F
01801E
ENDCHAR
STARTCHAR C2237
ENCODING 8759
SWIDTH 400 0
DWIDTH 24 0
BBX 24 24 0 -2
BITMAP
000000
1E000C
1C0FFE
1C000C
1C000C
5D000C
DDC00C
DD800C
DD800C
DD980C
DD9FFC
DD980C
DD980C
DD9800
DD9800
DD9800
DD9800
DD9800
FF9801
019801
001803
001FFF
000FFF
0007FE
ENDCHAR
STARTCHAR C2238
ENCODING 8760
SWIDTH 400 0
DWIDTH 24 0
BBX 24 24 0 -2
BITMAP
000000
1E0007
1C1FFF
1C0187
1C0187
5D0187
DDC187
DDB187
DD9987
DD9D87
DD8D87
DD8F87
DD8707
DD8307
DD8307
DD8307
DD8607
DD8607
FF8C06
01980E
00300C
0061FC
00C078
038030
ENDCHAR
STARTCHAR C2239
ENCODING 8761
SWIDTH 400 0
DWIDTH 24 0
BBX 24 24 0 -2
BITMAP
060070
060070
060060
060060
060060
060060
E66667
E66667
E66667
E66667
E66667
E66667
E66667
E66667
E66667
E66667
E66667
E66667
E66667
E66667
E66667
FFE7FF
C06607
006006
ENDCHAR
STARTCHAR C223a
ENCODING 8762
SWIDTH 400 0
DWIDTH 24 0
BBX 24 24 0 -2
BITMAP
003000
001800
001806
FFFFFF
0C0000
0C0000
0C0000
0C0000
0E0000
0FFFF8
07FFF8
000000
039C60
039C60
031860
031860
031860
061860
061860
061860
0C1860
18187E
30187F
60003F
ENDCHAR
STARTCHAR C223b
ENCODING 8763
SWIDTH 400 0
DWIDTH 24 0
BBX 24 24 0 -2
BITMAP
000000
00C00C
3FC3FC
060060
060060
060060
060060
060060
060062
07CFFF
1F80E0
FE0060
660060
060060
060060
060060
060060
0C0060
0C0060
0C0060
180060
100060
200060
400040
ENDCHAR
STARTCHAR C223c
ENCODING 8764
SWIDTH 400 0
DWIDTH 24 0
BBX 24 24 0 -2
BITMAP
001800
000C00
300C06
3FFFFF
300000
300700
300700
300600
300600
300600
300600
300618
31FFFC
300600
300600
300600
300600
300600
300600
600600
600600
C00606
8FFFFF
000000
ENDCHAR
STARTCHAR C223d
ENCODING 8765
SWIDTH 400 0
DWIDTH 24 0
BBX 24 24 0 -2
BITMAP
000060
3FFFF0
000070
000060
000060
3FFFE0
300060
300004
30000C
3FFFF8
1FFFFC
0FFFF8
0381C0
0381C0
0301C0
0301C6
FFFFFF
0301C0
0301C0
0601C0
0601C0
0C01C0
1801C0
700180
ENDCHAR
STARTCHAR C223e
ENCODING 8766
SWIDTH 400 0
DWIDTH 24 0
BBX 24 24 0 -2
BITMAP
000600
01C300
018180
0300C0
060070
0C003C
18005F
3FFFE7
E01862
001860
001860
0FFFE0
0C1840
0C1800
1C1818
1FFFFC
001818
001818
001838
001830
001BF0
001860
001800
001000
ENDCHAR
STARTCHAR C223f
ENCODING 8767
SWIDTH 400 0
DWIDTH 24 0
BBX 24 24 0 -2
BITMAP
030E00
070E00
060E00
0E0C00
1C0C06
381FFF
731807
071807
063007
0E2007
1C0607
1C0307
3C0187
3C00C7
5C00C7
9C0007
1C0007
1C0007
1C0006
1C0006
1C000E
1C01FC
1C0078
180030
ENDCHAR
STARTCHAR C2240
ENCODING 8768
SWIDTH 400 0
DWIDTH 24 0
BBX 24 24 0 -2
BITMAP
1C01C0
1C01C0
180180
180180
180180
180180
5C0186
5E7FFE
DB0180
D90180
D80180
9803C0
1803C0
180340
180340
180660
180660
180E30
180C38
18181C
18181E
18300F
186007
19C000
ENDCHAR
STARTCHAR C2241
ENCODING 8769
SWIDTH 400 0
DWIDTH 24 0
BBX 24 24 0 -2
BITMAP
1C0E00
1C0E00
180E00
180C04
180C0E
181FFE
5C1800
5E3000
DB6000
D90030
D81FF0
980070
1800E0
1801C0
180380
180700
180E00
181C00
181801
183001
183003
183FFF
181FFF
1807FE
ENDCHAR
STARTCHAR C2242
ENCODING 8770
SWIDTH 400 0
DWIDTH 24 0
BBX 24 24 0 -2
BITMAP
1C0038
1C01FC
180FC0
183DC0
1801C0
1801C0
5C01C0
5E01C0
DB01C2
D97FFF
D801C0
9801C0
1801C0
1801C0
1801C0
1801C0
1801C0
1801C0
1801C0
1801C0
1801C0
1801C0
1801C0
180180
ENDCHAR
STARTCHAR C2243
ENCODING 8771
SWIDTH 400 0
DWIDTH 24 0
BBX 24 24 0 -2
BITMAP
1C0000
1C000C
1C1FFC
1C01C0
1C01C0
1D01C0
7F01C0
1C01C0
1C01C2
1C7FFF
1C01C0
1F01C0
1C01C0
FC01C0
FC01C0
5C01C0
1C01C0
1C01C0
1C01C0
1C01C0
1C01C0
7C0FC0
380780
180300
ENDCHAR
STARTCHAR C2244
ENCODING 8772
SWIDTH 400 0
DWIDTH 24 0
BBX 24 24 0 -2
BITMAP
1C0000
1C000C
1C1FFC
1C01C0
1C01C0
1D01C0
7F01C0
1C01C0
1C01C0
1C01C2
1C7FFF
1F01C0
1C01C0
FC01C0
FC01C0
5C01C0
1C01C0
1C01C0
1C01C0
1C01C0
1C01C0
7C01C0
3801C0
180180
ENDCHAR
STARTCHAR C2245
ENCODING 8773
SWIDTH 400 0
DWIDTH 24 0
BBX 24 24 0 -2
BITMAP
1C0000
1C0007
1C7FFF
1C0E30
1C0E30
1D0E30
7F0E30
1C0E30
1C0E30
1C0E30
1C0E30
1F0E30
1C0E30
FC0C30
FC0C30
5C0C30
1C1830
1C1830
1C1830
1C3031
1C3031
7C603F
38C03F
19800E
ENDCHAR
STARTCHAR C2246
ENCODING 8774
SWIDTH 400 0
DWIDTH 24 0
BBX 24 24 0 -2
BITMAP
1C01C0
1C01C0
1C1DC0
1C19C0
1C19C0
1D19C0
7F19C6
1C19FE
1CFFCE
1C19CC
1C19CC
1F19CC
1C19CC
FC19D8
FC19D8
5C19D0
1C19C0
1C1980
1C1801
1C1801
1C1803
7C1FFF
181FFF
180FFE
ENDCHAR
STARTCHAR C2247
ENCODING 8775
SWIDTH 400 0
DWIDTH 24 0
BBX 24 24 0 -2
BITMAP
1C0038
1C01FC
1C0FC0
1C3DC0
1C01C0
1D01C0
7F01C0
1C01C0
1C01C2
1C7FFF
1C01C0
1F01C0
1C01C0
FC01C0
FC01C0
5C01C0
1C01C0
1C01C0
1C01C0
1C01C0
1C01C0
7C01C0
1801C0
180180
ENDCHAR
STARTCHAR C2248
ENCODING 8776
SWIDTH 400 0
DWIDTH 24 0
BBX 24 24 0 -2
BITMAP
1C0E00
1C0E00
1C0E00
1C0C04
1C0C0E
1D1FFE
7F1800
1C3000
1C6000
1C0030
1C1FF0
1F0070
1C00E0
FC01C0
FC0380
5C0700
1C0E00
1C1C00
1C1801
1C3001
1C3003
7C3FFF
381FFF
1807FE
ENDCHAR
STARTCHAR C2249
ENCODING 8777
SWIDTH 400 0
DWIDTH 24 0
BBX 24 24 0 -2
BITMAP
1C0070
1C0070
1C0060
1C0060
1C0060
1D0062
7F7FFF
1C0070
1C1060
1C1060
1C0860
1F0860
1C0C60
FC04C0
FC06C0
5C03C0
1C0380
1C0380
1C07C0
1C0E60
1C1C3C
7C381F
186007
198000
ENDCHAR
STARTCHAR C224a
ENCODING 8778
SWIDTH 400 0
DWIDTH 24 0
BBX 24 24 0 -2
BITMAP
1C0000
1C0008
1C7FFC
1C100C
1C100C
1D1B0C
7F1B98
1C1998
1C0998
1C0838
1C0C30
1F0C30
1C0660
FC0660
FC03C0
5C03C0
1C0180
1C03C0
1C06E0
1C0C70
1C183C
7C301F
18C007
1B8000
ENDCHAR
STARTCHAR C224b
ENCODING 8779
SWIDTH 400 0
DWIDTH 24 0
BBX 24 24 0 -2
BITMAP
1C0E00
1C0E00
1C0C00
1C0C00
1C1806
1D1FFF
7F1807
1C3007
1C3007
1C6007
1C4407
1F0707
1C0387
FC0187
FC00C7
5C0007
1C0007
1C0007
1C0006
1C0006
1C000E
7C01FC
180078
180030
ENDCHAR
STARTCHAR C224c
ENCODING 8780
SWIDTH 400 0
DWIDTH 24 0
BBX 24 24 0 -2
BITMAP
1C0380
1C0380
1C0300
1C0338
1C03FC
1D03E0
7F1F00
1C0300
1C0300
1C0300
1C0300
1F0304
1C7FFE
FC0380
FC0300
5C0300
1C0300
1C0300
1C0301
1C0301
1C0303
7C03FF
3801FF
1800FE
ENDCHAR
STARTCHAR C224d
ENCODING 8781
SWIDTH 400 0
DWIDTH 24 0
BBX 24 24 0 -2
BITMAP
000380
004380
FFE300
180300
180300
380602
3007FF
300618
308E18
7FCE18
21DA18
00C338
00C330
00C130
00C1F0
00C0E0
00C0E0
00C0E0
01C1B0
018338
03861E
3F0C0F
1E1807
0C7000
ENDCHAR
STARTCHAR C224e
ENCODING 8782
SWIDTH 400 0
DWIDTH 24 0
BBX 24 24 0 -2
BITMAP
000000
0C0060
0FFFF0
0C0060
0C0060
0FFFE0
0C0060
0C0060
0FFFE0
087060
007000
006000
0060C0
1FFFE0
0060C0
0060C0
00C0C0
00C0C0
01C0C1
0180C1
0300C3
0600FF
0C007F
70003E
ENDCHAR
STARTCHAR C224f
ENCODING 8783
SWIDTH 400 0
DWIDTH 24 0
BBX 24 24 0 -2
BITMAP
00C000
00C000
00C000
00C180
3FFFC0
00C1C0
01C1C0
0181C0
0381C3
0301C2
0601C6
0C00FF
70007E
000000
0FFFE0
0C0060
0C0060
0C0060
0FFFE0
0C0060
0C0060
0FFFE0
0C00E0
0C0040
ENDCHAR
STARTCHAR C2250
ENCODING 8784
SWIDTH 400 0
DWIDTH 24 0
BBX 24 24 0 -2
BITMAP
0E0000
0E0002
0C3FFF
0C0060
0C0060
0CC060
7FC060
0C0060
1C0060
1E0060
1F0060
3D8060
3CC060
3CC060
6C0060
6C0060
CC0060
8C0060
0C0060
0C0060
0C0060
0C07E0
0C03C0
0C0180
ENDCHAR
STARTCHAR C2251
ENCODING 8785
SWIDTH 400 0
DWIDTH 24 0
BBX 24 24 0 -2
BITMAP
1C0E00
1C0E00
1C0E00
1C0E00
1D0E00
7F8E20
1C7FF0
1C0E30
1C0E30
3E0E30
3F0E30
3F8E30
7D0E30
5C0C30
DC0C30
9C0C30
9C1830
1C1830
1C1830
1C3031
1C3031
1C603F
1CC03F
19800E
ENDCHAR
STARTCHAR C2252
ENCODING 8786
SWIDTH 400 0
DWIDTH 24 0
BBX 24 24 0 -2
BITMAP
0E0380
0E0380
0C0300
0C0300
0C8300
7FC302
0C3FFF
1C0387
1E0307
1F0307
3D8307
3D8307
6C8307
6C0307
CC0307
8C0707
0C0607
0C0606
0C0C06
0C180E
0C180C
0C31FC
0C6078
0DC030
ENDCHAR
STARTCHAR C2253
ENCODING 8787
SWIDTH 400 0
DWIDTH 24 0
BBX 24 24 0 -2
BITMAP
0E000E
0E000E
0C080C
0C0E0C
0C0C0C
0D8C0C
7FCC0C
0C0C0C
1C0C0C
1E0C0C
1F0C0C
3D8C0C
3D8C0C
3C0C0C
6C0C0C
6C0FFC
CC080C
8C000C
0C000C
0C000C
0C000C
0C000C
0C000C
0C000C
ENDCHAR
STARTCHAR C2254
ENCODING 8788
SWIDTH 400 0
DWIDTH 24 0
BBX 24 24 0 -2
BITMAP
1C0000
1C1820
1C1FF0
1C1830
1D1830
7F9830
1C1830
1C1830
1C1830
3E1830
3F1830
3F9830
7D1830
7C1830
DC1830
9C1830
9C1830
1C1830
1C3030
1C3031
1C6031
1C403F
1C803F
19000E
ENDCHAR
STARTCHAR C2255
ENCODING 8789
SWIDTH 400 0
DWIDTH 24 0
BBX 24 24 0 -2
BITMAP
001800
001800
001800
001806
FFFFFF
001800
001800
103838
1FFFF8
181838
181838
181838
181838
1838F0
183C30
007E00
00FB00
019980
0318E0
061878
0C183F
18180F
601806
801000
ENDCHAR
STARTCHAR C2256
ENCODING 8790
SWIDTH 400 0
DWIDTH 24 0
BBX 24 24 0 -2
BITMAP
0E0E00
0E0E00
0C0C00
0C0C00
0C0C00
0D8C00
7FCC00
0C0C00
1C0C0C
1E0FFE
1F0C00
3D8C00
3D8C00
3C0C00
6C0C00
6C0C00
CC0C00
8C0C01
0C0C01
0C0C03
0C0C03
0C0FFF
0C0FFF
0C03FC
ENDCHAR
STARTCHAR C2257
ENCODING 8791
SWIDTH 400 0
DWIDTH 24 0
BBX 24 24 0 -2
BITMAP
1C0100
1C0180
1C00C0
1C00C0
1D00C0
7F8E40
1C0C40
1C0C60
1C0C60
3E0C60
3F0C60
3F9C20
7D1830
7C1830
DC1830
9C1838
9C1818
1C3018
1C301C
1C600C
1C600E
1C4007
1CC007
198000
ENDCHAR
STARTCHAR C2258
ENCODING 8792
SWIDTH 400 0
DWIDTH 24 0
BBX 24 24 0 -2
BITMAP
1C0000
1C0008
1FFFFC
180000
300000
3FFFF0
300000
600000
5FFFF0
800070
000060
070E60
070C60
060C60
060C60
060C30
060C30
060C31
060C39
060C1B
0C0C1F
180C0F
300C07
600C02
ENDCHAR
STARTCHAR C2259
ENCODING 8793
SWIDTH 400 0
DWIDTH 24 0
BBX 24 24 0 -2
BITMAP
00E000
003800
003C00
006600
00C300
018180
0300C0
060070
0C1C3F
181C1F
601806
801800
009830
01D878
3FDCE0
019F80
019B00
031980
0318C0
061860
0C183F
18F81F
607806
803000
ENDCHAR
STARTCHAR C225a
ENCODING 8794
SWIDTH 400 0
DWIDTH 24 0
BBX 24 24 0 -2
BITMAP
200000
300200
180300
080180
0001C0
0200C6
82FFFF
E61800
641800
241800
0C1800
0C1800
181800
181800
181800
301800
301800
F01800
301800
301800
381800
381FFE
380FFE
100000
ENDCHAR
STARTCHAR C225b
ENCODING 8795
SWIDTH 400 0
DWIDTH 24 0
BBX 24 24 0 -2
BITMAP
000000
18700C
0C7FFE
0C700C
00700C
01700C
81700C
E2700C
72700C
36700C
067FFC
04700C
0C700C
087000
187000
187000
307000
F07001
307001
307001
387003
383FFF
381FFF
100000
ENDCHAR
STARTCHAR C225c
ENCODING 8796
SWIDTH 400 0
DWIDTH 24 0
BBX 24 24 0 -2
BITMAP
0001C0
1801C0
0C0180
0C0180
000180
010180
810186
E2FFFF
720180
360180
0603C0
0403C0
0C0340
080340
180660
180660
300620
F00C30
300C18
30181C
38300E
38600F
38C007
138000
ENDCHAR
STARTCHAR C225d
ENCODING 8797
SWIDTH 400 0
DWIDTH 24 0
BBX 24 24 0 -2
BITMAP
000000
180008
0C7FFC
0C100C
00100C
011B0C
811B98
E21998
720998
360838
060C30
040C30
0C0660
080660
1803C0
1803C0
300180
F003C0
3006E0
300C70
38183C
38301F
38C007
138000
ENDCHAR
STARTCHAR C225e
ENCODING 8798
SWIDTH 400 0
DWIDTH 24 0
BBX 24 24 0 -2
BITMAP
001C00
181C00
0C1800
0C1804
00180E
013FFE
816000
E24000
728000
360030
063FF8
040078
0C00E0
080180
180300
180600
300C00
F01800
303001
306001
386003
387FFF
383FFF
100FFE
ENDCHAR
STARTCHAR C225f
ENCODING 8799
SWIDTH 400 0
DWIDTH 24 0
BBX 24 24 0 -2
BITMAP
001C00
181C00
0C1800
0C1800
001804
013FFE
813006
E22006
726006
364006
068806
040606
0C0306
080386
180186
180006
300006
F00006
30000E
30000C
38000C
3801FC
380078
100030
ENDCHAR
STARTCHAR C2260
ENCODING 8800
SWIDTH 400 0
DWIDTH 24 0
BBX 24 24 0 -2
BITMAP
000004
183807
0C3086
0C31E6
0031C6
0131C6
8131C6
E231C6
7231C6
3631C6
0631C6
0431C6
0C31C6
0831C6
1831C6
1871C6
3071C6
F061C6
3061C6
3041C6
38C186
38C006
398006
130006
ENDCHAR
STARTCHAR C2261
ENCODING 8801
SWIDTH 400 0
DWIDTH 24 0
BBX 24 24 0 -2
BITMAP
000000
1E0006
1C3FFF
1C0307
1C0307
1D0307
9F8307
DF0307
7E0307
7C0307
3C0307
1C0307
1C0307
1C0307
180607
180607
1C0607
360C07
330C06
23980E
61B00C
C061FC
80C078
018030
ENDCHAR
STARTCHAR C2262
ENCODING 8802
SWIDTH 400 0
DWIDTH 24 0
BBX 24 24 0 -2
BITMAP
0601C0
0601C0
760180
660180
660180
66C182
7FDFFF
C60187
C60187
860187
860187
060187
07C307
3E0307
FE0307
660307
060207
060606
060C06
060C0E
06180C
0631FC
066078
04C030
ENDCHAR
STARTCHAR C2263
ENCODING 8803
SWIDTH 400 0
DWIDTH 24 0
BBX 24 24 0 -2
BITMAP
000000
47000C
661FFC
3C01C0
1801C0
3C01C0
6C01C0
C601C0
8601C0
0601C2
067FFF
0F01C0
1B01C0
1301C0
2301C0
4301C0
8301C0
0301C0
0301C0
0701C0
0601C0
3E01C0
3C01C0
180180
ENDCHAR
STARTCHAR C2264
ENCODING 8804
SWIDTH 400 0
DWIDTH 24 0
BBX 24 24 0 -2
BITMAP
000700
470700
660600
3C0600
180E07
3C0FFF
6C1800
C61000
862008
060FFC
06001C
0F0038
1B0060
1300C0
230180
430300
830600
030C00
031801
071801
061803
3E1FFF
3C0FFF
1803FE
ENDCHAR
STARTCHAR C2265
ENCODING 8805
SWIDTH 400 0
DWIDTH 24 0
BBX 24 24 0 -2
BITMAP
000000
000002
013FFF
FF8060
1C0060
1C0060
1C0060
1C0060
1C0060
1C0060
7F0060
1C0060
1C0060
1C0060
1C0060
1C0060
1C0060
1F8060
FE0060
F00060
600060
0007E0
0003C0
000180
ENDCHAR
STARTCHAR C2266
ENCODING 8806
SWIDTH 400 0
DWIDTH 24 0
BBX 24 24 0 -2
BITMAP
003000
00F800
01C000
060008
1C001C
1FFFFC
18180C
18180C
18180C
18180C
1FFFFC
18180C
18180C
18180C
18180C
1FFFFC
181C1C
18180C
30180C
30180C
30180C
6018FC
601878
C00030
ENDCHAR
STARTCHAR C2267
ENCODING 8807
SWIDTH 400 0
DWIDTH 24 0
BBX 24 24 0 -2
BITMAP
040700
060700
0C0600
0C0600
188600
FFC600
E0C600
E0C600
E0C600
E0C600
E0C600
E0C600
FFC600
E0C600
E0C600
E0C600
E0C600
E0C601
FFC601
E1C603
C08603
0007FF
0003FF
0001FC
ENDCHAR
STARTCHAR C2268
ENCODING 8808
SWIDTH 400 0
DWIDTH 24 0
BBX 24 24 0 -2
BITMAP
003000
201800
201806
7FFFFF
E0C306
C18304
8303FE
0601FE
380000
6000C0
0FFFE0
0003C0
000F00
001C00
007000
00E000
038000
070000
0E0002
1C0002
380006
3FFFFE
1FFFFE
07FFFC
ENDCHAR
STARTCHAR C2269
ENCODING 8809
SWIDTH 400 0
DWIDTH 24 0
BBX 24 24 0 -2
BITMAP
000004
E0000E
FFFFFF
E00006
E0C046
E0E076
E0C866
ECCC66
E6C666
E3C3C6
E3C1C6
E1C1C6
E1C1C6
E3E1E6
E37336
E2333E
E61216
EC0406
F80806
E00006
E00006
E0007E
E0003C
C00008
ENDCHAR
STARTCHAR C226a
ENCODING 8810
SWIDTH 400 0
DWIDTH 24 0
BBX 24 24 0 -2
BITMAP
060070
060070
060060
060060
464662
E66667
E66667
E66667
E66667
E66667
E66667
E66667
E66667
FFE7FF
066066
0E0060
0C0060
0C0060
1C0060
180060
380060
300060
200060
400060
ENDCHAR
STARTCHAR C226b
ENCODING 8811
SWIDTH 400 0
DWIDTH 24 0
BBX 24 24 0 -2
BITMAP
0700E0
0700E0
0660C2
FFE7FF
0600C0
0600C0
000000
000004
7FFFFE
001800
001800
001800
001800
001800
001800
001800
001800
001800
001800
001800
001800
01F800
007800
003000
ENDCHAR
STARTCHAR C226c
ENCODING 8812
SWIDTH 400 0
DWIDTH 24 0
BBX 24 24 0 -2
BITMAP
0700E0
0700E0
0660C2
FFE7FF
0600C0
0600C0
000000
000038
0FFFF8
006038
006038
006038
006038
006038
00E038
00C038
00C038
00C038
018038
038030
070070
0E0FE0
1C03C0
700180
ENDCHAR
STARTCHAR C226d
ENCODING 8813
SWIDTH 400 0
DWIDTH 24 0
BBX 24 24 0 -2
BITMAP
0700E0
0700E0
0660C2
FFE7FF
0600C0
0640C0
007000
006000
006000
006000
0061C0
1FFFE0
0060C0
0060C0
0060C0
00C0C0
00C0C0
00C0C0
0180C1
0380C1
0700C3
0E00FF
1C007F
70003E
ENDCHAR
STARTCHAR C226e
ENCODING 8814
SWIDTH 400 0
DWIDTH 24 0
BBX 24 24 0 -2
BITMAP
0700E0
0700E0
0660C2
FFE7FF
0600C0
0600C0
000000
000060
1FFFF0
00C070
00C060
00C0C0
00C0C0
00C1C7
00C1FF
00C007
00C007
018007
038007
030006
06000E
0C01FC
180078
600030
ENDCHAR
STARTCHAR C226f
ENCODING 8815
SWIDTH 400 0
DWIDTH 24 0
BBX 24 24 0 -2
BITMAP
001800
001800
001810
001FF8
001800
201802
3FFFFF
302007
307806
307004
307020
3FFFF0
307000
307000
307000
307FF8
303FFC
201FF8
600000
600000
600000
C00000
800000
000000
ENDCHAR
STARTCHAR C2270
ENCODING 8816
SWIDTH 400 0
DWIDTH 24 0
BBX 24 24 0 -2
BITMAP
000000
000007
FFFFFF
018300
018300
018300
018300
61830C
7FFFFE
61830E
61830C
61830C
61830C
61830C
61830C
61FF0C
61830C
60000C
60000C
60000C
60000C
60000C
60000C
60000C
ENDCHAR
STARTCHAR C2271
ENCODING 8817
SWIDTH 400 0
DWIDTH 24 0
BBX 24 24 0 -2
BITMAP
000004
0C01CE
0601FF
0701C6
0301CC
0319CC
FFFDD8
3001D0
3001D0
3001C8
3001C4
3001C6
3001C7
3001C3
3001C3
3001C3
3001C3
3001FF
3001DE
3FF1CC
1FF9C0
0001C0
0001C0
000180
ENDCHAR
STARTCHAR C2272
ENCODING 8818
SWIDTH 400 0
DWIDTH 24 0
BBX 24 24 0 -2
BITMAP
000004
0031CE
3FF1FF
0301C6
0301CC
0301CC
0301D8
0301D0
0301D0
0309C8
FFFDC4
0301C6
0301C7
0301C3
0301C3
0301C3
0301C3
0301FF
0301DE
0301CC
0301C0
0301C0
0301C0
030180
ENDCHAR
STARTCHAR C2273
ENCODING 8819
SWIDTH 400 0
DWIDTH 24 0
BBX 24 24 0 -2
BITMAP
000004
0031CE
3FF1FF
0301C6
0301CC
0301CC
0301D8
0301D0
0309D0
FFFDC8
0301C4
0301C6
0301C7
0301C3
0301C3
0301C3
0301C3
0301FF
0301DE
0301CC
0301C0
3F01C0
1E01C0
040180
ENDCHAR
STARTCHAR C2274
ENCODING 8820
SWIDTH 400 0
DWIDTH 24 0
BBX 24 24 0 -2
BITMAP
000004
00030E
0023FF
3FF30C
07030C
060308
060318
060310
060310
060308
060304
060306
060307
060303
060303
060303
060303
0FF307
FE03FE
E0031C
200308
000300
000300
000300
ENDCHAR
STARTCHAR C2275
ENCODING 8821
SWIDTH 400 0
DWIDTH 24 0
BBX 24 24 0 -2
BITMAP
004004
00E30E
7FF3FF
00630C
00630C
006308
006318
006310
406310
FFE308
E06304
E04306
E00307
E00303
E00303
E00303
E00303
E06307
E7C3FE
FE031C
F00308
600300
000300
000300
ENDCHAR
STARTCHAR C2276
ENCODING 8822
SWIDTH 400 0
DWIDTH 24 0
BBX 24 24 0 -2
BITMAP
020000
E70007
FFFFFF
E30E30
E60E30
E60E30
E40E30
EC0E30
EC0E30
E40E30
E60E30
E30E30
E30E30
E38C30
E38C30
E38C30
E39830
FF1830
E61830
E03031
E02031
E0403F
E0803F
C1000E
ENDCHAR
STARTCHAR C2277
ENCODING 8823
SWIDTH 400 0
DWIDTH 24 0
BBX 24 24 0 -2
BITMAP
0001C0
E601C0
FF1DC0
E619C0
E619C0
E419C0
EC19C6
E819FE
E8FFCE
EC19CC
E619CC
E619CC
E719CC
E319D8
E319D8
E319D0
E719C0
FE1980
E61801
E01801
E01803
E01FFF
E01FFF
C00FFE
ENDCHAR
STARTCHAR C2278
ENCODING 8824
SWIDTH 400 0
DWIDTH 24 0
BBX 24 24 0 -2
BITMAP
000020
E60070
FF7FF8
E60E30
E60E30
E40E30
EC0E30
E80E30
E80E30
EC0E30
E60FF0
E67FF0
E70E30
E30E30
E30E38
E30E38
E70E18
FE0E19
E60E19
E00E0D
E00E0F
E00E0F
E00E07
C00C03
ENDCHAR
STARTCHAR C2279
ENCODING 8825
SWIDTH 400 0
DWIDTH 24 0
BBX 24 24 0 -2
BITMAP
020E00
E70E00
FF8C00
E30C04
E61C0E
E61FFE
E43000
EC6000
ECC000
E40030
E63FF8
E30078
E300E0
E381C0
E38380
E38700
E38E00
FF1C00
E63801
E03001
E07003
E03FFF
E01FFF
C00FFE
ENDCHAR
STARTCHAR C227a
ENCODING 8826
SWIDTH 400 0
DWIDTH 24 0
BBX 24 24 0 -2
BITMAP
038000
03830C
07018E
0600CC
06004C
0C0F18
1C0E18
1C0E30
3C0E30
3C0E60
7C0E60
5C4EC0
9C4ECC
1C4F86
1CCF87
1CCF03
1CCF03
1C8E05
1C0E04
1C1E0C
1C37FC
1C63FC
1CC000
1B8000
ENDCHAR
STARTCHAR C227b
ENCODING 8827
SWIDTH 400 0
DWIDTH 24 0
BBX 24 24 0 -2
BITMAP
038000
03800C
073FFC
060180
060188
0C218E
1C119C
1C1998
3C0DB0
3C0DA0
7C0DA0
5C0182
9C7FFF
1C0180
1C0180
1C0180
1C0180
1C0180
1C0180
1C0180
1C0180
1C0180
1C0180
180180
ENDCHAR
STARTCHAR C227c
ENCODING 8828
SWIDTH 400 0
DWIDTH 24 0
BBX 24 24 0 -2
BITMAP
030000
030006
077FFE
061800
061800
0C1800
1C1800
1C1808
3C1FFC
3C180C
7C180C
5C180C
9C180C
1C180C
1C180C
1C1FFC
1C1808
1C1800
1C1800
1C1800
1C1800
1C1806
1CFFFF
180000
ENDCHAR
STARTCHAR C227d
ENCODING 8829
SWIDTH 400 0
DWIDTH 24 0
BBX 24 24 0 -2
BITMAP
038380
038380
070300
060300
060300
0C030C
1C7FFC
1C0300
3C0300
3C0300
7C0300
5C0306
9DFFFF
1C0600
1C0600
1C0C00
1C0C00
1C1818
1C180C
1C300E
1C33FE
1C7F07
1C7003
181000
ENDCHAR
STARTCHAR C227e
ENCODING 8830
SWIDTH 400 0
DWIDTH 24 0
BBX 24 24 0 -2
BITMAP
038380
038380
070300
060300
060300
0C030E
1CFFFE
1C0380
3C07C0
3C07C0
7C0FC0
5C0F60
9C1B60
1C1B30
1C3338
1C331C
1C630E
1CC307
1D9FF3
1D0380
1C0300
1C0300
1C0300
180300
ENDCHAR
STARTCHAR C2321
ENCODING 8993
SWIDTH 400 0
DWIDTH 24 0
BBX 24 24 0 -2
BITMAP
070004
07000E
067FFE
061800
061800
0C1800
1C1830
1C1FF8
3C1838
3C1838
7C1838
5C1E38
9C1B38
1C1BB8
1C19B0
1C30B0
1C3030
1C3030
1C3030
1C3031
1C31B1
1CFF3F
1CF03F
18400E
ENDCHAR
STARTCHAR C2322
ENCODING 8994
SWIDTH 400 0
DWIDTH 24 0
BBX 24 24 0 -2
BITMAP
070000
070006
067FFE
060180
0C0180
0C0300
1C0300
1C0700
3C0720
7C0F10
7C1B08
DC1B0C
1C330E
1C6306
1CC307
1D8302
1C0300
1C0300
1C0300
1C0300
1C0300
1C0302
1DFFFF
180000
ENDCHAR
STARTCHAR C2323
ENCODING 8995
SWIDTH 400 0
DWIDTH 24 0
BBX 24 24 0 -2
BITMAP
070300
070300
060300
060300
0C0318
0C03F8
1C0300
1C0300
3C0302
7CFFFF
7C0700
DC0300
1C0300
1C0380
1C0360
1C0338
1C031C
1C030C
1C0304
1C0300
1C0300
1C0300
1C0300
180200
ENDCHAR
STARTCHAR C2324
ENCODING 8996
SWIDTH 400 0
DWIDTH 24 0
BBX 24 24 0 -2
BITMAP
038380
038380
070300
060300
060300
0C6318
1C7FFC
1C7318
3C7318
3C7318
7C7318
5C7318
9C7318
1C7318
1DFFFF
1C0300
1C0300
1C0660
1C0E30
1C0C18
1C180C
1C300E
1C6006
198006
ENDCHAR
STARTCHAR C2325
ENCODING 8997
SWIDTH 400 0
DWIDTH 24 0
BBX 24 24 0 -2
BITMAP
039C00
039C00
071810
061FF8
061838
0C3830
1C6C60
1C4460
3C86C0
3C03C0
7C0380
5C0380
9C06C0
1C0C60
1C183C
1C371F
1C61C7
1D80C0
1C0040
1C0E00
1C0380
1C01C0
1C00E0
180060
ENDCHAR
STARTCHAR C2326
ENCODING 8998
SWIDTH 400 0
DWIDTH 24 0
BBX 24 24 0 -2
BITMAP
038300
038300
070600
060600
060C00
0C1C30
1C1818
1C300C
3C300E
3C7FFF
7CFE07
5C7003
9C0000
1C0008
1C3FFC
1C300C
1C300C
1C300C
1C300C
1C300C
1C300C
1C3FFC
1C301C
183008
ENDCHAR
STARTCHAR C2327
ENCODING 8999
SWIDTH 400 0
DWIDTH 24 0
BBX 24 24 0 -2
BITMAP
001800
003800
003800
006400
00C200
018180
0300C0
060060
0C003C
1BFF9F
30000E
E00000
000000
000038
1FFFF8
001800
021800
0718C0
061860
0C1830
081838
101818
201808
001000
ENDCHAR
STARTCHAR C2328
ENCODING 9000
SWIDTH 400 0
DWIDTH 24 0
BBX 24 24 0 -2
BITMAP
038600
038300
070180
060180
060087
0CFFFF
1C0700
1C0600
3C0E00
3C0C38
7C1878
5C3070
9C70E0
1C1DC0
1C0780
1C0300
1C0600
1C0C10
1C1818
1C301C
1C61FE
1CFF8E
1C7006
182000
ENDCHAR
STARTCHAR C2329
ENCODING 9001
SWIDTH 400 0
DWIDTH 24 0
BBX 24 24 0 -2
BITMAP
030338
032338
077330
067330
067330
0C7330
1C7330
1C7330
3C7332
3DFFFF
7C7330
5C7330
9C7330
1C7330
1C7330
1C7330
1C73F0
1C7230
1C7000
1C7000
1C7000
1C7006
1C7FFE
180000
ENDCHAR
STARTCHAR C232a
ENCODING 9002
SWIDTH 400 0
DWIDTH 24 0
BBX 24 24 0 -2
BITMAP
038000
03B00C
073FFE
06300E
06300C
0C300C
1C300C
1C300C
3C300C
3C300C
7C300C
5C3FFC
9C300C
1C0000
1C1800
1C1C10
1C1808
1C180C
1C300E
1C3006
1C6007
1CC003
1C8003
190001
ENDCHAR
STARTCHAR C232b
ENCODING 9003
SWIDTH 400 0
DWIDTH 24 0
BBX 24 24 0 -2
BITMAP
038300
038700
070780
060E80
060C40
0C1C60
1C1870
1C1038
3C301C
3C638F
7CC387
5D8303
9D0300
1C4308
1C730E
1C630C
1C630C
1C630C
1C630C
1C630C
1C630C
1C630C
1CFFFC
184008
ENDCHAR
STARTCHAR C232c
ENCODING 9004
SWIDTH 400 0
DWIDTH 24 0
BBX 24 24 0 -2
BITMAP
000000
60000C
7FFFFE
60C30C
60C30C
61830C
61830C
61830C
6303FC
6203FC
64000C
68000C
73FF8C
63838C
63830C
63830C
63830C
63830C
63FF0C
63030C
60000C
60007C
60003C
600018
ENDCHAR
STARTCHAR C232d
ENCODING 9005
SWIDTH 400 0
DWIDTH 24 0
BBX 24 24 0 -2
BITMAP
001C00
001C00
6018E0
301870
381830
181802
02FFFF
063800
041800
0C181C
0C1A1C
183218
183218
103318
303138
F071B0
F060E0
6060E0
3060F0
30C1F8
30C39C
31870F
330C07
027000
ENDCHAR
STARTCHAR C232e
ENCODING 9006
SWIDTH 400 0
DWIDTH 24 0
BBX 24 24 0 -2
BITMAP
06E007
06E007
06C007
06CC67
7FFC67
06CC67
06CC67
06CC67
46CC67
7FFC67
66C867
66C067
E6C067
EEEE67
FFFF67
0CC667
0CC667
1CC667
18C607
18FE07
38CC07
30C83F
20C01E
40C00C
ENDCHAR
STARTCHAR C232f
ENCODING 9007
SWIDTH 400 0
DWIDTH 24 0
BBX 24 24 0 -2
BITMAP
000007
206007
3FF006
3071C6
3071C6
307186
307186
307186
3FF186
307186
307186
307186
307186
307186
3FF186
307186
307186
307186
307006
307006
33F806
FF807E
E0003C
200008
ENDCHAR
STARTCHAR C2330
ENCODING 9008
SWIDTH 400 0
DWIDTH 24 0
BBX 24 24 0 -2
BITMAP
001007
E03807
FFF806
E018E6
E018E6
E018C6
E018C6
FFF8C6
E310C6
E300C6
E300C6
E308C6
FFFCC6
E380C6
E380C6
E180C6
E180C6
E0C0C6
E0C006
E26206
EC7206
F83E7E
E01E3C
600E08
ENDCHAR
STARTCHAR C2331
ENCODING 9009
SWIDTH 400 0
DWIDTH 24 0
BBX 24 24 0 -2
BITMAP
000060
007060
FFF860
0C3060
0C3060
0C3060
1C3066
1833FF
183067
33F067
31E067
60C067
C00067
007067
7FF0C7
6070C7
6070C7
6071C6
607186
60730E
60730C
7FF67C
606C38
601830
ENDCHAR
STARTCHAR C2332
ENCODING 9010
SWIDTH 400 0
DWIDTH 24 0
BBX 24 24 0 -2
BITMAP
0700E0
0700E0
3600C0
3600C0
3640C0
7FE0C0
6600C6
460FFF
C600C7
8600C7
0610C7
7FF8C7
0600C7
0601C7
0701C7
0F8187
0CC187
0C6386
187306
10330E
30060C
600CFC
C01878
80E030
ENDCHAR
STARTCHAR C2333
ENCODING 9011
SWIDTH 400 0
DWIDTH 24 0
BBX 24 24 0 -2
BITMAP
0E0000
0E0000
0C0000
1C0006
1FFFFE
180006
300006
3001C6
67FFC6
403106
063186
033386
01B306
01B606
00B046
0FFFE6
003006
003006
00300E
00300C
00300C
0033FC
0031F8
000070
ENDCHAR
STARTCHAR C2334
ENCODING 9012
SWIDTH 400 0
DWIDTH 24 0
BBX 24 24 0 -2
BITMAP
001800
001800
00180C
001FFE
001800
001800
001800
303838
3FFFFC
300018
300018
300218
3FFF18
380718
300318
300318
300318
3FFF18
300318
300018
300018
300018
3FFFF8
300018
ENDCHAR
STARTCHAR C2335
ENCODING 9013
SWIDTH 400 0
DWIDTH 24 0
BBX 24 24 0 -2
BITMAP
000104
00718E
FFF9FF
0C3186
0C3186
0C3186
1C3186
183186
183186
33F186
31E186
60C186
C00186
007186
7FF186
607186
607186
6071FE
60719C
607188
607180
7FF180
606180
600180
ENDCHAR
STARTCHAR C2336
ENCODING 9014
SWIDTH 400 0
DWIDTH 24 0
BBX 24 24 0 -2
BITMAP
000000
300007
3FFFFF
300000
300070
331FF8
33FF00
338E00
338E00
338E00
338608
33FFFC
338600
338300
338300
338300
238180
638D80
63F8C0
63C0E1
C38073
C101BE
80FF9E
00000E
ENDCHAR
STARTCHAR C2337
ENCODING 9015
SWIDTH 400 0
DWIDTH 24 0
BBX 24 24 0 -2
BITMAP
000000
300007
3FFFFF
300000
30E000
30E000
30C004
30E00E
30FFFE
30CC00
318C00
318C00
330FF8
360C00
300C00
300C00
200C08
600FFC
600C00
600C00
C00C00
C00C00
800C00
000C00
ENDCHAR
STARTCHAR C2338
ENCODING 9016
SWIDTH 400 0
DWIDTH 24 0
BBX 24 24 0 -2
BITMAP
000300
000300
000300
C60300
FF0300
E70302
E67FFF
E60600
E60600
E60600
E60E70
E60C70
E60C60
E618C0
E618C0
E61980
FE3180
E63310
C66318
00C60C
008E0E
010FFF
001F07
000C03
ENDCHAR
STARTCHAR C2339
ENCODING 9017
SWIDTH 400 0
DWIDTH 24 0
BBX 24 24 0 -2
BITMAP
000380
000380
000300
C60300
FF0318
E73FFC
E6031C
E60318
E60318
E60318
E60318
E60318
E67FFF
E60700
E60300
E60720
FE0630
E60618
C60C0C
000C06
001807
003003
006003
01C001
ENDCHAR
STARTCHAR C233a
ENCODING 9018
SWIDTH 400 0
DWIDTH 24 0
BBX 24 24 0 -2
BITMAP
0009C0
000DC0
000DC0
0619C0
FF19C0
E719C0
E639C0
E631C0
E631C6
E671FF
E671C0
E6F1C0
E7B1C0
E631C0
E631C0
E631C0
FE31C0
E631C0
4031C0
0031C1
0031C1
0031FF
0030FF
00307E
ENDCHAR
STARTCHAR C233b
ENCODING 9019
SWIDTH 400 0
DWIDTH 24 0
BBX 24 24 0 -2
BITMAP
000300
000300
000300
C60300
FF0300
E70300
E60306
E6FFFE
E60300
E60300
E60300
E60780
E60780
E60680
E60EC0
E60C40
FE1860
E61820
403030
007418
00E71E
01C30F
038107
0E0000
ENDCHAR
STARTCHAR C233c
ENCODING 9020
SWIDTH 400 0
DWIDTH 24 0
BBX 24 24 0 -2
BITMAP
000600
000300
000380
C60180
FF0186
E7FFFF
E61018
E61818
E60818
E60838
E60C30
E60430
E60660
E60260
E603C0
E601C0
FE01C0
E603E0
C60770
000E38
001C1C
00380F
006007
038000
ENDCHAR
STARTCHAR C233d
ENCODING 9021
SWIDTH 400 0
DWIDTH 24 0
BBX 24 24 0 -2
BITMAP
0001C0
0001C0
000180
C60180
FF0180
E7418E
E6618E
E6318C
E63998
E61990
E61980
E60380
E603C0
E603C0
E60360
E60760
FE0660
E60E30
C60C38
00181C
00300E
00600F
00C007
038000
ENDCHAR
STARTCHAR C233e
ENCODING 9022
SWIDTH 400 0
DWIDTH 24 0
BBX 24 24 0 -2
BITMAP
000000
000018
003FFC
C60E1C
FF0E18
E70E18
E60E18
E60E18
E60E18
E60E18
E60E18
E6FFFF
E60C38
E60C38
E60C38
E60C38
FE0C38
E60C38
C60C38
000C38
000C38
000C3A
00FFFF
000000
ENDCHAR
STARTCHAR C233f
ENCODING 9023
SWIDTH 400 0
DWIDTH 24 0
BBX 24 24 0 -2
BITMAP
000000
000007
007FFF
C600E0
FF00C0
E701C0
E601C0
E603C0
E603D0
E607D8
E607CC
E60DC6
E619C7
E611C3
E621C3
E641C1
FE01C0
E601C0
C601C0
0001C0
0001C0
0001C0
0001C0
000180
ENDCHAR
STARTCHAR C2340
ENCODING 9024
SWIDTH 400 0
DWIDTH 24 0
BBX 24 24 0 -2
BITMAP
001C00
001C00
001800
C61800
FF180C
E73FFC
E631C0
E621C0
E661C0
E641C0
E681C0
E601C6
E6FFFF
E601C0
E601C0
E601C0
FE01C0
E601C0
C601C0
0001C0
0001C0
0001C0
0001C0
000180
ENDCHAR
STARTCHAR C2341
ENCODING 9025
SWIDTH 400 0
DWIDTH 24 0
BBX 24 24 0 -2
BITMAP
0001C0
0001C0
001DC0
C619C0
FF19C0
E731C4
E63FFE
E631C0
E661C0
E661C0
E6C1C0
E601C0
E601C0
E601C7
E67FFF
E601C0
FE01C0
E601C0
C601C0
0001C0
0001C0
0001C0
0001C0
000180
ENDCHAR
STARTCHAR C2342
ENCODING 9026
SWIDTH 400 0
DWIDTH 24 0
BBX 24 24 0 -2
BITMAP
000638
001F38
007C38
C60C38
FF0C38
E70C38
E60C38
E60C38
E60C38
E60C38
E6FFFF
E60C38
E60C38
E60C38
E61838
E61838
FE1838
E61838
403038
003038
006038
006038
00C038
018030
ENDCHAR
STARTCHAR C2343
ENCODING 9027
SWIDTH 400 0
DWIDTH 24 0
BBX 24 24 0 -2
BITMAP
000E00
000E00
000C00
C61806
FF1FFF
E71007
E63007
E62007
E66047
E65FE7
E60007
E60007
E60007
E60007
E60047
E61FE7
FE0007
E60007
C60006
000006
00000E
0001FC
000078
000030
ENDCHAR
STARTCHAR C2344
ENCODING 9028
SWIDTH 400 0
DWIDTH 24 0
BBX 24 24 0 -2
BITMAP
0001C0
0001C0
000180
C60184
FF018E
E77FFE
E60180
E63188
E6398E
E6318C
E6318C
E6318C
E6318C
E6318C
E6318C
E63FFC
FE319C
E60188
C60181
000181
000183
0001FF
0001FF
00007E
ENDCHAR
STARTCHAR C2345
ENCODING 9029
SWIDTH 400 0
DWIDTH 24 0
BBX 24 24 0 -2
BITMAP
000180
000180
000380
C60340
FF0760
E70630
E60C38
E6181C
E6300F
E66827
E6CC32
E68C30
E60C30
E60C30
E60C30
E60C30
FE1830
E61830
C61830
001030
003030
006030
00C030
018030
ENDCHAR
STARTCHAR C2346
ENCODING 9030
SWIDTH 400 0
DWIDTH 24 0
BBX 24 24 0 -2
BITMAP
001C00
001C00
001800
009830
01D878
3FDCE0
019F80
019B00
031980
0318C0
061860
0C183F
18F81F
607806
803000
000060
0FFFF0
0C0070
0C0060
0C0060
0C0060
0C0060
0FFFE0
0C0060
ENDCHAR
STARTCHAR C2347
ENCODING 9031
SWIDTH 400 0
DWIDTH 24 0
BBX 24 24 0 -2
BITMAP
60000C
7FFFFE
60000E
60C00C
60DC0C
60DC0C
61980C
61980C
63980C
63984C
679FEC
67980C
6F980C
6B980C
63980C
63981C
63981C
639C3C
639FFC
630FEC
60000C
60000C
7FFFFC
60000C
ENDCHAR
STARTCHAR C2348
ENCODING 9032
SWIDTH 400 0
DWIDTH 24 0
BBX 24 24 0 -2
BITMAP
60000C
7FFFFE
60C30E
60C30C
60C30C
60C30C
61830C
61830C
63830C
6303FC
6601FC
6C000C
70000C
60030C
63FF8C
63838C
63830C
63830C
63830C
63830C
63830C
63830C
7FFFFC
60000C
ENDCHAR
STARTCHAR C2349
ENCODING 9033
SWIDTH 400 0
DWIDTH 24 0
BBX 24 24 0 -2
BITMAP
60000C
7FFFFE
60400E
60300C
60180C
60186C
6FFFEC
60000C
60020C
60FF0C
60C70C
60C30C
60C30C
60C30C
61830C
61830C
61831C
63033C
6303FC
6603FC
6C01EC
60000C
7FFFFC
60000C
ENDCHAR
STARTCHAR C234a
ENCODING 9034
SWIDTH 400 0
DWIDTH 24 0
BBX 24 24 0 -2
BITMAP
100038
1C01FC
187FC0
1871C0
1871C0
1871C0
1871C0
1A71C0
7E71C4
187FFE
1871C0
1870C0
1870C0
1870C0
187060
1A7060
1E7060
387030
F07131
E07719
007C1F
00780F
003007
000003
ENDCHAR
STARTCHAR C234b
ENCODING 9035
SWIDTH 400 0
DWIDTH 24 0
BBX 24 24 0 -2
BITMAP
100300
1C0380
180380
1806C0
180640
180C60
180C30
1A1838
7E301C
18300E
187FEF
18C007
198002
180030
183FF8
1A0038
1E0030
380030
F00060
E00060
0000C0
0000C0
000180
000180
ENDCHAR
STARTCHAR C234c
ENCODING 9036
SWIDTH 400 0
DWIDTH 24 0
BBX 24 24 0 -2
BITMAP
001C00
000600
00C300
01C180
0380C0
070070
0E003F
1C00CF
3BFFE6
E060C0
00C0C0
00C0C0
0180C0
030FC0
0E0380
181B00
001800
001820
0FFFF0
003800
001800
001800
003807
FFFFFF
ENDCHAR
STARTCHAR C234d
ENCODING 9037
SWIDTH 400 0
DWIDTH 24 0
BBX 24 24 0 -2
BITMAP
1001C0
1C01C0
180180
180184
18018E
187FFE
180180
1A3188
7E398E
18318C
18318C
18318C
18318C
18318C
18318C
1A3FFC
1E319C
380188
F00181
E00181
000183
0001FF
0001FF
00007E
ENDCHAR
STARTCHAR C234e
ENCODING 9038
SWIDTH 400 0
DWIDTH 24 0
BBX 24 24 0 -2
BITMAP
1000C0
1C1840
181C60
181860
181820
181830
183018
1A3018
7E600C
18600F
18C007
189FFE
190E18
180E18
180E18
1A0C18
1E0C18
381818
F01818
E03038
003030
0063F0
00C1E0
0380C0
ENDCHAR
STARTCHAR C234f
ENCODING 9039
SWIDTH 400 0
DWIDTH 24 0
BBX 24 24 0 -2
BITMAP
000E00
380E00
380E00
300E00
300E00
306E0C
3FEFFC
300E00
300E00
302E03
30CE02
3F0E06
3C07FF
3003FE
101C00
001800
001800
001870
0FFFF0
001800
001800
001800
003807
FFFFFF
ENDCHAR
STARTCHAR C2350
ENCODING 9040
SWIDTH 400 0
DWIDTH 24 0
BBX 24 24 0 -2
BITMAP
038000
0380C0
03FFE0
0301E0
078180
0CC300
387E00
003C00
003F80
00E3FF
03907F
0E183C
F01820
0FFFF0
001800
001840
07FFE0
001800
00180C
7FFFFE
001800
001800
001800
001000
ENDCHAR
STARTCHAR C2351
ENCODING 9041
SWIDTH 400 0
DWIDTH 24 0
BBX 24 24 0 -2
BITMAP
000004
00000E
7FFFFE
001C00
003800
007980
00D8E0
039838
06181C
18180E
601806
801000
000000
003000
003800
003000
007007
FFFFFF
00C100
0181C0
030070
0E001C
1C000E
700006
ENDCHAR
STARTCHAR C2352
ENCODING 9042
SWIDTH 400 0
DWIDTH 24 0
BBX 24 24 0 -2
BITMAP
0001C0
3801C0
3801C8
3001FC
320FE0
331DC0
FF81C0
FB01C0
3301C4
331FFE
3301C0
3301C0
7301C0
6601C0
6601C2
E67FFF
3C01C0
1E01C0
1F01C0
3301C0
2181C0
4001C0
8001C0
000180
ENDCHAR
STARTCHAR C2353
ENCODING 9043
SWIDTH 400 0
DWIDTH 24 0
BBX 24 24 0 -2
BITMAP
000000
380000
38001C
301FFC
320000
330000
FF8000
FB0000
330002
333FFF
330380
330300
730300
660300
660600
E60600
3C0400
1E0C18
1F080C
33183E
21BFE7
403E07
801802
000000
ENDCHAR
STARTCHAR C2354
ENCODING 9044
SWIDTH 400 0
DWIDTH 24 0
BBX 24 24 0 -2
BITMAP
000200
380100
380180
3011C0
3218C7
331FFF
FF98C7
FB18C7
3319E7
3319E7
3319E7
3319A7
731B37
661B3F
661E1F
E61C1F
3C1807
1E1807
1F1807
331807
219807
40183F
80181E
00100C
ENDCHAR
STARTCHAR C2355
ENCODING 9045
SWIDTH 400 0
DWIDTH 24 0
BBX 24 24 0 -2
BITMAP
000180
380380
3803C0
300340
320660
330620
FF8C30
FB0818
33181C
33302F
333FF7
336003
73C000
660018
663FFC
E6001C
3C0018
1E0038
1F0030
330060
218060
4000E0
8000C0
000180
ENDCHAR
STARTCHAR C2356
ENCODING 9046
SWIDTH 400 0
DWIDTH 24 0
BBX 24 24 0 -2
BITMAP
0001C0
3801C0
3801C0
3003C0
320320
330630
FF8E18
FB0C0E
331807
333003
336E38
330E38
730E38
660E38
660E38
E60E38
3C0C38
1E0C38
1F0838
331838
219038
402038
804038
008030
ENDCHAR
STARTCHAR C2357
ENCODING 9047
SWIDTH 400 0
DWIDTH 24 0
BBX 24 24 0 -2
BITMAP
0000C0
380440
380E60
300E60
320C20
330C30
FF8818
FB1818
33100C
33300F
333007
336FFE
734318
660318
660318
E60618
3C0618
1E0E18
1F0C18
331838
219830
4033F0
8061E0
01C0C0
ENDCHAR
STARTCHAR C2358
ENCODING 9048
SWIDTH 400 0
DWIDTH 24 0
BBX 24 24 0 -2
BITMAP
000080
3800C0
380040
300060
320E20
330E30
FF8C30
FB0C18
331818
33191C
33118C
33318E
732307
666307
664300
E60600
3C0600
1E0C30
1F0C18
33180C
2198FC
403FCC
801C04
000804
ENDCHAR
STARTCHAR C2359
ENCODING 9049
SWIDTH 400 0
DWIDTH 24 0
BBX 24 24 0 -2
BITMAP
000600
380300
380180
3001C0
320082
333FFF
FF880C
FB080C
330C18
330418
330618
330638
730230
660360
6601E0
E601E0
3C01C0
1E01E0
1F0370
330638
218C1E
40180F
807007
01C000
ENDCHAR
STARTCHAR C235a
ENCODING 9050
SWIDTH 400 0
DWIDTH 24 0
BBX 24 24 0 -2
BITMAP
000000
380008
381FFC
300000
320000
330000
FF8000
FB0000
330006
333FFE
330660
330660
730660
660660
660660
E60E60
3C0C60
1E0C60
1F1860
331861
21B061
40607F
80C03F
01801E
ENDCHAR
STARTCHAR C235b
ENCODING 9051
SWIDTH 400 0
DWIDTH 24 0
BBX 24 24 0 -2
BITMAP
00003C
3800FE
381FE0
301800
321800
331800
FF9800
FB1806
331FFF
331830
331830
331830
731830
661830
661830
E61830
3C1830
1E3030
1F3030
333030
21E030
406030
80C030
018030
ENDCHAR
STARTCHAR C235c
ENCODING 9052
SWIDTH 400 0
DWIDTH 24 0
BBX 24 24 0 -2
BITMAP
003000
201800
200806
7FFFFF
E00006
C0000C
800FC8
01FFE0
0FF800
001800
001800
001804
7FFFFE
003800
003800
006400
006200
00C300
01C1C0
0380E0
07007C
0E001F
18000E
600000
ENDCHAR
STARTCHAR C235d
ENCODING 9053
SWIDTH 400 0
DWIDTH 24 0
BBX 24 24 0 -2
BITMAP
003000
201800
200806
7FFFFF
E00006
C0018C
801FC8
01FC00
07B000
003000
003000
003060
0FFFF0
003000
003000
00300C
7FFFFE
003000
003001
003001
003003
003FFF
001FFF
000FFE
ENDCHAR
STARTCHAR C235e
ENCODING 9054
SWIDTH 400 0
DWIDTH 24 0
BBX 24 24 0 -2
BITMAP
0E0008
0E001C
0DC03C
0CE070
0C61C0
0C0300
0C0400
7FE00C
1F001C
1F0030
1F0060
1F01C0
1F0F04
1B000E
1B001E
1B003C
3B0070
3300C1
330381
330E03
631003
C3FFFF
81FFFF
007FFC
ENDCHAR
STARTCHAR C235f
ENCODING 9055
SWIDTH 400 0
DWIDTH 24 0
BBX 24 24 0 -2
BITMAP
0E0000
0E0008
0C1FFC
0C01C0
0C01C0
0C01C0
0C41C0
7FE1C0
1F01C0
1F01C8
1F1FFC
1F01C0
1F01C0
1B01C0
1B01C0
1B01C0
3301C0
3301CC
333FFF
230001
630003
C3FFFF
81FFFF
007FFE
ENDCHAR
STARTCHAR C2360
ENCODING 9056
SWIDTH 400 0
DWIDTH 24 0
BBX 24 24 0 -2
BITMAP
100000
1C000C
181FFC
180E38
180E38
990E38
DB8E38
9B8E38
9B8E38
9B8E38
9BFFFF
9B8E38
9B8E38
9B8C38
9B8C38
9B8C38
9B8C38
9B9838
FF9838
011838
003038
006038
004038
008030
ENDCHAR
STARTCHAR C2361
ENCODING 9057
SWIDTH 400 0
DWIDTH 24 0
BBX 24 24 0 -2
BITMAP
100000
1C0008
181FFC
180000
180000
990000
DB8000
9B8000
9B8006
9BBFFE
9B8660
9B8660
9B8660
9B8660
9B8660
9B8E60
9B8C60
9B8C60
FF9860
011861
003061
00607F
00C03F
01801E
ENDCHAR
STARTCHAR C2362
ENCODING 9058
SWIDTH 400 0
DWIDTH 24 0
BBX 24 24 0 -2
BITMAP
100000
1C0006
181FFE
180C30
180C30
991830
DB9830
9B9830
9B9832
9BBFFF
9B90F0
9B80F0
9B81F0
9B81B0
9B83B0
9B8330
9B8630
9B8E30
FF8C30
011830
003030
00E3F0
0181E0
000040
ENDCHAR
STARTCHAR C2363
ENCODING 9059
SWIDTH 400 0
DWIDTH 24 0
BBX 24 24 0 -2
BITMAP
100000
1C0038
187FFC
180E18
180E18
990E38
DB8E38
9B8E30
9B8E36
9B8FFF
9B8D06
9B8D06
9B8D8C
9B8C8C
9B98CC
9B98D8
9B9878
9BB070
FFB070
0160F8
00619E
00C30F
008E07
013800
ENDCHAR
STARTCHAR C2364
ENCODING 9060
SWIDTH 400 0
DWIDTH 24 0
BBX 24 24 0 -2
BITMAP
100E00
1C0E00
180C00
180C00
181806
991FFF
DB9B37
9BB337
9BB337
9BE337
9BC367
9B8667
9B8667
9B8C67
9B8CC7
9B99C7
9B9987
9BB387
FFE306
010606
000C0E
0018FC
003078
000030
ENDCHAR
STARTCHAR C2365
ENCODING 9061
SWIDTH 400 0
DWIDTH 24 0
BBX 24 24 0 -2
BITMAP
100180
1C0380
1803C0
180340
180660
990620
DB8C30
9B8818
9B981C
9BB02F
9BBFF7
9BE003
9BC000
9B8018
9BBFFC
9B801C
9B8018
9B8038
FF8030
010060
000060
0000E0
0000C0
000180
ENDCHAR
STARTCHAR C2366
ENCODING 9062
SWIDTH 400 0
DWIDTH 24 0
BBX 24 24 0 -2
BITMAP
000000
300038
3FFFF8
301838
301838
301838
3FFFF0
300000
300000
300004
300004
3FFFFC
1FFFFC
001000
001C00
001800
301818
38181C
301818
301818
301818
301818
3FFFF8
000018
ENDCHAR
STARTCHAR C2367
ENCODING 9063
SWIDTH 400 0
DWIDTH 24 0
BBX 24 24 0 -2
BITMAP
100038
1C01FC
183FC0
180180
180180
990180
DB8180
9B8180
9B8186
9BFFFE
9B8180
9B83C0
9B83C0
9B8340
9B8360
9B8660
9B8630
9B8C30
FF8C18
01180C
00300F
006007
00C002
038000
ENDCHAR
STARTCHAR C2368
ENCODING 9064
SWIDTH 400 0
DWIDTH 24 0
BBX 24 24 0 -2
BITMAP
10003C
1C00FE
181FE0
181800
181800
991800
DB9800
9B9806
9B9FFF
9B9830
9B9830
9B9830
9B9830
9B9830
9B9830
9B9830
9B9830
9BB030
FFB030
013030
006030
006030
00C030
018030
ENDCHAR
STARTCHAR C2369
ENCODING 9065
SWIDTH 400 0
DWIDTH 24 0
BBX 24 24 0 -2
BITMAP
001800
301818
38181C
301818
383818
3FFFF8
003810
003800
007C00
00E600
01C300
0381E0
07017F
0DC1FF
31818E
C18180
018180
018180
038180
030180
070180
0E0180
1C0180
700180
ENDCHAR
STARTCHAR C236a
ENCODING 9066
SWIDTH 400 0
DWIDTH 24 0
BBX 24 24 0 -2
BITMAP
000008
00001C
3FFFFC
000800
070C38
061C30
0C3860
1870C0
3061C0
0C3860
061C38
030E18
010408
000000
000010
1FFFF8
001800
001800
001800
001800
001800
001800
003807
FFFFFF
ENDCHAR
STARTCHAR C236b
ENCODING 9067
SWIDTH 400 0
DWIDTH 24 0
BBX 24 24 0 -2
BITMAP
1C0000
1C1804
1C1FFE
1C18C6
1C18C6
FFD8C6
DDD8C6
DD98C6
DD98C6
DD98C6
DD9CC6
DD9FFE
DD9804
DD9800
DD9800
DF9800
DF9800
DF1800
1C1801
1C1801
1C1803
1C1FFF
1C0FFF
1807FE
ENDCHAR
STARTCHAR C236c
ENCODING 9068
SWIDTH 400 0
DWIDTH 24 0
BBX 24 24 0 -2
BITMAP
1C01C0
1C01C0
1C01C0
1C01C0
1C11C0
FFD1C6
DDDFFF
DDB1C6
DDF1CC
DDA1C8
DD8180
DD81C0
DD81F0
DD83E0
DD8360
DF8360
DF8660
DF0660
1C0C60
1C0C61
1C1861
1C307F
1C607F
19803E
ENDCHAR
STARTCHAR C236d
ENCODING 9069
SWIDTH 400 0
DWIDTH 24 0
BBX 24 24 0 -2
BITMAP
001800
000C00
300C06
3FFFFF
300400
300E00
300E00
300E08
37FFFC
300E00
300E00
300E60
30FFF0
3060F0
302060
3030C0
3019C0
300F80
300F00
600F00
6019E0
C070FF
81C03F
0F000C
ENDCHAR
STARTCHAR C236e
ENCODING 9070
SWIDTH 400 0
DWIDTH 24 0
BBX 24 24 0 -2
BITMAP
001800
000C00
300C06
3FFFFF
300600
300700
300600
300604
37FFFE
300600
300600
31C61C
31C61C
318618
318618
318618
318618
31FFF8
300611
600601
600603
C007FF
8003FF
0001FE
ENDCHAR
STARTCHAR C236f
ENCODING 9071
SWIDTH 400 0
DWIDTH 24 0
BBX 24 24 0 -2
BITMAP
001800
000C00
300C06
3FFFFF
300000
308010
30FFF8
30C180
30C180
318180
318184
31FFFE
310F80
300D80
301D80
301980
301980
303180
306180
60C180
618180
C71F80
8C0F00
000200
ENDCHAR
STARTCHAR C2370
ENCODING 9072
SWIDTH 400 0
DWIDTH 24 0
BBX 24 24 0 -2
BITMAP
001800
000C00
300C06
3FFFFF
300600
300600
300E00
300D00
301880
303060
306038
30C05F
31BFEF
3E0002
3C0020
307FF0
300070
300060
300060
6000C0
6000C0
C00180
800300
000600
ENDCHAR
STARTCHAR C2371
ENCODING 9073
SWIDTH 400 0
DWIDTH 24 0
BBX 24 24 0 -2
BITMAP
001800
000C00
300C06
3FFFFF
300000
3000F0
308FF8
30F800
30C000
30C000
30C004
30FFFE
30C1C0
30C1C0
30C1C0
30C1C0
30C1C0
3181C0
3181C0
6301C0
6301C0
C601C0
8C01C0
380180
ENDCHAR
STARTCHAR C2372
ENCODING 9074
SWIDTH 400 0
DWIDTH 24 0
BBX 24 24 0 -2
BITMAP
008E00
00C300
018180
0300E0
060070
0C003F
1FFFEF
306066
E0E060
00C060
0180E0
030FC0
060180
180100
03C1C0
038180
038186
FFFFFF
030180
060180
060180
0C0180
180180
600180
ENDCHAR
STARTCHAR C2373
ENCODING 9075
SWIDTH 400 0
DWIDTH 24 0
BBX 24 24 0 -2
BITMAP
020000
07100C
FF9FFE
0319CE
0319CC
0319CC
0319CC
7F19CC
6319CC
6019CC
6019CC
E11FFC
FF980C
C39800
039800
039800
039800
039801
031801
031801
061803
7E1FFF
3C0FFF
180000
ENDCHAR
STARTCHAR C2374
ENCODING 9076
SWIDTH 400 0
DWIDTH 24 0
BBX 24 24 0 -2
BITMAP
030080
0700C0
060040
0E0060
1C1C20
381830
731830
071818
063018
0E321C
1C630C
1C630E
3C4607
3CC607
5C8E00
9C0C00
1C0800
1C1830
1C1818
1C300C
1C30FC
1C7F8C
1C7004
181004
ENDCHAR
STARTCHAR C2375
ENCODING 9077
SWIDTH 400 0
DWIDTH 24 0
BBX 24 24 0 -2
BITMAP
030000
070038
067FF8
0E0C38
1C0C30
380C30
730C30
070C60
060C6C
0E0FFE
1C0E0C
1C1B0C
3C190C
3C190C
5C1998
9C38F8
1C30F0
1C3070
1C60F0
1C61F8
1CC39C
1CC70F
1D8E06
1B7800
ENDCHAR
STARTCHAR C2376
ENCODING 9078
SWIDTH 400 0
DWIDTH 24 0
BBX 24 24 0 -2
BITMAP
000300
000320
000330
000318
000308
000302
FFFFFF
000300
000300
018300
00C300
00C180
04C180
060180
0601C0
0600C0
2608C0
260C60
660661
661331
E6133B
C7F31F
03F00F
01E007
ENDCHAR
STARTCHAR C2377
ENCODING 9079
SWIDTH 400 0
DWIDTH 24 0
BBX 24 24 0 -2
BITMAP
000000
000007
FFFFFF
003000
003000
003E00
003380
0031E0
003070
003030
003000
003000
003000
000000
000000
021800
038C00
230E08
23040E
630027
630063
C3FFC3
81FFE0
007FC0
ENDCHAR
STARTCHAR C2378
ENCODING 9080
SWIDTH 400 0
DWIDTH 24 0
BBX 24 24 0 -2
BITMAP
003800
003800
003000
003000
003000
003060
003FF0
003000
003000
003000
003000
003006
FFFFFF
000000
003800
039C00
038C00
230610
23000C
630026
630067
C3FFC3
81FFE1
007FC0
ENDCHAR
STARTCHAR C2379
ENCODING 9081
SWIDTH 400 0
DWIDTH 24 0
BBX 24 24 0 -2
BITMAP
1C0000
1C0300
180180
1801C0
1800C0
180006
5CFFFF
5E0180
DB0180
D90180
D80180
9801E0
1801B8
18019C
18018C
18018C
180180
180180
180180
180180
180180
180180
180180
180180
ENDCHAR
STARTCHAR C237a
ENCODING 9082
SWIDTH 400 0
DWIDTH 24 0
BBX 24 24 0 -2
BITMAP
1C0000
1C0008
183FFC
180000
180000
180000
5C0000
5E0000
DB0006
D97FFE
D80660
980660
180660
180660
180660
180E60
180C60
180C60
181861
181861
183063
18607F
18C03F
19801E
ENDCHAR
STARTCHAR C237b
ENCODING 9083
SWIDTH 400 0
DWIDTH 24 0
BBX 24 24 0 -2
BITMAP
1C0380
1C0380
180300
180300
180306
19FFFF
5C0300
5E0300
DB0300
D90318
D87FFC
98101C
181018
180830
180C30
180660
1803E0
1803C0
1801C0
1803E0
18067C
18181F
187007
19C000
ENDCHAR
STARTCHAR C237c
ENCODING 9084
SWIDTH 400 0
DWIDTH 24 0
BBX 24 24 0 -2
BITMAP
1C01C0
1C01C0
180180
180180
180186
187FFE
5C0180
5E3188
DB398E
D9318C
D8318C
98318C
18318C
18318C
18318C
183FFC
18319C
180188
180181
180181
180183
1801FF
1801FF
18007E
ENDCHAR
STARTCHAR C237d
ENCODING 9085
SWIDTH 400 0
DWIDTH 24 0
BBX 24 24 0 -2
BITMAP
1C01C0
1C01C0
1801C0
1801C0
1801C0
1861C6
5C7FFF
5E71C7
DB71C7
D971C7
D871C7
9871C7
1871C7
1871C7
187FFF
1861C6
1801C0
1801C0
1801C0
1801C0
1801C0
1801C0
1801C0
180180
ENDCHAR
STARTCHAR C237e
ENCODING 9086
SWIDTH 400 0
DWIDTH 24 0
BBX 24 24 0 -2
BITMAP
1C1C00
1C1C00
181800
181800
18180C
183FFC
5C31C0
5E21C0
DB61C0
D941C0
D881C0
9801C2
18FFFF
1801C0
1801C0
1801C0
1801C0
1801C0
1801C0
1801C0
1801C0
1801C0
1801C0
180180
ENDCHAR
STARTCHAR C2421
ENCODING 9249
SWIDTH 400 0
DWIDTH 24 0
BBX 24 24 0 -2
BITMAP
1C0000
1C0038
187FF8
180C38
180C30
180C30
5C0C30
5E0C60
DB0C6E
D90FFF
D80E0E
981B0C
18190C
18190C
181998
1838F8
1830F0
183070
1860F0
1861F8
18C39C
18C70F
198C06
1B7000
ENDCHAR
STARTCHAR C2422
ENCODING 9250
SWIDTH 400 0
DWIDTH 24 0
BBX 24 24 0 -2
BITMAP
1C0E00
1C0E00
180C00
180C00
181800
18180C
5C1FFE
5E330C
DB3318
D96330
D8C300
980380
180380
180380
1806C0
180640
180660
180C60
180C30
181838
18301E
18600F
18C006
1B8000
ENDCHAR
STARTCHAR C2423
ENCODING 9251
SWIDTH 400 0
DWIDTH 24 0
BBX 24 24 0 -2
BITMAP
1C0038
1C01FC
187FC0
1871C0
1871C0
1871C0
5C71C0
5E71C0
DB71C4
D97FFE
D871C0
9870C0
1870C0
1870C0
187060
187060
187060
187030
187131
187719
187C1F
18780F
183007
180003
ENDCHAR
STARTCHAR C2424
ENCODING 9252
SWIDTH 400 0
DWIDTH 24 0
BBX 24 24 0 -2
BITMAP
1C0000
1CC002
18E017
18C03F
18C837
18CC37
5CC637
5EC367
DBC367
D9C1C7
D8C1C7
98C1C7
18C1E7
18C367
18C337
18C737
18C63F
18CC1F
18C81F
18D007
18C007
18FFFF
18C006
180000
ENDCHAR
STARTCHAR C2425
ENCODING 9253
SWIDTH 400 0
DWIDTH 24 0
BBX 24 24 0 -2
BITMAP
1C003C
1C01FE
183FC0
183000
183000
183000
5C3000
5E3006
DB3FFF
D93030
D83030
983030
183030
183030
183030
187030
187030
186030
186030
18C030
18C030
18C030
198030
1B0030
ENDCHAR
STARTCHAR C2426
ENCODING 9254
SWIDTH 400 0
DWIDTH 24 0
BBX 24 24 0 -2
BITMAP
1C0000
1C0007
18FFFF
180180
180180
180300
5C0300
5E0700
DB0730
D90F18
D81B0C
981B06
183307
186303
18C303
198301
180300
180300
180300
180300
180300
180300
180300
180300
ENDCHAR
STARTCHAR C2427
ENCODING 9255
SWIDTH 400 0
DWIDTH 24 0
BBX 24 24 0 -2
BITMAP
1C0300
1C0380
180380
1806C0
180640
180C60
5C0C30
5E1838
DB301C
D9300E
D87FEF
98C007
198002
180030
183FF8
180038
180030
180030
180060
180060
1800C0
1800C0
180180
180180
ENDCHAR
STARTCHAR C2428
ENCODING 9256
SWIDTH 400 0
DWIDTH 24 0
BBX 24 24 0 -2
BITMAP
00E000
03E604
3F07FE
300606
300606
306606
3FF606
307606
307606
307606
307606
3077FE
307604
3FF600
306600
300600
300600
300600
300601
600601
600603
C007FF
8003FF
0001FE
ENDCHAR
STARTCHAR C2429
ENCODING 9257
SWIDTH 400 0
DWIDTH 24 0
BBX 24 24 0 -2
BITMAP
1C0000
1C0300
1C0180
1C01C0
1C00C0
1D0002
7F7FFF
1C0180
1C0180
1C0180
1C0180
1F01E0
1C01B8
FC019C
FC018C
5C018C
1C0180
1C0180
1C0180
1C0180
1C0180
7C0180
380180
180180
ENDCHAR
STARTCHAR C242a
ENCODING 9258
SWIDTH 400 0
DWIDTH 24 0
BBX 24 24 0 -2
BITMAP
1C01C0
1C01C0
1C0180
1C0180
1C0180
1D1186
7F3FFF
1C7186
1C618C
1C4188
1C0300
1F0380
1C03E0
FC03C0
FC06C0
5C06C0
1C06C0
1C0CC0
1C0CC0
1C18C1
1C30C1
7C60FF
38C07F
1B803E
ENDCHAR
STARTCHAR C242b
ENCODING 9259
SWIDTH 400 0
DWIDTH 24 0
BBX 24 24 0 -2
BITMAP
1C0000
1C0000
1C001C
1C1FFC
1C0000
1D0000
7F0000
1C0000
1C0002
1C7FFF
1C0700
1F0300
1C0700
FC0600
FC0600
5C0C00
1C0C00
1C1818
1C180C
1C103E
1C3FE7
7C3C07
381802
180000
ENDCHAR
STARTCHAR C242c
ENCODING 9260
SWIDTH 400 0
DWIDTH 24 0
BBX 24 24 0 -2
BITMAP
1C0000
1C0008
1C3FFC
1C0000
1C0000
1D0000
7F0000
1C0000
1C0006
1C7FFE
1C0660
1F0660
1C0660
FC0660
FC0660
5C0E60
1C0C60
1C0C60
1C1861
1C1861
1C3063
7C607F
38C03F
19801E
ENDCHAR
STARTCHAR C242d
ENCODING 9261
SWIDTH 400 0
DWIDTH 24 0
BBX 24 24 0 -2
BITMAP
1C0000
1C0007
1C7FFF
1C00C0
1C0180
1D0180
7F0380
1C0380
1C0790
1C0F98
1C0D8C
1F1986
1C3987
FC3183
FC6183
5CC181
1C0180
1C0180
1C0180
1C0180
1C0180
7C0180
380180
180180
ENDCHAR
STARTCHAR C242e
ENCODING 9262
SWIDTH 400 0
DWIDTH 24 0
BBX 24 24 0 -2
BITMAP
0E0000
0E0000
0C1806
0C1FFF
0C1807
0CD807
7FD807
0C1807
0C1807
0C1807
0C1807
0F9FFF
3E1807
FC1807
EC1807
4C1807
0C1807
0C1807
0C1807
0C1C07
0C1FFF
7C1806
3C1800
180000
ENDCHAR
STARTCHAR C242f
ENCODING 9263
SWIDTH 400 0
DWIDTH 24 0
BBX 24 24 0 -2
BITMAP
1C0020
1C0070
1CFFF8
1C1830
1C1830
1D1860
7F1860
1C1860
1C186C
1C1FFE
1C1E0C
1F1A0C
1C1A18
FC1B18
FC3138
5C31B0
1C70E0
1C60E0
1C60F0
1CC1B8
1CC31C
7D860F
1B1807
1EF000
ENDCHAR
STARTCHAR C2430
ENCODING 9264
SWIDTH 400 0
DWIDTH 24 0
BBX 24 24 0 -2
BITMAP
1C0E00
1C0E00
1C0E00
1C0C00
1C0C00
1D1C0E
7F1FFF
1C198C
1C3188
1C2190
1C4180
1F0180
1C03C0
FC03C0
FC0340
5C0360
1C0660
1C0630
1C0C38
1C0C1C
1C181E
7C300F
386007
198000
ENDCHAR
STARTCHAR C2431
ENCODING 9265
SWIDTH 400 0
DWIDTH 24 0
BBX 24 24 0 -2
BITMAP
1C0038
1C01FC
1C7FC0
1C71C0
1C71C0
1D71C0
7F71C0
1C71C0
1C71C4
1C7FFE
1C71C0
1F70C0
1C70C0
FC70C0
FC7060
5C7060
1C7060
1C7030
1C7131
1C7719
1C7C1F
7C780F
183007
180003
ENDCHAR
STARTCHAR C2432
ENCODING 9266
SWIDTH 400 0
DWIDTH 24 0
BBX 24 24 0 -2
BITMAP
1C0180
1C0180
1C01B0
1C0198
1C018C
1D0180
7F0180
1C3FFE
1C0180
1C0180
1C0180
1F0340
1C03E0
FC0360
FC0360
5C0660
1C0660
1C0C60
1C0C61
1C1861
1C3063
7C607F
38C07F
19803E
ENDCHAR
STARTCHAR C2433
ENCODING 9267
SWIDTH 400 0
DWIDTH 24 0
BBX 24 24 0 -2
BITMAP
1C01C0
1C01C0
1C0380
1C0300
1C0600
1D0600
7F0C18
1C180C
1C1806
1C3FFF
1C3F67
1F3B63
1C0360
FC0360
FC0360
5C0760
1C0660
1C0660
1C0C60
1C0C61
1C1861
7C307F
38603F
19801E
ENDCHAR
STARTCHAR C2434
ENCODING 9268
SWIDTH 400 0
DWIDTH 24 0
BBX 24 24 0 -2
BITMAP
0E0004
0E0E0E
0C0FFF
0C0E06
0C0E06
0CCE06
7FCE06
0C0E06
0C0FFE
0C0E06
0C0E06
0F8E06
3E0E06
FC0E06
EC0FFE
4C0C06
0C0C06
0C1806
0C1806
0C1806
0C3006
7C607E
3CC03C
198008
ENDCHAR
STARTCHAR C2435
ENCODING 9269
SWIDTH 400 0
DWIDTH 24 0
BBX 24 24 0 -2
BITMAP
1C0038
1C01FC
1C3FC0
1C0180
1C0180
1D0180
7F0180
1C0180
1C0186
1C7FFE
1C0180
1F03C0
1C03C0
FC0340
FC0360
5C0660
1C0630
1C0C30
1C0C18
1C181C
1C300E
7C600F
18C007
1B8000
ENDCHAR
STARTCHAR C2436
ENCODING 9270
SWIDTH 400 0
DWIDTH 24 0
BBX 24 24 0 -2
BITMAP
1C01C0
1C01C0
1C0180
1C0180
1C0186
1D7FFE
7F0180
1C3188
1C398E
1C318C
1C318C
1F318C
1C318C
FC318C
FC318C
5C3FFC
1C319C
1C0188
1C0181
1C0181
1C0183
7C01FF
3801FF
18007E
ENDCHAR
STARTCHAR C2437
ENCODING 9271
SWIDTH 400 0
DWIDTH 24 0
BBX 24 24 0 -2
BITMAP
1C0180
1C0380
1C03C0
1C0340
1C0660
1D0620
7F0C30
1C0818
1C181C
1C302F
1C3FF7
1F6003
1CC000
FC0018
FC3FFC
5C001C
1C0018
1C0038
1C0030
1C0060
1C0060
7C00E0
3800C0
180180
ENDCHAR
STARTCHAR C2438
ENCODING 9272
SWIDTH 400 0
DWIDTH 24 0
BBX 24 24 0 -2
BITMAP
1C01C0
1C01C0
1C01C0
1C03C0
1C0320
1D0630
7F0E18
1C0C0E
1C1807
1C3003
1C4E38
1F0E38
1C0E38
FC0E38
FC0E38
5C0E38
1C0C38
1C0C38
1C0838
1C1838
1C1038
7C2038
384038
188030
ENDCHAR
STARTCHAR C2439
ENCODING 9273
SWIDTH 400 0
DWIDTH 24 0
BBX 24 24 0 -2
BITMAP
000000
00000C
463FFC
FF0180
E70180
E60180
E60180
E60180
E60180
E60186
E6FFFF
FE0180
E60180
E60180
E60180
E60180
E60180
E60180
FE0180
C60180
000180
000180
000180
000180
ENDCHAR
STARTCHAR C243a
ENCODING 9274
SWIDTH 400 0
DWIDTH 24 0
BBX 24 24 0 -2
BITMAP
000000
00000C
461FFC
FF01C0
E701C0
E601C0
E601C0
E601C0
E601C2
E67FFF
E601C0
FE01C0
E601C0
E601C0
E601C0
E601C0
E601C0
E601C0
FE01C0
C601C0
0001C0
000FC0
000780
000300
ENDCHAR
STARTCHAR C243b
ENCODING 9275
SWIDTH 400 0
DWIDTH 24 0
BBX 24 24 0 -2
BITMAP
000E00
000E00
460C00
FF0C00
E71804
E61FFE
E61806
E63006
E63006
E66006
E64406
FE0706
E60386
E60186
E600C6
E60006
E60006
E60006
FE000E
C6000C
00000C
0001FC
000078
000030
ENDCHAR
STARTCHAR C243c
ENCODING 9276
SWIDTH 400 0
DWIDTH 24 0
BBX 24 24 0 -2
BITMAP
000000
0C0060
0FFFF0
0C0060
0C0060
0FFFE0
0C0060
0C0060
0C0060
0FFFE0
0C0060
003800
003800
003000
003006
FFFFFF
006000
006300
00C0C0
018070
03003C
0E001E
1C000E
700006
ENDCHAR
STARTCHAR C243d
ENCODING 9277
SWIDTH 400 0
DWIDTH 24 0
BBX 24 24 0 -2
BITMAP
000000
0C0060
0FFFF0
0C0060
0C0060
0FFFE0
0C0060
0C0060
0C0060
0FFFE0
0C0060
001000
001C00
001800
301810
38181C
301818
301818
301818
301818
301818
3FFFF8
300018
000018
ENDCHAR
STARTCHAR C243e
ENCODING 9278
SWIDTH 400 0
DWIDTH 24 0
BBX 24 24 0 -2
BITMAP
1C0000
1C000C
1C1FFC
1C01C0
1D01C0
FF81C0
1C01C0
1C01C0
1C01C2
3E7FFF
3F01C0
3F81C0
7D01C0
7C01C0
5C01C0
DC01C0
9C01C0
1C01C0
1C01C0
1C01C0
1C01C0
1C0FC0
1C0780
180300
ENDCHAR
STARTCHAR C243f
ENCODING 9279
SWIDTH 400 0
DWIDTH 24 0
BBX 24 24 0 -2
BITMAP
1C0000
1C000C
1C1FFC
1C0000
1D0000
FF8000
1C0006
1CFFFF
1C0C00
3E0C00
3F1800
3F9808
7D3FFC
7C101C
5C000C
DC000C
9C000C
1C000C
1C001C
1C0018
1C0038
1C03F0
1C01E0
180040
ENDCHAR
STARTCHAR C2440
ENCODING 9280
SWIDTH 400 0
DWIDTH 24 0
BBX 24 24 0 -2
BITMAP
1C0300
1C0300
1C0320
1C0330
1D0318
FF8318
1C0300
1C0706
1C7FFE
3E0300
3F0300
3F8300
7D0300
7C0300
5C0180
DC0180
9C0180
1C00C0
1C00C0
1C0061
1C0031
1C001F
1C000F
180007
ENDCHAR
STARTCHAR C2441
ENCODING 9281
SWIDTH 400 0
DWIDTH 24 0
BBX 24 24 0 -2
BITMAP
1C0380
1C0380
1C0300
1C0300
1D0300
FF8300
1C0304
1CFFFE
1C0300
3E0300
3F0300
3F8380
7D0380
7C0680
5C06C0
DC0E40
9C0C60
1C0C60
1C1870
1C1838
1C301C
1C600F
1CC006
198000
ENDCHAR
STARTCHAR C2442
ENCODING 9282
SWIDTH 400 0
DWIDTH 24 0
BBX 24 24 0 -2
BITMAP
1C0000
1C0007
1C7FFF
1C0E30
1D0E30
FF8E30
1C0E30
1C0E30
1C0E30
3E0E30
3F0E30
3F8E30
7D0E30
7C0C30
5C0C30
DC0C30
9C1830
1C1830
1C1830
1C3031
1C3031
1C603F
1CC03F
19800E
ENDCHAR
STARTCHAR C2443
ENCODING 9283
SWIDTH 400 0
DWIDTH 24 0
BBX 24 24 0 -2
BITMAP
1C0000
1C0008
1C7FFC
1C100C
1D100C
FF9B0C
1C1B98
1C1998
1C0998
3E0838
3F0C30
3F8C30
7D0660
7C0660
5C03C0
DC03C0
9C0180
1C03C0
1C06E0
1C0C70
1C183C
1C301F
1CC007
1B8000
ENDCHAR
STARTCHAR C2444
ENCODING 9284
SWIDTH 400 0
DWIDTH 24 0
BBX 24 24 0 -2
BITMAP
1C01C0
1C01C0
1C1DC0
1C19C0
1D19C0
FF99C0
1C19C6
1C19FE
1CFFCE
3E19CC
3F19CC
3F99CC
7D19CC
7C19D8
5C19D8
DC19D0
9C19C0
1C1980
1C1801
1C1801
1C1803
1C1FFF
1C1FFF
180FFE
ENDCHAR
STARTCHAR C2445
ENCODING 9285
SWIDTH 400 0
DWIDTH 24 0
BBX 24 24 0 -2
BITMAP
1C0000
1C000C
1C1FFE
1C001C
1D0030
FF8060
1C01C0
1C01C0
1C01C0
3E01C0
3F01C6
3FFFFF
7D01C0
7C01C0
5C01C0
DC01C0
9C01C0
1C01C0
1C01C0
1C01C0
1C01C0
1C0FC0
1C0780
180300
ENDCHAR
STARTCHAR C2446
ENCODING 9286
SWIDTH 400 0
DWIDTH 24 0
BBX 24 24 0 -2
BITMAP
1C0700
1C0700
1C0600
1C0600
1D0E07
FF8FFF
1C1800
1C1000
1C2000
3E0030
3F1FF8
3F8038
7D0060
7C00C0
5C0180
DC0300
9C0600
1C0C00
1C1801
1C1801
1C1803
1C1FFF
1C0FFF
1803FE
ENDCHAR
STARTCHAR C2447
ENCODING 9287
SWIDTH 400 0
DWIDTH 24 0
BBX 24 24 0 -2
BITMAP
1C0000
1C1838
1C1FF8
1C1838
1D1838
FF9838
1C1838
1C1838
1C1B38
3E1BB8
3F19B8
3F99F8
7D18B8
7C1838
5C1838
DC1838
9C1838
1C3038
1C3038
1C2039
1C6039
1CC03F
1C801F
19000E
ENDCHAR
STARTCHAR C2448
ENCODING 9288
SWIDTH 400 0
DWIDTH 24 0
BBX 24 24 0 -2
BITMAP
001800
001800
001802
FFFFFF
003800
001800
001830
1FFFF0
000000
0FFFF0
0C3870
0C1860
0C1860
0C1862
FFFFFF
1C3060
1C3060
1C3060
1C3066
1FFFFE
000060
000FE0
0003C0
000180
ENDCHAR
STARTCHAR C2449
ENCODING 9289
SWIDTH 400 0
DWIDTH 24 0
BBX 24 24 0 -2
BITMAP
1C0000
1C0008
1FFFFC
180000
300000
3FFFF0
300000
600000
5FFFF0
800070
008060
00E060
00C060
30C660
38C660
30C630
30C630
30C630
30C638
30C619
30C61D
3FFE0F
000607
000003
ENDCHAR
STARTCHAR C244a
ENCODING 9290
SWIDTH 400 0
DWIDTH 24 0
BBX 24 24 0 -2
BITMAP
1C0000
1C0008
1FFFFC
180000
300000
3FFFF0
300000
600000
5FFFF0
800070
000060
1CC760
1CE660
1CC660
1CC660
1CC670
1CC630
1CC630
18C638
18C619
30C61D
30C60F
20C607
400603
ENDCHAR
STARTCHAR C244b
ENCODING 9291
SWIDTH 400 0
DWIDTH 24 0
BBX 24 24 0 -2
BITMAP
000000
180300
0C0180
0C01C0
0000C0
010006
81FFFF
E20600
720600
360600
06060C
0407FE
0C0E0C
080E0C
180C0C
180C0C
30180C
F0180C
30380C
30301C
386018
38C3F0
1181E0
070040
ENDCHAR
STARTCHAR C244c
ENCODING 9292
SWIDTH 400 0
DWIDTH 24 0
BBX 24 24 0 -2
BITMAP
000000
18000C
0C7FFC
0C0C30
000C30
010C30
810C30
E20C30
720C30
360C32
06FFFF
040C30
0C0C30
080C30
181830
181830
301830
F01830
303830
303030
387030
386030
38C030
118030
ENDCHAR
STARTCHAR C244d
ENCODING 9293
SWIDTH 400 0
DWIDTH 24 0
BBX 24 24 0 -2
BITMAP
000E38
180E38
0C0C38
0C0C38
000C38
010C3A
817FFE
E20C38
720C38
360C38
060C38
040C38
0C0C38
08FFFF
180C38
180C38
301838
F01838
301838
301038
383038
386038
38C038
118030
ENDCHAR
STARTCHAR C244e
ENCODING 9294
SWIDTH 400 0
DWIDTH 24 0
BBX 24 24 0 -2
BITMAP
000000
180000
0C001C
0C3FFC
000000
010000
810000
E20000
720002
367FFF
060600
040600
0C0600
080E00
180C00
180C00
301800
F01818
30300C
30307E
387FC7
387C07
383002
100000
ENDCHAR
STARTCHAR C244f
ENCODING 9295
SWIDTH 400 0
DWIDTH 24 0
BBX 24 24 0 -2
BITMAP
000300
180300
0C0330
0C0318
00030C
010300
810300
E2FFFE
720300
360300
060300
040680
0C07C0
0807C0
180FC0
180DC0
3019C0
F019C0
3039C1
3031C1
3861C3
38C1FF
3980FF
17007E
ENDCHAR
STARTCHAR C2450
ENCODING 9296
SWIDTH 400 0
DWIDTH 24 0
BBX 24 24 0 -2
BITMAP
207000
307000
186006
0863FF
006067
026067
826467
E7FE67
646067
246067
0C6067
0C6067
186067
186067
1860C7
3064C7
3078C7
F07187
306186
306306
38060E
380CFC
381878
107030
ENDCHAR
STARTCHAR C2451
ENCODING 9297
SWIDTH 400 0
DWIDTH 24 0
BBX 24 24 0 -2
BITMAP
000180
180180
0C0198
0C018C
00018C
010180
810186
E27FFE
720180
360180
060180
0403C0
0C03C0
080340
180340
180660
300660
F00E30
300C38
30181C
38181E
38300F
386007
11C000
ENDCHAR
STARTCHAR C2452
ENCODING 9298
SWIDTH 400 0
DWIDTH 24 0
BBX 24 24 0 -2
BITMAP
000700
180700
0C0600
0C0600
000600
010602
817FFF
E20E00
720E00
360C40
060C70
041CE0
0C18C0
0818C0
183180
183180
302300
F06310
304608
30CC04
398C06
3B1FFF
381F03
100803
ENDCHAR
STARTCHAR C2453
ENCODING 9299
SWIDTH 400 0
DWIDTH 24 0
BBX 24 24 0 -2
BITMAP
000000
180000
0C0000
0C6006
007FFF
017007
817007
E27007
727007
367007
067007
047FFF
0C7007
087007
187007
187007
307007
F07007
307FFF
307007
387006
382000
380000
100000
ENDCHAR
STARTCHAR C2454
ENCODING 9300
SWIDTH 400 0
DWIDTH 24 0
BBX 24 24 0 -2
BITMAP
0001C0
1801C0
0C01C0
0C01C0
0001C0
0101C0
8101C0
E231C0
7239C0
3631C0
0631CC
0431FC
0C31C0
0831C0
1831C0
1831C0
3031C0
F031C0
3031C0
3031C0
3831C0
3831C2
39FFFF
100000
ENDCHAR
STARTCHAR C2455
ENCODING 9301
SWIDTH 400 0
DWIDTH 24 0
BBX 24 24 0 -2
BITMAP
000400
180200
0C0300
0C4304
00618E
017FFF
816186
E26186
7263C6
3663C6
066346
046666
0C6676
086C3E
186C3E
187816
307006
F06006
306006
306006
386006
38607E
38603C
106008
ENDCHAR
STARTCHAR C2456
ENCODING 9302
SWIDTH 400 0
DWIDTH 24 0
BBX 24 24 0 -2
BITMAP
000300
180300
0C0600
0C0E00
000C00
011C00
811810
E23008
72300C
367FFE
06FEE6
047E66
0C0E60
080E60
180E60
180C60
300C60
F01C60
301860
301861
383061
38607F
38C07F
17003E
ENDCHAR
STARTCHAR C2457
ENCODING 9303
SWIDTH 400 0
DWIDTH 24 0
BBX 24 24 0 -2
BITMAP
001800
181800
0C1800
0C3800
003006
013FFF
816667
E26667
724667
36CE67
068C67
040C67
0C0CC7
0818C7
1819C7
183187
303307
F06307
30C706
300E0E
381C0C
3839FC
382078
100030
ENDCHAR
STARTCHAR C2458
ENCODING 9304
SWIDTH 400 0
DWIDTH 24 0
BBX 24 24 0 -2
BITMAP
00380E
18380E
0C300C
0C300C
00300C
01300C
81300C
E23FFC
72300C
363000
063000
043004
0C3FFE
083006
183006
183006
307006
F07006
306006
306006
38C006
38C006
388006
110006
ENDCHAR
STARTCHAR C2459
ENCODING 9305
SWIDTH 400 0
DWIDTH 24 0
BBX 24 24 0 -2
BITMAP
000038
1801FC
0C7FC0
0C71C0
0071C0
0171C0
8171C0
E271C0
7271C4
367FFE
0671C0
0470C0
0C70C0
0870C0
187060
187060
307060
F07030
307131
307719
387C1F
38780F
383007
100003
ENDCHAR
STARTCHAR C245a
ENCODING 9306
SWIDTH 400 0
DWIDTH 24 0
BBX 24 24 0 -2
BITMAP
000000
183004
0C3FFE
0C3000
003000
013000
813008
E2301C
723FFC
36320C
06320C
043218
0C3318
083138
183130
1871B0
3060E0
F060E0
3061F0
30C1B8
38C31C
39860F
3B0C07
123000
ENDCHAR
STARTCHAR C245b
ENCODING 9307
SWIDTH 400 0
DWIDTH 24 0
BBX 24 24 0 -2
BITMAP
000380
180380
0C0300
0C0300
000306
01FFFF
810300
E20300
720300
360318
067FFC
04101C
0C1018
080830
180C30
180660
3003E0
F003C0
3001C0
3003E0
38067C
38181F
387007
11C000
ENDCHAR
STARTCHAR C245c
ENCODING 9308
SWIDTH 400 0
DWIDTH 24 0
BBX 24 24 0 -2
BITMAP
001800
181800
0C1800
0C3800
00300C
013FFC
816180
E26180
72C180
36C180
068180
040182
0CFFFF
080180
180180
180180
300180
F00180
300180
300180
380180
380180
380180
100180
ENDCHAR
STARTCHAR C245d
ENCODING 9309
SWIDTH 400 0
DWIDTH 24 0
BBX 24 24 0 -2
BITMAP
2011C0
3019C0
181980
083180
003180
027180
826180
E66180
64E186
24E1FE
0CE180
0DE180
1B6180
186180
186180
306180
306180
F06181
306181
306183
386183
3861FF
3861FF
10607C
ENDCHAR
STARTCHAR C245e
ENCODING 9310
SWIDTH 400 0
DWIDTH 24 0
BBX 24 24 0 -2
BITMAP
000000
1E0000
1C000C
1C3FFE
1C0180
1D0180
9F8180
DF0180
7E0180
7C0180
3C0180
1C0180
1C0180
1C0180
180180
180180
1C0180
360180
330180
238180
618182
C07FFF
800000
000000
ENDCHAR
STARTCHAR C245f
ENCODING 9311
SWIDTH 400 0
DWIDTH 24 0
BBX 24 24 0 -2
BITMAP
0001C0
1E01C0
1C1DC0
1C19C0
1C19C0
1D19C0
9F99C6
DF19FE
7EFFCE
7C19CC
3C19CC
1C19CC
1C19CC
1C19D8
1819D8
1819D0
1C19C0
361980
331801
239801
619803
C01FFF
801FFF
000FFE
ENDCHAR
STARTCHAR C2460
ENCODING 9312
SWIDTH 400 0
DWIDTH 24 0
BBX 24 24 0 -2
BITMAP
0E0004
0E000E
7C3FFF
6C0306
6C0306
6D0306
7F8306
CC2306
CC3306
8C1B06
8C1F06
0C0F06
0F8706
3E0306
FC0606
6C0606
0C0606
0C0C0E
0C080C
0C180C
0C301C
0C61F8
0CC0F0
0D8060
ENDCHAR
STARTCHAR C2461
ENCODING 9313
SWIDTH 400 0
DWIDTH 24 0
BBX 24 24 0 -2
BITMAP
000000
470600
660300
3C0380
180180
3C0006
6CFFFF
C60300
860300
060300
060380
0F03E0
1B0370
130338
23031C
43030C
830300
030300
030300
070300
060300
3E0300
3C0300
180300
ENDCHAR
STARTCHAR C2462
ENCODING 9314
SWIDTH 400 0
DWIDTH 24 0
BBX 24 24 0 -2
BITMAP
000000
47000C
661FFC
3C0C60
180C60
3C1860
6C1860
C61860
861862
063FFF
0610F0
0F00E0
1B01E0
1301E0
2303E0
430360
830660
030E60
030C60
071860
063060
3EE3E0
3C01E0
1800C0
ENDCHAR
STARTCHAR C2463
ENCODING 9315
SWIDTH 400 0
DWIDTH 24 0
BBX 24 24 0 -2
BITMAP
000000
470018
663FFC
3C061C
180618
3C0618
6C0618
C60618
860618
060618
060618
0F7FFF
1B0E38
130E38
230E38
430E38
830E38
030E38
030E38
070E38
060E38
3E0E3A
3C7FFF
180000
ENDCHAR
STARTCHAR C2464
ENCODING 9316
SWIDTH 400 0
DWIDTH 24 0
BBX 24 24 0 -2
BITMAP
0001C0
4701C0
6601C0
3C01C0
1801C0
3C31CE
6C3FFF
C631C6
8631C6
0631C6
0631C6
0F31C6
1B31C6
1331C6
233FFE
4331C6
8301C0
0301C0
0301C0
0701C0
0601C0
3E01C0
3C01C0
180180
ENDCHAR
STARTCHAR C2465
ENCODING 9317
SWIDTH 400 0
DWIDTH 24 0
BBX 24 24 0 -2
BITMAP
0001C0
4701C0
660380
3C0300
180600
3C0600
6C0C18
C6180C
861806
063FFF
063F67
0F3B63
1B0360
130360
230360
430760
830660
030660
030C60
070C61
061861
3E307F
3C603F
19801E
ENDCHAR
STARTCHAR C2466
ENCODING 9318
SWIDTH 400 0
DWIDTH 24 0
BBX 24 24 0 -2
BITMAP
000600
470300
660180
3C0186
187FFE
3C0000
6C0000
C60820
860FF0
060C30
060C30
0F0C30
1B0C30
130C30
230C30
431830
831830
031830
031830
073031
063031
3E603F
3CC03F
1B800E
ENDCHAR
STARTCHAR C2467
ENCODING 9319
SWIDTH 400 0
DWIDTH 24 0
BBX 24 24 0 -2
BITMAP
000000
470018
6607FC
3C3FC0
1801C0
3C01C0
6C01C0
C601C0
8601C0
0601C0
0601C4
0F3FFE
1B01C0
1301C0
2301C0
4301C0
8301C0
0301C0
0301C0
0701C0
0601C0
3E01C2
3C7FFF
180000
ENDCHAR
STARTCHAR C2468
ENCODING 9320
SWIDTH 400 0
DWIDTH 24 0
BBX 24 24 0 -2
BITMAP
000000
00000C
031FFC
FF01C0
1801C0
1801C0
1801C0
1801C0
1801C0
1A01C2
7F7FFF
1801C0
1801C0
1801C0
1801C0
1801C0
1801C0
1F01C0
FC01C0
F001C0
6001C0
0001C0
0001C0
000180
ENDCHAR
STARTCHAR C2469
ENCODING 9321
SWIDTH 400 0
DWIDTH 24 0
BBX 24 24 0 -2
BITMAP
000000
00000C
031FFC
FF01C0
1801C0
1801C0
1801C0
1801C0
1801C2
1A7FFF
7F01C0
1801C0
1801C0
1801C0
1801C0
1801C0
1801C0
1F01C0
FC01C0
F001C0
6001C0
000FC0
000780
000300
ENDCHAR
STARTCHAR C246a
ENCODING 9322
SWIDTH 400 0
DWIDTH 24 0
BBX 24 24 0 -2
BITMAP
000E00
000E00
030C00
FF0C00
181804
181FFE
181806
183006
183006
1A6006
7F4406
180706
180386
180186
1800C6
180006
180006
1F0006
FC000E
F0000C
60000C
0001FC
000078
000030
ENDCHAR
STARTCHAR C246b
ENCODING 9323
SWIDTH 400 0
DWIDTH 24 0
BBX 24 24 0 -2
BITMAP
000004
003807
033086
FF31E6
1831C6
1831C6
1831C6
1831C6
1831C6
1A31C6
7F31C6
1831C6
1831C6
1831C6
1831C6
1871C6
1871C6
1F61C6
FC61C6
F041C6
60C186
00C006
018006
030006
ENDCHAR
STARTCHAR C246c
ENCODING 9324
SWIDTH 400 0
DWIDTH 24 0
BBX 24 24 0 -2
BITMAP
000000
00000C
033FFE
FF0180
180180
180180
180180
180180
180180
1A0180
7F0180
180180
180180
180180
180180
180180
180180
1F0180
FC0180
F00180
600182
00FFFF
000000
000000
ENDCHAR
STARTCHAR C246d
ENCODING 9325
SWIDTH 400 0
DWIDTH 24 0
BBX 24 24 0 -2
BITMAP
000000
000006
003FFF
0300C0
FF80C0
DB80C0
DB80C0
DB80C0
DB80C0
DB80C0
DB80C0
FF80C0
DB80C0
DB80C0
DB80C0
DB80C0
DB80C0
FF80C0
C300C0
4000C0
0000C0
000FC0
0003C0
000180
ENDCHAR
STARTCHAR C246e
ENCODING 9326
SWIDTH 400 0
DWIDTH 24 0
BBX 24 24 0 -2
BITMAP
001800
001800
081860
0FFFF0
0C3870
0C1860
0C1860
0FFFE0
0C1860
0C1860
0C3860
0FFFE0
000006
FFFFFF
018000
018000
038060
03FFF0
000060
000060
0000E0
001FC0
000780
000300
ENDCHAR
STARTCHAR C246f
ENCODING 9327
SWIDTH 400 0
DWIDTH 24 0
BBX 24 24 0 -2
BITMAP
001800
000C00
180606
1FFFFF
1C0000
9C0000
DC0006
7DFFFE
7C0300
1C0300
1C0300
1C0300
1C0300
3C0300
FC0300
D80300
180300
180300
300300
300300
200300
603F00
401E00
000C00
ENDCHAR
STARTCHAR C2470
ENCODING 9328
SWIDTH 400 0
DWIDTH 24 0
BBX 24 24 0 -2
BITMAP
001800
000C00
180606
1FFFFF
1C0000
9CC000
DCE000
7CC000
7CC010
1CC038
1CC0E0
1CC3C0
1CCF00
3CF800
FCE000
D8C000
18C000
18C000
30C003
30C002
20C006
60FFFF
407FFE
003FF8
ENDCHAR
STARTCHAR C2471
ENCODING 9329
SWIDTH 400 0
DWIDTH 24 0
BBX 24 24 0 -2
BITMAP
007000
006000
08C060
0FFFF0
0C0070
0C0060
0C0060
0C0060
0FFFE0
0C0060
0C0060
0C0060
0FFFE0
0C1860
001800
001806
FFFFFF
001800
001800
001800
001800
001800
001800
001000
ENDCHAR
STARTCHAR C2472
ENCODING 9330
SWIDTH 400 0
DWIDTH 24 0
BBX 24 24 0 -2
BITMAP
200000
300038
183FF8
0A0E38
070E38
7F8E30
030E30
060E30
060E62
0C0C7F
1C0C67
1E0C07
3F0C07
3D1807
5D9807
9C1807
1C1807
1C3007
1C3006
1C6006
1C600E
1CC1FC
1C8078
190030
ENDCHAR
STARTCHAR C2473
ENCODING 9331
SWIDTH 400 0
DWIDTH 24 0
BBX 24 24 0 -2
BITMAP
000000
006700
FFE600
318600
318600
318600
318600
3F8600
318600
318600
318600
318600
3F8600
318600
318600
318600
318600
378601
FD8601
F18603
618603
0187FF
0183FF
0181FC
ENDCHAR
STARTCHAR C2474
ENCODING 9332
SWIDTH 400 0
DWIDTH 24 0
BBX 24 24 0 -2
BITMAP
020004
27000E
3F9FFF
330186
330186
330186
330186
3F3186
371986
331D86
330D86
330F86
330706
3F0306
3B0306
330306
230606
63060E
630C0C
63180C
C7101C
DF21F8
8640F0
048060
ENDCHAR
STARTCHAR C2475
ENCODING 9333
SWIDTH 400 0
DWIDTH 24 0
BBX 24 24 0 -2
BITMAP
000000
060060
07FFF0
060060
060060
060060
07FFE0
060060
000000
000020
07FFF0
060070
066060
063860
060E60
060660
060060
060F60
06F860
0DC060
0CC060
1807E0
3001E0
6000C0
ENDCHAR
STARTCHAR C2476
ENCODING 9334
SWIDTH 400 0
DWIDTH 24 0
BBX 24 24 0 -2
BITMAP
200700
338700
3F8600
338600
338E07
338FFF
339800
3F9000
37A000
338030
339FF8
338038
338060
3780C0
3F8180
6B8300
638600
638C00
639801
639801
C39803
DF1FFF
860FFF
0003FE
ENDCHAR
STARTCHAR C2477
ENCODING 9335
SWIDTH 400 0
DWIDTH 24 0
BBX 24 24 0 -2
BITMAP
020E00
270E00
3F8E00
330E00
330E00
330E10
337FF8
3F0E38
370E38
330E38
330E38
330E38
330F38
3F0DB8
3B0DB8
330DF8
2318B8
631838
631838
633039
C73039
DF603F
86C01F
05800E
ENDCHAR
STARTCHAR C2478
ENCODING 9336
SWIDTH 400 0
DWIDTH 24 0
BBX 24 24 0 -2
BITMAP
200000
33801C
3FC038
318070
3180C0
318380
318E00
3F9800
33800E
31801C
318038
318070
3381C0
378300
3D8E00
39B807
61800F
61801C
618038
618070
C180E0
DF8380
870E00
023800
ENDCHAR
STARTCHAR C2479
ENCODING 9337
SWIDTH 400 0
DWIDTH 24 0
BBX 24 24 0 -2
BITMAP
0700E0
0700E0
06E0C6
FFE7FF
0600C0
0600C0
000006
FFFFFF
001800
001800
001800
001C00
001F00
0019C0
0018E0
001860
001820
001800
001800
001800
001800
001800
001800
001000
ENDCHAR
STARTCHAR C247a
ENCODING 9338
SWIDTH 400 0
DWIDTH 24 0
BBX 24 24 0 -2
BITMAP
0700E0
0700E0
0640C2
FFE7FF
0700C0
0600C0
0600C0
000000
001C00
001800
001800
001800
001800
001830
1FFFF8
001800
001800
001800
001800
001800
001800
001806
FFFFFF
000000
ENDCHAR
STARTCHAR C247b
ENCODING 9339
SWIDTH 400 0
DWIDTH 24 0
BBX 24 24 0 -2
BITMAP
0700E0
0700E0
0660C2
FFE7FF
0600C0
0600C0
001800
001980
0018E0
001860
001824
7FFFFE
001800
001800
000C00
000C00
000C00
000600
000700
000381
0001C1
0000FB
00003F
00000F
ENDCHAR
STARTCHAR C247c
ENCODING 9340
SWIDTH 400 0
DWIDTH 24 0
BBX 24 24 0 -2
BITMAP
0700E0
0700E0
0660C2
FFE7FF
0600C0
0600C0
000020
000070
0FFFF8
000030
000030
07FFF0
060020
0C0000
0C0010
1FFFF8
18003C
000038
000038
000030
000070
000FE0
0003C0
000180
ENDCHAR
STARTCHAR C247d
ENCODING 9341
SWIDTH 400 0
DWIDTH 24 0
BBX 24 24 0 -2
BITMAP
0700E0
0700E0
0660C2
FFE7FF
0600C0
0600C0
000000
000020
1FFFF0
000030
000030
000030
000030
080030
1FFFF0
1C0020
1C0000
1C0000
1C0004
1C0004
1C000C
1FFFFC
0FFFFC
07FFF8
ENDCHAR
STARTCHAR C247e
ENCODING 9342
SWIDTH 400 0
DWIDTH 24 0
BBX 24 24 0 -2
BITMAP
0700E0
0700E0
0660C2
FFE7FF
0600C0
0600C0
000000
000040
07FFE0
0001E0
000300
001E00
001800
001800
001806
FFFFFF
001800
001800
001800
001800
001800
01F800
007800
003000
ENDCHAR
STARTCHAR C2521
ENCODING 9505
SWIDTH 400 0
DWIDTH 24 0
BBX 24 24 0 -2
BITMAP
0700E0
0700E0
0660C2
FFE7FF
0600C0
0600C0
000000
0001C0
003FE0
0FFC00
001800
001800
001800
003807
FFFFFF
001800
001800
001800
001800
001800
001800
001800
001800
001000
ENDCHAR
STARTCHAR C2522
ENCODING 9506
SWIDTH 400 0
DWIDTH 24 0
BBX 24 24 0 -2
BITMAP
0700E0
0700E0
0660C2
FFE7FF
0600C0
0600C0
000000
0101C0
03FFC0
0381C0
0381C0
0381C0
03B1C0
0399C0
038DC0
0387C0
0301C0
0301C0
0301C1
0601C1
0C01C3
1801FF
3000FF
60007E
ENDCHAR
STARTCHAR C2523
ENCODING 9507
SWIDTH 400 0
DWIDTH 24 0
BBX 24 24 0 -2
BITMAP
0700E0
0700E0
0660C2
FFE7FF
0600C0
0600C0
00E000
00E000
00C000
00C0C0
1FFFE0
00C0C0
00C0C0
00E0C0
00F8C0
00DCC0
00CCC0
0186C0
0380C1
0300C1
0600C3
0C00FF
18007F
60003E
ENDCHAR
STARTCHAR C2524
ENCODING 9508
SWIDTH 400 0
DWIDTH 24 0
BBX 24 24 0 -2
BITMAP
000380
000FC0
003E00
03F818
1F0E3C
038670
00C1C0
004300
001F00
007980
01C1C0
3E03E0
000E30
001870
00F0F8
07C1F8
1C0738
001E38
007838
03C030
3E0070
001FE0
0007C0
000180
ENDCHAR
STARTCHAR C2525
ENCODING 9509
SWIDTH 400 0
DWIDTH 24 0
BBX 24 24 0 -2
BITMAP
000804
000C0E
700FFF
380C06
1C0C06
000C06
000C06
000C06
0C0FFE
FE0C06
1C0C00
181C00
301800
3E1800
7F1800
463000
0C3000
0C6000
184000
388000
7F0000
E7FFFF
007FFC
001FF8
ENDCHAR
STARTCHAR C2526
ENCODING 9510
SWIDTH 400 0
DWIDTH 24 0
BBX 24 24 0 -2
BITMAP
0001C0
0001C0
700180
380180
1C0180
00798E
00718E
00718C
0C718C
FE718C
1C718C
18718C
30718C
3E718C
7F718C
46718C
0C718C
0C7FFC
18000C
380000
7F0000
E7FFFF
007FFC
001FF8
ENDCHAR
STARTCHAR C2527
ENCODING 9511
SWIDTH 400 0
DWIDTH 24 0
BBX 24 24 0 -2
BITMAP
0C0000
0601C7
0619FF
FFFDC6
0001CC
0001CC
1061D8
1FE1D0
1861D0
1861C8
1861C4
1861C6
1861C7
1861C3
1861C3
1861C3
3065C3
3079FF
3071DE
2061CC
6001C0
C001C0
8001C0
000180
ENDCHAR
STARTCHAR C2528
ENCODING 9512
SWIDTH 400 0
DWIDTH 24 0
BBX 24 24 0 -2
BITMAP
060000
0301C7
0389FF
7FFDC6
0E01CC
0601CC
0601D8
0601D0
0631D0
07F9C8
0631C4
0631C6
0631C7
0C31C3
0C31C3
0C31C3
0C31C3
1C31FF
1831DE
1071CC
3071C0
77E1C0
E3C1C0
818180
ENDCHAR
STARTCHAR C2529
ENCODING 9513
SWIDTH 400 0
DWIDTH 24 0
BBX 24 24 0 -2
BITMAP
070000
0701C7
0601FF
0601C6
0601CC
4619CC
FFFDD8
C619D0
C631D0
0621C8
0601C4
06C1C6
06C1C7
06C1C3
0CC1C3
0CC1C3
0CC1C3
1CC5FF
18DDDE
10F1CC
30E1C0
70C1C0
E001C0
800180
ENDCHAR
STARTCHAR C252a
ENCODING 9514
SWIDTH 400 0
DWIDTH 24 0
BBX 24 24 0 -2
BITMAP
038000
0381C7
0301FF
0301C6
0311CC
7FF9CC
0301D8
0301D0
0301D0
0301C8
0319C4
FFF9C6
0301C7
0601C3
0601C3
06C1C3
0661C3
0C31FF
0C39DE
1819CC
3819C0
7009C0
E001C0
800180
ENDCHAR
STARTCHAR C252b
ENCODING 9515
SWIDTH 400 0
DWIDTH 24 0
BBX 24 24 0 -2
BITMAP
000000
0021C7
7FF1FF
0001C6
0001CC
0001CC
0001D8
0009D0
FFFDD0
1CC1C8
1CC1C4
1CC1C6
1CC1C7
1CC1C3
1CC1C3
18C1C3
18C1C3
18CDFF
30F9DE
30E1CC
20C1C0
60C1C0
C001C0
800180
ENDCHAR
STARTCHAR C252c
ENCODING 9516
SWIDTH 400 0
DWIDTH 24 0
BBX 24 24 0 -2
BITMAP
018000
0881C7
1CC1FF
1CC1C6
1841CC
1861CC
1031D8
3031D0
2019D0
601FC8
600DC4
DFF1C6
8671C7
0671C3
0671C3
0C71C3
0C71C3
1C71FF
1871DE
1061CC
30E1C0
77C1C0
E381C0
830180
ENDCHAR
STARTCHAR C252d
ENCODING 9517
SWIDTH 400 0
DWIDTH 24 0
BBX 24 24 0 -2
BITMAP
000060
E67860
FF7060
E67060
E67060
E47060
EC7060
E87060
E87260
EC7F7E
E67060
E67060
E77060
E37060
E37060
E37060
E77060
FE7060
E67061
E07361
E07E63
E07C7F
E0707F
C0303E
ENDCHAR
STARTCHAR C252e
ENCODING 9518
SWIDTH 400 0
DWIDTH 24 0
BBX 24 24 0 -2
BITMAP
000000
E63007
FF3FFF
E63000
E63000
E4320C
EC33FE
E8330E
E8330C
EC330C
E6330C
E6330C
E7330C
E3330C
E3730C
E373FC
E76318
FE6300
E64301
E0C301
E0C303
E083FF
E183FF
C001FE
ENDCHAR
STARTCHAR C252f
ENCODING 9519
SWIDTH 400 0
DWIDTH 24 0
BBX 24 24 0 -2
BITMAP
0001C0
E601C0
FF01C0
E601C0
E601C0
E401C0
EC01C0
E831C0
E839C0
EC31C0
E631CC
E631FC
E731C0
E331C0
E331C0
E331C0
E731C0
FE31C0
E631C0
E031C0
E031C0
E031C6
E1FFFF
C00000
ENDCHAR
STARTCHAR C2530
ENCODING 9520
SWIDTH 400 0
DWIDTH 24 0
BBX 24 24 0 -2
BITMAP
000300
E60300
FF0600
E60E00
E60C00
E41C00
EC1810
E83008
E8300C
EC7FFE
E6FEE6
E67E66
E70E60
E30E60
E30E60
E30C60
E70C60
FE1C60
E61860
E01861
E03061
E0607F
E0C07F
C7003E
ENDCHAR
STARTCHAR C2531
ENCODING 9521
SWIDTH 400 0
DWIDTH 24 0
BBX 24 24 0 -2
BITMAP
00C300
00C300
00C300
30C318
3FFFFC
30C318
30C318
30C318
3FFFF8
30C300
00C300
40C30C
7FFFFE
60C30C
60C30C
60C30C
7FFFFC
61830C
018300
030300
070300
0E0300
1C0300
700200
ENDCHAR
STARTCHAR C2532
ENCODING 9522
SWIDTH 400 0
DWIDTH 24 0
BBX 24 24 0 -2
BITMAP
038600
038300
070302
067FFF
066007
0CC006
1CC024
1C0070
3C03F0
3C0F00
7C3700
5C0300
9C0300
1C070C
1C7FFC
1C0300
1C0300
1C0300
1C0301
1C0301
1C0303
1C03FF
1C03FF
1801FE
ENDCHAR
STARTCHAR C2533
ENCODING 9523
SWIDTH 400 0
DWIDTH 24 0
BBX 24 24 0 -2
BITMAP
038600
038300
070180
060186
06FFFF
0C0000
1C0C18
1C1C0C
3C1806
3C3007
7C6013
5CC838
9C0430
1C0430
1C0660
1C0260
1C03C0
1C01C0
1C01C0
1C03E0
1C063C
1C1C1F
1C700E
19C000
ENDCHAR
STARTCHAR C2534
ENCODING 9524
SWIDTH 400 0
DWIDTH 24 0
BBX 24 24 0 -2
BITMAP
038600
038300
070180
060180
060087
0CFFFF
1C0180
1C0300
3C0600
3C0C38
7C1838
5C3870
9C3EE0
1C03C0
1C038E
1C070C
1C0E18
1C1830
1CE060
1C00C0
1C03F8
1C070E
1C1C06
18F003
ENDCHAR
STARTCHAR C2535
ENCODING 9525
SWIDTH 400 0
DWIDTH 24 0
BBX 24 24 0 -2
BITMAP
0E0380
0E0380
0C0300
1C0300
180300
18060E
33E7FF
3004CC
700CC8
7008C0
F010C0
B000C0
3000C0
3041E0
37E1E0
3001A0
3001B0
300310
300318
30060C
30060E
300C0F
301807
30E000
ENDCHAR
STARTCHAR C2536
ENCODING 9526
SWIDTH 400 0
DWIDTH 24 0
BBX 24 24 0 -2
BITMAP
0C0007
0C0307
0DFF07
1CCE07
18CE77
18CE67
30CE67
30CE67
70CE67
70CE67
F0EF67
B3FF67
30CE67
30CE67
30CE67
30CE67
30CE67
30CE67
318E07
318E07
318E07
330E3F
320E1E
340C0C
ENDCHAR
STARTCHAR C2537
ENCODING 9527
SWIDTH 400 0
DWIDTH 24 0
BBX 24 24 0 -2
BITMAP
038380
038380
070304
06FFFE
060380
0C0300
1C7FFC
1C039C
3C030C
3C030C
7C7FFC
5C7308
9C6304
1C638E
1C7FFF
1C0306
1C0706
1C069E
1C0CCC
1C0C70
1C183C
1C301F
1C600E
1B8000
ENDCHAR
STARTCHAR C2538
ENCODING 9528
SWIDTH 400 0
DWIDTH 24 0
BBX 24 24 0 -2
BITMAP
0381C0
0381C0
070180
060180
060182
0CFFFF
1C0180
1C0180
3C0180
3C0180
7C0184
5C3FFE
9C0000
1C0000
1C200C
1C7FFE
1C700C
1C700C
1C700C
1C700C
1C700C
1C7FFC
1C700C
186000
ENDCHAR
STARTCHAR C2539
ENCODING 9529
SWIDTH 400 0
DWIDTH 24 0
BBX 24 24 0 -2
BITMAP
030000
03000C
077FFC
061838
061838
0C1838
1C1FF8
1C1838
3C1838
3C1838
7C1838
5C1FF8
9C1838
1C1838
1C1838
1C183A
1DFFFF
1C0038
1C0038
1C0038
1C0038
1C0038
1C0038
180030
ENDCHAR
STARTCHAR C253a
ENCODING 9530
SWIDTH 400 0
DWIDTH 24 0
BBX 24 24 0 -2
BITMAP
038300
038300
070300
060706
06FFFE
0C0E40
1C0C40
1C1820
3C3038
3C7FFF
7CC00F
5D8006
9F7FFC
1C1C00
1C1800
1C1818
1C3FFC
1C1018
1C0018
1C0038
1C0030
1C03F0
1C01E0
1800C0
ENDCHAR
STARTCHAR C253b
ENCODING 9531
SWIDTH 400 0
DWIDTH 24 0
BBX 24 24 0 -2
BITMAP
038000
038006
077FFE
060300
060600
0C0610
1C0C18
1C180C
3C3006
3C7FFF
7C7FC3
5C31C0
9C01C0
1C01C0
1C01C4
1C1FFE
1C01C0
1C01C0
1C01C0
1C01C0
1C01C0
1C01C2
1CFFFF
180000
ENDCHAR
STARTCHAR C253c
ENCODING 9532
SWIDTH 400 0
DWIDTH 24 0
BBX 24 24 0 -2
BITMAP
038000
03B038
073FFC
063018
063018
0C3018
1C3FF8
1C3018
3C3018
3C3018
7C3018
5C3FF8
9C3210
1C3200
1C330E
1C331C
1C31B0
1C30C0
1C30E0
1C3070
1C33BC
1C3E1F
1C380E
183000
ENDCHAR
STARTCHAR C253d
ENCODING 9533
SWIDTH 400 0
DWIDTH 24 0
BBX 24 24 0 -2
BITMAP
070060
070860
060E60
060C60
0C0C60
0C0C60
180C60
188C60
38EC60
78CC7E
78CFE0
D8CC60
18CC60
18CC60
18CC60
18CC60
18CC60
18CC60
18CC60
18CC61
18CFE1
1BFE7F
1BE07F
19803E
ENDCHAR
STARTCHAR C253e
ENCODING 9534
SWIDTH 400 0
DWIDTH 24 0
BBX 24 24 0 -2
BITMAP
030000
032007
077FFF
067007
067007
0C7017
1C7FFF
1C7007
3C7007
3C7037
7C77F7
5C7637
9C7637
1C7637
1C7637
1C77F7
1C7637
1C7627
1C7007
1C7007
1C7007
1C703F
1C700E
18600C
ENDCHAR
STARTCHAR C253f
ENCODING 9535
SWIDTH 400 0
DWIDTH 24 0
BBX 24 24 0 -2
BITMAP
038000
038006
077FFF
067007
067007
0C7007
1C7007
1C7267
3C73F7
3C7367
7C7367
5C7367
9C7367
1C7367
1C7367
1C73E7
1C7267
1C7007
1C7007
1C7007
1C7FFF
1C7006
1C2000
180000
ENDCHAR
STARTCHAR C2540
ENCODING 9536
SWIDTH 400 0
DWIDTH 24 0
BBX 24 24 0 -2
BITMAP
03B800
03B800
073000
063000
067007
0C7FFF
1C4007
1CC007
3CA0C7
3C3FE7
7C30C7
5C30C7
9C3FC7
1C30C7
1C30C7
1C30C7
1C3FC7
1C30C7
1C0006
1C0006
1C000E
1C00FC
1C0078
180030
ENDCHAR
STARTCHAR C2541
ENCODING 9537
SWIDTH 400 0
DWIDTH 24 0
BBX 24 24 0 -2
BITMAP
039C00
039C00
071870
061FF8
063060
0C3040
1C6086
1CFFFF
3C7000
3C7008
7C77FC
5C760C
9C760C
1C760C
1C760C
1C761C
1C66FC
1C6638
1C6611
1CC601
1CC603
1CC7FF
1C83FF
1901FE
ENDCHAR
STARTCHAR C2542
ENCODING 9538
SWIDTH 400 0
DWIDTH 24 0
BBX 24 24 0 -2
BITMAP
0381C0
0381C0
071980
061980
061980
0C318C
1C3FFE
1C6180
3C6180
3CC180
7C0180
5C0182
9CFFFF
1C0E60
1C0E60
1C0C60
1C0C60
1C1C60
1C1860
1C1861
1C3061
1C607F
1CC03F
1F001E
ENDCHAR
STARTCHAR C2543
ENCODING 9539
SWIDTH 400 0
DWIDTH 24 0
BBX 24 24 0 -2
BITMAP
038018
0381FC
073FFC
060180
060180
0C0180
1C0180
1C0187
3CFFFF
3C0180
7C0180
5C0180
9C0180
1C718C
1C7FFE
1C700C
1C700C
1C700C
1C700C
1C700C
1C700C
1C7FFC
1C700C
186000
ENDCHAR
STARTCHAR C2544
ENCODING 9540
SWIDTH 400 0
DWIDTH 24 0
BBX 24 24 0 -2
BITMAP
038200
038380
070300
060700
060600
0C0C00
1C080C
1CFFFE
3CCECE
3CCECC
7CCECC
5CCECC
9CCECC
1CCECC
1CCECC
1CCECC
1CCECC
1CCECC
1CCECC
1CCECC
1CCECC
1CCECC
1DFFFF
180000
ENDCHAR
STARTCHAR C2545
ENCODING 9541
SWIDTH 400 0
DWIDTH 24 0
BBX 24 24 0 -2
BITMAP
038300
038300
070210
063FF8
06301C
0C3018
1C3218
1C3318
3C3198
3C3098
7C3018
5DFFFF
9C3018
1C3018
1C3318
1C3398
1C7198
1C7018
1C6018
1C4018
1CC018
1CC1F8
1D8078
1B0030
ENDCHAR
STARTCHAR C2546
ENCODING 9542
SWIDTH 400 0
DWIDTH 24 0
BBX 24 24 0 -2
BITMAP
038E00
038E00
070C00
061810
063008
0C60FC
1CFFCE
1C7006
3C21C0
3C7180
7C7180
5C618C
9C7FFE
1C4180
1CC180
1C8180
1C0187
1CFFFF
1C0180
1C0180
1C0180
1C0180
1C0180
180180
ENDCHAR
STARTCHAR C2547
ENCODING 9543
SWIDTH 400 0
DWIDTH 24 0
BBX 24 24 0 -2
BITMAP
067000
067000
067000
067000
0C7606
0C767F
187F67
1BFE67
39F667
786667
786667
D86667
18CE67
18CE67
18CC67
198C67
18D867
187867
183867
183C67
186E7F
18C666
198060
1F0000
ENDCHAR
STARTCHAR C2548
ENCODING 9544
SWIDTH 400 0
DWIDTH 24 0
BBX 24 24 0 -2
BITMAP
038200
038300
070180
064186
067FFF
0CC007
1CCE04
1C8E08
3C0E00
3C0E20
7C0C30
5C0C32
9DFFFF
1C1860
1C1860
1C3860
1C3060
1C3EC0
1C07C0
1C03E0
1C0778
1C0E1C
1C380C
19E004
ENDCHAR
STARTCHAR C2549
ENCODING 9545
SWIDTH 400 0
DWIDTH 24 0
BBX 24 24 0 -2
BITMAP
038300
038180
0740C2
067FFF
066000
0C603C
1C63FC
1C6FC0
3C61C0
3C61C0
7C61C0
5C61C0
9C6FFE
1C61C0
1C61C0
1C61C0
1CC1C0
1CC1C0
1CC1C1
1CC1C1
1C81C3
1D81FF
1F00FF
1A007E
ENDCHAR
STARTCHAR C254a
ENCODING 9546
SWIDTH 400 0
DWIDTH 24 0
BBX 24 24 0 -2
BITMAP
060000
070007
06FFFF
060700
0C0600
0CCC0E
18FFFF
18CE66
38CE66
78CE66
78CE66
D8CE66
18CE66
18CE66
18CE66
18CE66
18CE66
18CE66
18CE66
18CE66
18CE66
18CC66
18C01E
18C00C
ENDCHAR
STARTCHAR C254b
ENCODING 9547
SWIDTH 400 0
DWIDTH 24 0
BBX 24 24 0 -2
BITMAP
039C00
039C00
071810
061FF8
06183C
0C3838
1C3C30
1C6460
3C6660
3CC3C0
7C81C0
5C03E0
9C0670
1C0C38
1C181F
1C7FFF
1CF81A
1D1818
1C1818
1C1818
1C1818
1C1FF8
1C1818
181000
ENDCHAR
STARTCHAR C254c
ENCODING 9548
SWIDTH 400 0
DWIDTH 24 0
BBX 24 24 0 -2
BITMAP
038300
038300
070380
060680
0606C0
0C0C60
1C0C70
1C1838
3C301C
3C600F
7CC037
5D9FF3
9F0000
1C0000
1C3018
1C3FFC
1C3018
1C3018
1C3018
1C3018
1C3018
1C3FF8
1C3018
183000
ENDCHAR
STARTCHAR C254d
ENCODING 9549
SWIDTH 400 0
DWIDTH 24 0
BBX 24 24 0 -2
BITMAP
200000
200007
7FFFFF
E01006
C01C0C
801800
001830
0C1870
061860
0718C0
031980
001902
FFFFFF
003800
001800
039900
0398C0
071870
061838
0C181C
18180E
301807
601802
801000
ENDCHAR
STARTCHAR C254e
ENCODING 9550
SWIDTH 400 0
DWIDTH 24 0
BBX 24 24 0 -2
BITMAP
000380
000380
603B00
303300
383300
18731C
027FFC
064300
04C300
0C8300
0C0300
180306
19FFFE
100C60
300C60
F00C60
F01860
601860
303860
303061
306061
30C07F
31807F
06003E
ENDCHAR
STARTCHAR C254f
ENCODING 9551
SWIDTH 400 0
DWIDTH 24 0
BBX 24 24 0 -2
BITMAP
000300
000300
600700
300F80
380CC0
181C60
021870
063038
04301C
0C600F
0CC037
19BFF3
1B0000
100000
306030
F07FF8
F07038
607038
307038
307038
307038
307FF8
307030
006000
ENDCHAR
STARTCHAR C2550
ENCODING 9552
SWIDTH 400 0
DWIDTH 24 0
BBX 24 24 0 -2
BITMAP
000007
000C07
7FFC06
1871C6
1871C6
1871C6
1871C6
1FF1C6
1871C6
1871C6
1871C6
1871C6
1FF1C6
1871C6
1871C6
1871C6
1871C6
19F186
FF7006
E07006
207006
00707E
00703C
006008
ENDCHAR
STARTCHAR C2551
ENCODING 9553
SWIDTH 400 0
DWIDTH 24 0
BBX 24 24 0 -2
BITMAP
038007
038007
030006
0301C6
0331C6
3FF1C6
0301C6
0301C6
0311C6
7FF9C6
0001C6
0201C6
0381C6
0301C6
0301C6
0311C6
7FF9C6
030186
030006
030006
030006
FFFC7E
FC003C
600008
ENDCHAR
STARTCHAR C2552
ENCODING 9554
SWIDTH 400 0
DWIDTH 24 0
BBX 24 24 0 -2
BITMAP
038007
038007
030806
FFFCE6
0EC0E6
0C60C6
0C30C6
1818C6
301CC6
6FECC6
C000C6
8000C6
7FF8C6
1C00C6
1820C6
1FF0C6
1038C6
0030C6
003006
007006
006006
07E07E
03C03C
018008
ENDCHAR
STARTCHAR C2553
ENCODING 9555
SWIDTH 400 0
DWIDTH 24 0
BBX 24 24 0 -2
BITMAP
0C0007
060007
426006
7FF1C6
6071C6
607186
607186
607186
7FF186
607186
607186
607186
7FF186
606186
600186
600186
618186
60C186
60E006
61F006
7F7006
78307E
20103C
000008
ENDCHAR
STARTCHAR C2554
ENCODING 9556
SWIDTH 400 0
DWIDTH 24 0
BBX 24 24 0 -2
BITMAP
19C000
19C038
198FFC
198198
198198
19A198
7FE198
198198
19899C
198D9E
19879B
19879B
198199
FFF318
198318
198318
318318
318318
318718
318618
618E38
C18FF0
8199E0
01B0C0
ENDCHAR
STARTCHAR C2555
ENCODING 9557
SWIDTH 400 0
DWIDTH 24 0
BBX 24 24 0 -2
BITMAP
0601C0
0601C0
0601C0
0601C0
0601C0
FFE1C0
0601C6
060FFF
0601C7
0601C7
0E41C7
7FC1C7
0001C7
000187
7FE187
60E187
60C307
60C306
60C306
60C60E
60C60C
7FCDFC
60D878
603030
ENDCHAR
STARTCHAR C2556
ENCODING 9558
SWIDTH 400 0
DWIDTH 24 0
BBX 24 24 0 -2
BITMAP
0E0000
0E0000
0C0000
1C0006
1FFFFE
180006
303806
303886
6631C6
433186
01B306
003246
1FFFE6
003006
013006
03B306
033186
0630C6
0C30EE
18306C
30300C
0033FC
0001F8
000070
ENDCHAR
STARTCHAR C2557
ENCODING 9559
SWIDTH 400 0
DWIDTH 24 0
BBX 24 24 0 -2
BITMAP
0E0000
0E0000
0C0000
1C0006
1FFFFE
190006
338006
330106
63FF86
463006
043006
083046
1FFFE6
003006
043086
0731E6
0631C6
0631C6
0631CE
0FFF8C
04000C
0003FC
0001F8
000070
ENDCHAR
STARTCHAR C2558
ENCODING 9560
SWIDTH 400 0
DWIDTH 24 0
BBX 24 24 0 -2
BITMAP
000004
60000E
7FFFFE
600C00
600C00
601E00
603B00
607180
60E0E0
61C078
6380FE
677FCE
7C0002
600040
60FFE0
60C060
60C060
60C060
60C060
60FFE0
608040
600006
7FFFFF
000000
ENDCHAR
STARTCHAR C2559
ENCODING 9561
SWIDTH 400 0
DWIDTH 24 0
BBX 24 24 0 -2
BITMAP
000000
300007
3FFFFF
30C000
30C000
30C008
30FFFC
318700
318300
330300
360300
340302
33FFFF
300700
300300
300300
61C30E
61830E
61830C
41830C
C1830C
81830C
81FFFC
00000C
ENDCHAR
STARTCHAR C255a
ENCODING 9562
SWIDTH 400 0
DWIDTH 24 0
BBX 24 24 0 -2
BITMAP
000000
300007
3FFFFF
300000
300008
33FFF8
301800
301800
303040
306060
30C030
3183F8
33FF1C
31860C
308600
300600
200610
61FFF8
600600
600600
C00600
C00604
80060E
07FFFE
ENDCHAR
STARTCHAR C255b
ENCODING 9563
SWIDTH 400 0
DWIDTH 24 0
BBX 24 24 0 -2
BITMAP
000000
00030C
00018E
C600CC
FF004C
E70F18
E60E18
E60E30
E60E30
E60E60
E60E60
E62EC0
E62ECC
E66F86
E66F83
E66F03
FECF03
E6CE05
C00E04
001E0C
0037FC
0063FC
00C000
038000
ENDCHAR
STARTCHAR C255c
ENCODING 9564
SWIDTH 400 0
DWIDTH 24 0
BBX 24 24 0 -2
BITMAP
0001C0
0001C0
000180
C60180
FF0180
E7018C
E63FFE
E60180
E60180
E60180
E60180
E60186
E6FFFF
E60300
E60600
E60600
FE0C00
E60C18
C6180C
00180E
0031FE
007F87
003803
001000
ENDCHAR
STARTCHAR C255d
ENCODING 9565
SWIDTH 400 0
DWIDTH 24 0
BBX 24 24 0 -2
BITMAP
001C1C
001C1C
001818
C61818
FF1818
E71818
E67FFF
E61C18
E61818
E61818
E61818
E61818
E61818
E61C18
E61FF8
E61818
FE1818
E61818
C61818
001818
001818
001FF8
001C18
001800
ENDCHAR
STARTCHAR C255e
ENCODING 9566
SWIDTH 400 0
DWIDTH 24 0
BBX 24 24 0 -2
BITMAP
001800
001800
001802
0C19FF
FE1818
E61A18
E6FF18
E61818
E61818
E61818
E61818
E61E18
E63818
E7F818
E7F818
E6D818
FE1818
E61818
C41818
001818
001818
00F9F8
007878
003030
ENDCHAR
STARTCHAR C255f
ENCODING 9567
SWIDTH 400 0
DWIDTH 24 0
BBX 24 24 0 -2
BITMAP
004000
006006
007FFE
C660E0
FF60E0
E760C0
E660C8
E664DC
E66FFC
E66ECC
E66ECC
E66ECC
E66ECC
E66ECC
E66ECC
E66ECC
FE6EDC
E66EF8
C664D0
0060C0
0060C0
006086
00FFFF
004000
ENDCHAR
STARTCHAR C2560
ENCODING 9568
SWIDTH 400 0
DWIDTH 24 0
BBX 24 24 0 -2
BITMAP
000660
000660
000660
C6066C
FF3FFE
E7066E
E6066C
E6066C
E6266C
E67FFC
E6766C
E66660
E66660
E666E7
E67FFF
E60E67
FE0C67
E60C67
C60C67
00187E
00306E
00606C
00C060
038040
ENDCHAR
STARTCHAR C2561
ENCODING 9569
SWIDTH 400 0
DWIDTH 24 0
BBX 24 24 0 -2
BITMAP
0001C0
0001C0
000180
C30180
FF0180
E30186
E301FF
E30180
E30180
E30180
E30180
E30180
E3618C
E37FFE
E3700E
E3700C
FF700C
E3700C
C2700C
00700C
00700C
007FFC
00700C
006000
ENDCHAR
STARTCHAR C2562
ENCODING 9570
SWIDTH 400 0
DWIDTH 24 0
BBX 24 24 0 -2
BITMAP
000000
003038
003FFC
C63018
FF3018
E73018
E63018
E63FF8
E60000
E60002
E6FFFF
E61800
E61800
E61808
E63FFC
E6100C
FE000C
E6001C
C60018
000018
000038
0007F0
0001E0
0000C0
ENDCHAR
STARTCHAR C2563
ENCODING 9571
SWIDTH 400 0
DWIDTH 24 0
BBX 24 24 0 -2
BITMAP
000000
003018
003FFC
C6301C
FF3018
E73018
E63018
E63018
E63018
E63FF8
E63018
E63018
E63018
E63018
E63018
E63018
FE3018
E63FF8
C63010
000000
000002
01FFFF
000000
000000
ENDCHAR
STARTCHAR C2564
ENCODING 9572
SWIDTH 400 0
DWIDTH 24 0
BBX 24 24 0 -2
BITMAP
0001C0
0001C0
000180
C63198
FF3FFC
E7318C
E6318C
E6318C
E6318C
E63FFC
E6319C
E6318C
E6318C
E6318C
E6318C
E6FFFF
FE300C
E6300C
C6300C
00300C
00300C
00307C
003038
003030
ENDCHAR
STARTCHAR C2565
ENCODING 9573
SWIDTH 400 0
DWIDTH 24 0
BBX 24 24 0 -2
BITMAP
000000
002006
007FFF
C67367
FF7367
E77367
E67367
E67367
E67367
E67367
E67367
E67667
E67677
E6767F
E67C3F
E67807
FE7007
E67007
C67007
007007
007007
007FFF
006002
000000
ENDCHAR
STARTCHAR C2566
ENCODING 9574
SWIDTH 400 0
DWIDTH 24 0
BBX 24 24 0 -2
BITMAP
001C00
001C00
001800
C61800
FF1807
E73FFF
E66007
E66007
E6C087
E69FC7
E618E7
E618C7
E618C7
E618C7
E618C7
E61FC7
FE18C7
E61007
400006
000006
00000E
0001FC
000078
000030
ENDCHAR
STARTCHAR C2567
ENCODING 9575
SWIDTH 400 0
DWIDTH 24 0
BBX 24 24 0 -2
BITMAP
000070
001070
001C60
0C3860
FE3060
E66062
E661FF
E6C477
E68E67
E78C67
E6CC67
E67867
E63867
E63067
E67867
E66C67
FEC6C7
E5FEC7
C1E7C6
00C186
00038E
00077C
000E38
001830
ENDCHAR
STARTCHAR C2568
ENCODING 9576
SWIDTH 400 0
DWIDTH 24 0
BBX 24 24 0 -2
BITMAP
000380
000380
000300
C60700
FF0600
E70C10
E60808
E6180C
E63006
E67FFF
E67E03
E63003
E60000
E6000C
E61FFE
E6180E
FE180C
E6180C
C6180C
00180C
00180C
001FFC
00180C
001000
ENDCHAR
STARTCHAR C2569
ENCODING 9577
SWIDTH 400 0
DWIDTH 24 0
BBX 24 24 0 -2
BITMAP
000000
00000C
003FFC
C60180
FF0188
E7218E
E6119C
E61998
E60DB0
E60DA0
E60DA0
E60182
E67FFF
E60180
E60180
E60180
FE0180
E60180
C60180
000180
000180
000180
000180
000180
ENDCHAR
STARTCHAR C256a
ENCODING 9578
SWIDTH 400 0
DWIDTH 24 0
BBX 24 24 0 -2
BITMAP
000008
00701C
007FFC
C6700C
FF700C
E7700C
E6700C
E67FFC
E67188
E67180
E67180
E67184
E67FFE
E671C0
E671C0
E670C0
FE70C0
E67060
C67060
007131
007639
007C1F
00700F
003007
ENDCHAR
STARTCHAR C256b
ENCODING 9579
SWIDTH 400 0
DWIDTH 24 0
BBX 24 24 0 -2
BITMAP
0001C0
0001C0
000180
C60180
FF0180
E7018E
E67FFE
E603C0
E603C0
E607C0
E607E0
E60DA0
E60DB0
E61998
E6199C
E6318E
FE618F
E6C187
419FFA
000180
000180
000180
000180
000180
ENDCHAR
STARTCHAR C256c
ENCODING 9580
SWIDTH 400 0
DWIDTH 24 0
BBX 24 24 0 -2
BITMAP
000380
000380
000300
C60302
FF7FFF
E706E0
E60EC0
E60CC0
E61CC4
E61FFE
E61CC6
E638C6
E678C6
E678C6
E6D8C6
E798C6
FE18C6
E618C6
C618C6
0018FE
0018DC
0018C8
0000C0
0000C0
ENDCHAR
STARTCHAR C256d
ENCODING 9581
SWIDTH 400 0
DWIDTH 24 0
BBX 24 24 0 -2
BITMAP
000008
00301C
003FFC
C6300C
FF320C
E7330C
E6318C
E6318C
E6300C
E6300C
E6FFFF
E6700C
E6720C
E6730C
E6718C
E6718C
FE708C
E6700C
407FFE
006018
000018
0003F8
0000F0
000060
ENDCHAR
STARTCHAR C256e
ENCODING 9582
SWIDTH 400 0
DWIDTH 24 0
BBX 24 24 0 -2
BITMAP
000078
0001FC
007FC0
C671C0
FF71C0
E771C0
E671C0
E671C0
E671C4
E67FFE
E671C0
E670C0
E670C0
E670C0
E67060
E67060
FE7060
E67030
C67331
007C19
00701F
00300F
000FE7
000002
ENDCHAR
STARTCHAR C256f
ENCODING 9583
SWIDTH 400 0
DWIDTH 24 0
BBX 24 24 0 -2
BITMAP
000300
000380
000380
C606C0
FF0640
E70C60
E60C30
E61838
E6301E
E6602F
E65FF7
E68000
E60000
E60038
E63FFC
E60030
FE0060
E61840
C60C80
000700
000380
0001C0
0000C0
0000C0
ENDCHAR
STARTCHAR C2570
ENCODING 9584
SWIDTH 400 0
DWIDTH 24 0
BBX 24 24 0 -2
BITMAP
000004
60000E
7FFFFF
600206
600F06
60FF06
61D806
601806
601846
67FFE6
607E06
607E06
60DA06
60DB06
619986
6199C6
6318E6
66187E
6C1836
681806
601806
600006
7FFFFE
600006
ENDCHAR
STARTCHAR C2571
ENCODING 9585
SWIDTH 400 0
DWIDTH 24 0
BBX 24 24 0 -2
BITMAP
000004
60000E
7FFFFF
601806
601806
603C06
603606
606306
60C186
6182F6
63FF76
660026
680106
61FF86
600386
600606
604806
603006
601C06
600C06
600006
600006
7FFFFE
600006
ENDCHAR
STARTCHAR C2572
ENCODING 9586
SWIDTH 400 0
DWIDTH 24 0
BBX 24 24 0 -2
BITMAP
100000
1C0007
183FFF
1800E0
1800C0
1801C0
1801C0
1A03C0
7E03E0
1807D0
1807C8
180DCC
1819CE
1811C6
1821C7
1A41C2
1E01C0
3801C0
F001C0
E001C0
0001C0
000082
007FFF
000000
ENDCHAR
STARTCHAR C2573
ENCODING 9587
SWIDTH 400 0
DWIDTH 24 0
BBX 24 24 0 -2
BITMAP
100660
1C0660
180660
18066C
183FFE
18066E
18066C
1A066C
7E266C
187FFC
18766C
186660
186660
1866E7
187FFF
1A0E67
1E0C67
380C67
F00C67
E0187E
00306E
00606C
00C060
038040
ENDCHAR
STARTCHAR C2574
ENCODING 9588
SWIDTH 400 0
DWIDTH 24 0
BBX 24 24 0 -2
BITMAP
100000
1C300C
183FFE
18300C
18300C
18300C
18300C
1A3FFC
7E300C
183200
183380
183300
183300
18330C
1833FE
1A7300
1E7300
386300
F06301
E0C301
00C303
00C3FF
0183FF
0001FE
ENDCHAR
STARTCHAR C2575
ENCODING 9589
SWIDTH 400 0
DWIDTH 24 0
BBX 24 24 0 -2
BITMAP
0001C0
1E01C0
1C01C0
1C01C0
1C01C0
1C01C2
1C01FF
1F81C0
7F81C0
1C01C0
1C01C0
1C01C0
1C31C6
1C3FFE
1C3006
1CB006
1FB006
3E3006
F83006
E03006
003006
003FFE
003006
003004
ENDCHAR
STARTCHAR C2576
ENCODING 9590
SWIDTH 400 0
DWIDTH 24 0
BBX 24 24 0 -2
BITMAP
1001C0
1C01C0
180180
180180
180180
18319C
183FFC
1A318C
7E318C
18318C
18318C
18318C
18318C
18318C
18FFFF
1A0300
1E0300
380320
F00618
E00E0C
001C0E
003807
007007
01C003
ENDCHAR
STARTCHAR C2577
ENCODING 9591
SWIDTH 400 0
DWIDTH 24 0
BBX 24 24 0 -2
BITMAP
100000
1C7007
187FFF
187007
187007
187007
187037
1A77F7
7E7637
187637
187637
187637
187637
187637
1877F7
1A7637
1E7607
387007
F07007
E07007
007007
00703F
00701E
00600C
ENDCHAR
STARTCHAR C2578
ENCODING 9592
SWIDTH 400 0
DWIDTH 24 0
BBX 24 24 0 -2
BITMAP
100000
1C3038
183FFC
183018
183218
183318
183198
1A3198
7E3018
18301A
18FFFF
187018
187218
187318
187198
1A7198
1E7098
387018
F07FFE
E06038
000038
0003F0
0001E0
000040
ENDCHAR
STARTCHAR C2579
ENCODING 9593
SWIDTH 400 0
DWIDTH 24 0
BBX 24 24 0 -2
BITMAP
100078
1C03FC
187FC0
180180
18018C
18418E
18218C
1A318C
7E1998
1819B0
180180
180182
18FFFF
180180
180180
1A0180
1E0180
380180
F00180
E00180
000180
001F80
000F00
000200
ENDCHAR
STARTCHAR C257a
ENCODING 9594
SWIDTH 400 0
DWIDTH 24 0
BBX 24 24 0 -2
BITMAP
000008
1E007C
1C13FC
1C1F00
1C1800
1C1800
1C1800
1F9800
7F9800
1C1FFE
1C1870
1C1860
1C1860
1C1860
1C1860
1C9860
1F9860
3E1860
F81860
E01860
001860
001862
01FFFF
000000
ENDCHAR
STARTCHAR C257b
ENCODING 9595
SWIDTH 400 0
DWIDTH 24 0
BBX 24 24 0 -2
BITMAP
000078
1E01FC
1C3FC0
1C31C0
1C31C0
1C31C0
1C31C0
1FB1C0
7FB1C4
1C3FFE
1C31C0
1C30C0
1C30C0
1C30C0
1C3060
1CB060
1FB060
3E3030
F83131
E03719
003C1F
00300F
0007E7
000002
ENDCHAR
STARTCHAR C257c
ENCODING 9596
SWIDTH 400 0
DWIDTH 24 0
BBX 24 24 0 -2
BITMAP
100070
1C1070
181C60
183860
183060
186062
1861FF
1AC477
7E8E67
198C67
18CC67
187867
183867
183067
187867
1A6C67
1EC6C7
39FEC7
F1E7C6
E0C186
00038E
00077C
000E38
001830
ENDCHAR
STARTCHAR C257d
ENCODING 9597
SWIDTH 400 0
DWIDTH 24 0
BBX 24 24 0 -2
BITMAP
001800
001800
001800
001830
1FFFF8
001800
001800
003807
FFFFFF
018300
018300
038380
0303FE
0611FE
1C1C00
301800
001800
001830
1FFFF8
001800
001800
001800
003807
FFFFFF
ENDCHAR
STARTCHAR C257e
ENCODING 9598
SWIDTH 400 0
DWIDTH 24 0
BBX 24 24 0 -2
BITMAP
1001C0
1C01C0
18018C
18218E
18318C
181998
181990
1A0980
7E0184
183FFE
180180
180180
180180
180180
180186
1AFFFF
1E0180
380180
F00180
E00180
000180
000180
000180
000180
ENDCHAR
STARTCHAR C2621
ENCODING 9761
SWIDTH 400 0
DWIDTH 24 0
BBX 24 24 0 -2
BITMAP
100200
1C0300
180180
182186
183FFF
186007
18C004
1AC008
7E1C00
181C00
181800
181810
181838
1818F0
181BC0
1A1E00
1E1800
381800
F01802
E01802
001806
001FFE
000FFE
0007FC
ENDCHAR
STARTCHAR C2622
ENCODING 9762
SWIDTH 400 0
DWIDTH 24 0
BBX 24 24 0 -2
BITMAP
100300
1C0380
180380
1806C0
180640
180C60
180C30
1A1838
7E301E
18602F
185FF7
188000
180000
180038
183FFC
1A0030
1E0060
381840
F00C80
E00700
000380
0001C0
0000C0
0000C0
ENDCHAR
STARTCHAR C2623
ENCODING 9763
SWIDTH 400 0
DWIDTH 24 0
BBX 24 24 0 -2
BITMAP
001800
001800
001820
0FFFF0
003800
001800
001806
FFFFFF
018300
038300
030380
06C1FC
1CC0FC
318000
0DFFC0
070180
078180
0CC300
187E00
003C00
003F00
00E3FC
03807E
3C003C
ENDCHAR
STARTCHAR C2624
ENCODING 9764
SWIDTH 400 0
DWIDTH 24 0
BBX 24 24 0 -2
BITMAP
003000
003000
00600C
7FFFFE
018100
0300C0
060078
0C003F
38E00F
E7E002
1C0218
1863FC
186318
186318
186318
186318
18E318
1F6318
1CC318
18C3F8
018370
030320
060300
1C0200
ENDCHAR
STARTCHAR C2625
ENCODING 9765
SWIDTH 400 0
DWIDTH 24 0
BBX 24 24 0 -2
BITMAP
000200
380300
380180
3000C0
320084
333FFE
FF81C0
FB01C0
3301C0
3301C0
3301C0
3301C0
7301C0
661FFC
6601C0
E601C0
3C01C0
1E01C0
1F01C0
3301C0
2181C0
4001C2
80FFFF
000000
ENDCHAR
STARTCHAR C2626
ENCODING 9766
SWIDTH 400 0
DWIDTH 24 0
BBX 24 24 0 -2
BITMAP
0001C0
3801C0
3801C0
3001C0
3201C2
337FFF
FF81C0
FB01C0
3301C0
3301C0
3301CC
331FFC
7301C0
6603E0
6603E0
E607F0
3C0DD8
1E1DDC
1F39CE
3371CF
20E1C7
41C1C2
8001C0
000180
ENDCHAR
STARTCHAR C2627
ENCODING 9767
SWIDTH 400 0
DWIDTH 24 0
BBX 24 24 0 -2
BITMAP
000E0C
380E0C
380C0C
300C0C
320C0C
330C0C
FFBFFF
FB0C1C
330C0C
330C0C
330C0C
330C0C
730C0C
660C1C
660FFC
E60C0C
3C0C0C
1E0C0C
1F0C0C
330C0C
218C0C
400FFC
800C1C
000C08
ENDCHAR
STARTCHAR C2628
ENCODING 9768
SWIDTH 400 0
DWIDTH 24 0
BBX 24 24 0 -2
BITMAP
0001C0
3801C0
3801C0
3001C0
3201C0
3319CC
FF9FFE
FB19CC
3319CC
3319CC
3319CC
3319CC
7319CC
6619CC
667FFF
E60180
3C0180
1E0310
1F0318
33060C
218C06
401807
803003
00C003
ENDCHAR
STARTCHAR C2629
ENCODING 9769
SWIDTH 400 0
DWIDTH 24 0
BBX 24 24 0 -2
BITMAP
000000
381008
381FFC
30180C
32180C
33180C
FF980C
FB180C
33180C
331FFC
33181C
33180C
73180C
66180C
66180C
E6180C
3C181C
1E1FFC
1F1808
330000
218002
407FFF
800000
000000
ENDCHAR
STARTCHAR C262a
ENCODING 9770
SWIDTH 400 0
DWIDTH 24 0
BBX 24 24 0 -2
BITMAP
0001C0
3801C0
3801C0
3011CC
321FFE
3319CE
FF99CC
FB19CC
3319CC
331FFC
3319CC
3319CC
7319CC
6619CC
6619CC
E6FFFF
3C180C
1E180C
1F180C
33180C
21980C
40187C
80183C
001018
ENDCHAR
STARTCHAR C262b
ENCODING 9771
SWIDTH 400 0
DWIDTH 24 0
BBX 24 24 0 -2
BITMAP
000E00
380E00
380C00
301800
321C07
331FFF
FFB007
FB2007
336087
335FC7
331CE7
3318C7
7318C7
6618C7
6618C7
E61FC7
3C1CC7
1E1807
1F0006
330006
21800E
4000FC
800078
000030
ENDCHAR
STARTCHAR C262c
ENCODING 9772
SWIDTH 400 0
DWIDTH 24 0
BBX 24 24 0 -2
BITMAP
000200
380100
380180
3000C0
320087
337FFF
FF8180
FB0300
330300
330638
330C38
331870
731C60
660EE0
6603C0
E60180
3C0300
1E0610
1F0C08
33180C
21B1FE
407F87
803803
001000
ENDCHAR
STARTCHAR C262d
ENCODING 9773
SWIDTH 400 0
DWIDTH 24 0
BBX 24 24 0 -2
BITMAP
000000
380104
3800C7
300066
32006C
33070C
FF871C
FB0618
330638
330630
330660
331660
7336EC
6636C6
6637C3
E67783
3C6701
1E6705
1F0F04
330F0C
219BFC
4033FC
806000
018000
ENDCHAR
STARTCHAR C262e
ENCODING 9774
SWIDTH 400 0
DWIDTH 24 0
BBX 24 24 0 -2
BITMAP
000000
380004
383FFE
3000C0
3200C0
3300C0
FF80C0
FB00C0
3318C0
331CC0
3318C0
3318FE
7318C0
6618C0
6618C0
E618C0
3C18C0
1E18C0
1F18C0
3318C0
2198C0
4018C2
80FFFF
000000
ENDCHAR
STARTCHAR C262f
ENCODING 9775
SWIDTH 400 0
DWIDTH 24 0
BBX 24 24 0 -2
BITMAP
000000
380006
387FFE
301800
321800
331800
FF9800
FB1808
331FFC
33180C
33180C
33180C
73180C
66180C
66180C
E61FFC
3C1808
1E1800
1F1800
331800
219800
401806
80FFFF
000000
ENDCHAR
STARTCHAR C2630
ENCODING 9776
SWIDTH 400 0
DWIDTH 24 0
BBX 24 24 0 -2
BITMAP
000000
380007
383FFF
300307
320307
330307
FF8307
FB0307
330607
330E06
330CFC
331838
733010
66C006
661FFF
E61806
3C1806
1E1806
1F1806
331806
219806
401FFE
801C06
001804
ENDCHAR
STARTCHAR C2631
ENCODING 9777
SWIDTH 400 0
DWIDTH 24 0
BBX 24 24 0 -2
BITMAP
0000E0
3800E0
3800C0
3000C0
3210C6
331FFF
FF98C7
FB18C7
3318C7
3318C7
331FFF
3318C7
7318C7
6618C7
6618C7
E61FFF
3C18C2
1E10C0
1F00C0
3300C0
2180C0
4000C0
8000C0
0000C0
ENDCHAR
STARTCHAR C2632
ENCODING 9778
SWIDTH 400 0
DWIDTH 24 0
BBX 24 24 0 -2
BITMAP
000038
3800FC
3807E0
301DC0
3201C0
3301C0
FF81C0
FB01C6
333FFE
3301C0
3303C0
3303E0
7307E0
6607F0
660FF8
E60DD8
3C19CC
1E11CF
1F21C7
3341C2
2001C0
4001C0
8001C0
000180
ENDCHAR
STARTCHAR C2633
ENCODING 9779
SWIDTH 400 0
DWIDTH 24 0
BBX 24 24 0 -2
BITMAP
000180
380380
3803C0
300340
320660
330620
FF8C30
FB1818
33181E
33302F
336FF7
33C000
730008
66001C
661FFC
E60038
3C0030
1E0860
1F06C0
330380
218180
4000C0
8000E0
000060
ENDCHAR
STARTCHAR C2634
ENCODING 9780
SWIDTH 400 0
DWIDTH 24 0
BBX 24 24 0 -2
BITMAP
0E0000
0E0000
0CEC1C
1FFFFC
186E0C
30EE0C
7CCE1C
67CEFC
C38E38
030E13
060E02
0C0FFE
1887FE
30E080
C0C1C0
01C1C0
FFFFFF
030180
030300
07C600
007F00
007BE0
03C078
7F0038
ENDCHAR
STARTCHAR C2635
ENCODING 9781
SWIDTH 400 0
DWIDTH 24 0
BBX 24 24 0 -2
BITMAP
0E0070
0E0070
1C0062
1CFFFF
3C0070
3C2060
5C1860
9C1860
1C0860
1C0060
1C07E0
1C01C0
088080
00E000
00C1C0
01C1C6
FFFFFF
030180
030300
07C600
007F00
007BE0
03C078
7F0038
ENDCHAR
STARTCHAR C2636
ENCODING 9782
SWIDTH 400 0
DWIDTH 24 0
BBX 24 24 0 -2
BITMAP
008E00
01CE00
7FCE00
018C06
030FFE
0E1806
0C1806
0C30C6
0C2FE6
0C0CE6
0DCCC6
1F0CC6
FC0CC6
EC0CC6
0C0FC6
0C0C06
0C0CFC
0C0C38
0C0C11
0C0C01
0C0C03
7C0FFF
3C0FFF
1803FE
ENDCHAR
STARTCHAR C2637
ENCODING 9783
SWIDTH 400 0
DWIDTH 24 0
BBX 24 24 0 -2
BITMAP
060000
060008
064FFC
0FF21C
7E6218
7C6318
18C330
38C1E0
1F80E0
03E1F8
06633F
1C360F
701802
003380
03FFC0
000F00
001800
00180E
7FFFFE
001800
001800
00F800
007800
003000
ENDCHAR
STARTCHAR C2638
ENCODING 9784
SWIDTH 400 0
DWIDTH 24 0
BBX 24 24 0 -2
BITMAP
003000
001800
201802
3FFFFF
600007
E02006
C0300C
001840
000C70
01CCE0
01C0C0
018180
018300
018300
118608
118C0C
119806
31B007
31E027
71C023
63C063
47FFE1
1C7FE0
701FC0
ENDCHAR
STARTCHAR C2639
ENCODING 9785
SWIDTH 400 0
DWIDTH 24 0
BBX 24 24 0 -2
BITMAP
003000
001800
201802
3FFFFF
600007
E00006
C0000C
000000
000006
7FFFFE
00C000
00C000
01C000
018030
03FFF8
038038
078038
0F8038
1B8038
338038
E38038
03FFF8
038030
030000
ENDCHAR
STARTCHAR C263a
ENCODING 9786
SWIDTH 400 0
DWIDTH 24 0
BBX 24 24 0 -2
BITMAP
200008
30001C
3FFFFC
30000C
30000C
3FFFFC
30000C
301800
300C00
31060C
31FFFE
33000C
370218
360110
307980
7070C0
606040
606060
60C070
C0C038
C1801C
83000F
860006
1C0000
ENDCHAR
STARTCHAR C263b
ENCODING 9787
SWIDTH 400 0
DWIDTH 24 0
BBX 24 24 0 -2
BITMAP
200008
30001C
3FFFFC
30000C
30000C
3FFFFC
300008
300000
320010
33FFF8
330E1C
330E18
330E18
330E18
330E18
73FFF8
630E18
630E18
630E18
C30E18
C30E18
83FFF8
830018
030000
ENDCHAR
STARTCHAR C263c
ENCODING 9788
SWIDTH 400 0
DWIDTH 24 0
BBX 24 24 0 -2
BITMAP
100300
1C0180
1801C0
1810C6
183FFF
993007
DBE004
9B8008
9B8E00
9B8C00
9B8C00
9B8C08
9B8C3C
9B8C78
9B8FC0
9B8F00
9B8C00
9B8C00
FF8C01
010C03
000C02
000FFE
000FFE
0003FC
ENDCHAR
STARTCHAR C263d
ENCODING 9789
SWIDTH 400 0
DWIDTH 24 0
BBX 24 24 0 -2
BITMAP
100300
1C0180
1811C2
181FFF
181007
993006
DBE0CC
9B8040
9B8040
9B8660
9B8660
9B8620
9B8630
9B8630
9B8E30
9B8C18
9B8C18
9B8C1C
FF980C
01180C
003006
002007
004003
008000
ENDCHAR
STARTCHAR C263e
ENCODING 9790
SWIDTH 400 0
DWIDTH 24 0
BBX 24 24 0 -2
BITMAP
100000
1C0006
183FFE
181800
181800
991800
DB9800
9B9808
9B9FFC
9B980C
9B980C
9B980C
9B980C
9B980C
9B980C
9B9FFC
9B9808
9B9800
FF9800
011800
001800
001806
007FFF
000000
ENDCHAR
STARTCHAR C263f
ENCODING 9791
SWIDTH 400 0
DWIDTH 24 0
BBX 24 24 0 -2
BITMAP
1001C0
1C01C0
1801C0
1801C0
1801C0
9901C0
DB81C2
9BBFFF
9B81C0
9B81C0
9B81C0
9B81C0
9B91C0
9B99CC
9B9FFE
9B980C
9B980C
9B980C
FF980C
01180C
00180C
001FFC
00180C
001000
ENDCHAR
STARTCHAR C2640
ENCODING 9792
SWIDTH 400 0
DWIDTH 24 0
BBX 24 24 0 -2
BITMAP
100000
1C0007
183FFF
1800E0
1800C0
9901C0
DB81C0
9B83C0
9B83E0
9B87D0
9B87C8
9B8DCC
9B99CE
9B91C6
9BA1C7
9BC1C2
9B81C0
9B81C0
FF81C0
0101C0
0001C0
000082
007FFF
000000
ENDCHAR
STARTCHAR C2641
ENCODING 9793
SWIDTH 400 0
DWIDTH 24 0
BBX 24 24 0 -2
BITMAP
100000
1C1818
181FFC
18181C
181818
991818
DB9818
9B9818
9B9818
9B9FF8
9B9818
9B9818
9B9818
9B9818
9B9818
9B9FF8
9B9C18
9B9818
FF9818
011818
001818
001818
00FFFF
000000
ENDCHAR
STARTCHAR C2642
ENCODING 9794
SWIDTH 400 0
DWIDTH 24 0
BBX 24 24 0 -2
BITMAP
100004
1C300E
183FFF
1831C6
1831C6
9931C6
DBB1C6
9BB1C6
9BBFFE
9BB1C6
9BB1C6
9BB1C6
9BB1C6
9BB1C6
9BBFFE
9BB1C4
9B81C0
9B81C0
FF81C0
0101C0
0001C0
0001C0
0001C0
000180
ENDCHAR
STARTCHAR C2643
ENCODING 9795
SWIDTH 400 0
DWIDTH 24 0
BBX 24 24 0 -2
BITMAP
1001C0
1C01C0
1801C0
1801C0
1801C0
9919CC
DB9FFE
9B99CC
9B99CC
9B99CC
9B99CC
9B99CC
9B99CC
9B99CC
9BFFFF
9B8180
9B8180
9B8310
FF8318
01060C
000C06
001807
003003
00C003
ENDCHAR
STARTCHAR C2644
ENCODING 9796
SWIDTH 400 0
DWIDTH 24 0
BBX 24 24 0 -2
BITMAP
100E00
1C0E00
180E00
180C00
180C07
991FFF
DB9807
9BB007
9BA047
9B8FE7
9B8CE7
9B8C67
9B8C67
9B8C67
9B8C67
9B8FE7
9B8CE7
9B8C47
FF8006
010006
00000E
0000FC
000078
000030
ENDCHAR
STARTCHAR C2645
ENCODING 9797
SWIDTH 400 0
DWIDTH 24 0
BBX 24 24 0 -2
BITMAP
100180
1C0380
1803C0
180340
180660
990620
DB8C30
9B9818
9B981E
9BB02F
9BEFF7
9BC000
9B8008
9B801C
9B9FFC
9B8038
9B8030
9B8860
FF86C0
010380
000180
0000C0
0000E0
000060
ENDCHAR
STARTCHAR C2646
ENCODING 9798
SWIDTH 400 0
DWIDTH 24 0
BBX 24 24 0 -2
BITMAP
001800
301818
38181C
301818
383818
3FFFF8
000000
000006
FFFFFF
000060
000060
0C3060
0FF860
0C3060
0C3060
0C3060
0FF060
0C3060
080060
000060
000060
000FE0
0003C0
000180
ENDCHAR
STARTCHAR C2647
ENCODING 9799
SWIDTH 400 0
DWIDTH 24 0
BBX 24 24 0 -2
BITMAP
001800
301818
38181C
301818
383818
3FFFF8
00C310
00C300
00C318
3FFFFC
00C318
00C318
1FFFF8
19C700
38C300
30C306
3FFFFE
018306
018306
01830E
03037C
060318
0C0300
300200
ENDCHAR
STARTCHAR C2648
ENCODING 9800
SWIDTH 400 0
DWIDTH 24 0
BBX 24 24 0 -2
BITMAP
001800
301818
38181C
301818
383818
3FFFF8
000000
000038
3FFFF8
00C038
00C038
018038
018030
0307E0
0601C0
1C0080
300030
0FFFF8
0C0030
0C0030
0C0030
0C0030
0FFFF0
0C0030
ENDCHAR
STARTCHAR C2649
ENCODING 9801
SWIDTH 400 0
DWIDTH 24 0
BBX 24 24 0 -2
BITMAP
001800
301818
38181C
301818
383818
3FFFF8
040010
070000
060004
0FFFFE
0C6000
1C6000
186000
306018
607FFC
406000
006000
006010
007FF8
006000
006000
006000
006000
006000
ENDCHAR
STARTCHAR C264a
ENCODING 9802
SWIDTH 400 0
DWIDTH 24 0
BBX 24 24 0 -2
BITMAP
1000E0
1C00E0
1800C0
1800C0
1810C6
991FFF
DB98C7
9B98C4
9B98C0
9B98C0
9B98CC
9B9FFE
9B9A0E
9B9A0C
9B9B18
9BB118
9BB1B0
9BB0F0
FFF0E0
0160F0
0061DC
00C38F
008E07
003800
ENDCHAR
STARTCHAR C264b
ENCODING 9803
SWIDTH 400 0
DWIDTH 24 0
BBX 24 24 0 -2
BITMAP
1001C0
1C01C0
180180
180300
181204
991FFE
DB9806
9B9806
9B9806
9B9806
9B9806
9B9806
9B9806
9B9FFE
9B9806
9B9806
9B9806
9B9806
FF9806
011806
001806
001FFE
001806
001004
ENDCHAR
STARTCHAR C264c
ENCODING 9804
SWIDTH 400 0
DWIDTH 24 0
BBX 24 24 0 -2
BITMAP
000070
381070
381C60
303860
303060
B66062
F661FF
B6C477
B68E67
B78C67
B6CC67
B67867
B63867
B63067
B67867
B66C67
B6C6C7
B7FEC7
FFE7C6
06C186
00038E
00077C
000E38
001830
ENDCHAR
STARTCHAR C264d
ENCODING 9805
SWIDTH 400 0
DWIDTH 24 0
BBX 24 24 0 -2
BITMAP
001800
301818
38181C
301818
301818
301818
3FFFF8
002018
003000
001808
00181C
3FFFFC
000000
0400E0
0600C0
0300C0
030180
018180
018180
00C300
00C300
00C200
006607
FFFFFF
ENDCHAR
STARTCHAR C264e
ENCODING 9806
SWIDTH 400 0
DWIDTH 24 0
BBX 24 24 0 -2
BITMAP
1C0E00
1C0E00
1C0E30
1C0E18
1C0E18
FFCE0A
DDFFFF
DD8C00
DD8C00
DD8C0C
DD8E0C
DD9D0C
DD991C
DD9918
DD9998
DF98F0
DF98F0
DF3060
1C30F0
1C61D8
1C639E
1C470F
1C8E07
183800
ENDCHAR
STARTCHAR C264f
ENCODING 9807
SWIDTH 400 0
DWIDTH 24 0
BBX 24 24 0 -2
BITMAP
1C00E0
1C00E0
1C00C0
1C00C0
1C10C6
FFDFFF
DDD8C7
DD98C4
DD98C0
DD98C0
DD98CC
DD9FFE
DD9A0E
DD9A0C
DD9B18
DFB118
DFB1B0
DF30F0
1C70E0
1C60F0
1C61DC
1CC38F
1C8E07
183800
ENDCHAR
STARTCHAR C2650
ENCODING 9808
SWIDTH 400 0
DWIDTH 24 0
BBX 24 24 0 -2
BITMAP
1C00E0
1C00E0
1C08C0
1C0CC0
1C0CC0
FFCCCC
DDDFFE
DD98C0
DD90C0
DDB0C0
DDE0C0
DDC0C2
DDBFFF
DD81C0
DD81E0
DF81E0
DF83A0
DF0330
1C0718
1C061C
1C0C0E
1C180F
1C3007
18C000
ENDCHAR
STARTCHAR C2651
ENCODING 9809
SWIDTH 400 0
DWIDTH 24 0
BBX 24 24 0 -2
BITMAP
020000
070007
FF9FFF
030307
030307
030307
030307
7F0307
630607
600E7E
600C3C
E11808
FFB000
C3A006
039FFF
039806
039806
039806
031806
031806
061806
7E1FFE
3C1C06
181804
ENDCHAR
STARTCHAR C2652
ENCODING 9810
SWIDTH 400 0
DWIDTH 24 0
BBX 24 24 0 -2
BITMAP
0201C0
0701C0
FF9DCE
0319CE
0319CC
0319CC
0319CC
7F3FFC
6311C0
6001C0
6001DC
E11FFC
FF8C18
C38418
038630
038230
038360
0381C0
0301C0
030360
06063C
7E0C1F
3C180E
18E000
ENDCHAR
STARTCHAR C2653
ENCODING 9811
SWIDTH 400 0
DWIDTH 24 0
BBX 24 24 0 -2
BITMAP
000E0C
060E0C
FF0C0C
06180C
06180C
06180C
06380C
7E37FF
66300C
60700C
60730C
E0F18C
FFB1CC
C630CC
0630CC
06300C
06300C
06300C
06300C
06300C
0C300C
FC30FC
383078
303030
ENDCHAR
STARTCHAR C2654
ENCODING 9812
SWIDTH 400 0
DWIDTH 24 0
BBX 24 24 0 -2
BITMAP
020038
0700FC
FF9FC0
0318C0
0318C0
0318C0
0318C0
7F18C0
6318C0
601FFE
6018C0
E118E0
FF9860
C39860
039860
039860
039830
039830
031919
031B19
061C0F
7E180F
3C07F7
180000
ENDCHAR
STARTCHAR C2655
ENCODING 9813
SWIDTH 400 0
DWIDTH 24 0
BBX 24 24 0 -2
BITMAP
038000
038000
0380C0
03FFE0
0301C0
0601C0
07FF80
060180
000302
FFFFFF
001C00
001820
0E1870
0398E0
019B80
009E00
001C00
00D980
0718E0
1C1838
F0181C
60F80C
007800
003000
ENDCHAR
STARTCHAR C2656
ENCODING 9814
SWIDTH 400 0
DWIDTH 24 0
BBX 24 24 0 -2
BITMAP
030000
071018
061FFC
0E181C
1C1818
381818
731818
071818
061818
0E1FF8
1C1818
1C1818
3C1818
3C1818
5C1818
9C1FF8
1C1818
1C1818
1C1818
1C1818
1C1818
1C1818
1CFFFF
180000
ENDCHAR
STARTCHAR C2657
ENCODING 9815
SWIDTH 400 0
DWIDTH 24 0
BBX 24 24 0 -2
BITMAP
030300
070380
060380
0E06C0
1C0640
380C60
730C70
071838
06301C
0E604F
1C5FE7
1C8003
3D0000
3C0038
5C3FFC
9C0030
1C0060
1C1840
1C0C80
1C0700
1C0380
1C01C0
1C00C0
1800C0
ENDCHAR
STARTCHAR C2658
ENCODING 9816
SWIDTH 400 0
DWIDTH 24 0
BBX 24 24 0 -2
BITMAP
030078
0701FC
063FC0
0E31C0
1C31C0
3831C0
7331C0
0731C0
0631C4
0E3FFE
1C31C0
1C30C0
3C30C0
3C30C0
5C3060
9C3060
1C3060
1C3030
1C3131
1C3719
1C3C1F
1C300F
1C07E7
180002
ENDCHAR
STARTCHAR C2659
ENCODING 9817
SWIDTH 400 0
DWIDTH 24 0
BBX 24 24 0 -2
BITMAP
003000
001800
00180E
7FFFFE
030180
018380
00E700
007E00
003C00
007E00
00C380
0181F0
07007F
1C001E
F01804
038C00
038E00
230600
23002C
630066
630047
C3FFC3
81FFE1
007FC0
ENDCHAR
STARTCHAR C265a
ENCODING 9818
SWIDTH 400 0
DWIDTH 24 0
BBX 24 24 0 -2
BITMAP
1C0000
1C0008
1FFFFC
180000
300000
3FFFF0
300000
600000
5FFFF0
800070
000060
00C060
006060
007060
073060
060030
160030
360331
360BB9
36099B
67199F
47F88F
03F807
000002
ENDCHAR
STARTCHAR C265b
ENCODING 9819
SWIDTH 400 0
DWIDTH 24 0
BBX 24 24 0 -2
BITMAP
1C0000
1C030C
18018E
1800CC
18004C
180F18
5C0E18
5E0E30
DB0E30
D90E60
D80E60
984EC0
184ECC
184F86
18CF83
18CF03
18CF01
188E05
180E04
181E0C
1837FC
1863FC
18C000
1B8000
ENDCHAR
STARTCHAR C265c
ENCODING 9820
SWIDTH 400 0
DWIDTH 24 0
BBX 24 24 0 -2
BITMAP
1C0004
1C000E
187FFE
180180
18018C
18618E
5C318C
5E1988
DB1998
D919B0
D80980
980182
18FFFF
180180
180180
180180
180180
180180
180180
180180
180180
180180
180180
180180
ENDCHAR
STARTCHAR C265d
ENCODING 9821
SWIDTH 400 0
DWIDTH 24 0
BBX 24 24 0 -2
BITMAP
1C01C0
1C01C0
180180
180180
180180
180180
5C0186
5EFFFF
DB0180
D90180
D80180
980180
180180
18718C
187FFE
18700C
18700C
18700C
18700C
18700C
18700C
187FFC
18700C
186000
ENDCHAR
STARTCHAR C265e
ENCODING 9822
SWIDTH 400 0
DWIDTH 24 0
BBX 24 24 0 -2
BITMAP
1C0000
1C0007
187FFF
180180
180180
180180
5C6186
5E7FFE
DB6186
D96186
D863C6
986366
186336
186636
18663E
186C1E
187806
187006
186006
186006
186006
18607E
18603C
186008
ENDCHAR
STARTCHAR C265f
ENCODING 9823
SWIDTH 400 0
DWIDTH 24 0
BBX 24 24 0 -2
BITMAP
1C0008
1C701C
187FFC
18700C
18700C
18700C
5C700C
5E7FFC
DB7188
D97180
D87180
987184
187FFE
1871C0
1871C0
1870C0
1870C0
187060
187060
187131
187639
187C1F
18700F
183007
ENDCHAR
STARTCHAR C2660
ENCODING 9824
SWIDTH 400 0
DWIDTH 24 0
BBX 24 24 0 -2
BITMAP
1C01C0
1C01C0
1801DC
1801CC
1841C4
187FFE
5C61C0
5E61C0
DB61C0
D961CE
D861CE
9861CC
1860CC
1860CC
1860D8
186078
186070
186470
187CF0
1871F9
18639D
18270F
180C07
181003
ENDCHAR
STARTCHAR C2661
ENCODING 9825
SWIDTH 400 0
DWIDTH 24 0
BBX 24 24 0 -2
BITMAP
1C0004
1C000E
187FFF
180606
180606
180606
5C0E06
5E0C06
DB0C0E
D9180C
D818FC
983038
186010
18C00C
193FFE
18300C
18300C
18300C
18300C
18300C
18300C
183FFC
18300C
183000
ENDCHAR
STARTCHAR C2662
ENCODING 9826
SWIDTH 400 0
DWIDTH 24 0
BBX 24 24 0 -2
BITMAP
1C01C0
1C01C0
180180
180180
180180
180182
5C01FF
5E0180
DB0180
D90180
D80180
980180
186186
187FFE
186006
186006
186006
186006
186006
186006
186006
187FFE
186006
186004
ENDCHAR
STARTCHAR C2663
ENCODING 9827
SWIDTH 400 0
DWIDTH 24 0
BBX 24 24 0 -2
BITMAP
1C0000
1C700C
187FFE
18700C
18700C
18700C
5C700C
5E700C
DB700C
D97FFC
D876EC
980660
180660
180660
180E60
180E60
180C60
180C60
181861
181861
183063
18607F
18C07F
1B803E
ENDCHAR
STARTCHAR C2664
ENCODING 9828
SWIDTH 400 0
DWIDTH 24 0
BBX 24 24 0 -2
BITMAP
1C0000
1C1018
181FFC
18181C
181818
181818
5C1818
5E1818
DB1818
D91FF8
D81818
981818
181818
181818
181818
181FF8
181818
181818
181818
181818
181818
181818
19FFFF
180000
ENDCHAR
STARTCHAR C2665
ENCODING 9829
SWIDTH 400 0
DWIDTH 24 0
BBX 24 24 0 -2
BITMAP
1C01C0
1C01C0
1801C0
1801C0
1801C0
1801C0
5C61C6
5E7FFF
DB71C7
D971C7
D871C7
9871C7
1871C7
1871C7
187FFF
1871C7
1871C7
1871C7
1871C7
1871C7
1871C7
187FFF
187006
186000
ENDCHAR
STARTCHAR C2666
ENCODING 9830
SWIDTH 400 0
DWIDTH 24 0
BBX 24 24 0 -2
BITMAP
1C0000
1C2006
187FFF
187367
187367
187367
5C7367
5E7367
DB7367
D97367
D87367
987667
187677
18767F
187C3F
187807
187007
187007
187007
187007
187007
187FFF
186002
180000
ENDCHAR
STARTCHAR C2667
ENCODING 9831
SWIDTH 400 0
DWIDTH 24 0
BBX 24 24 0 -2
BITMAP
1C01C0
1C01C0
1819C0
181DC0
1819C0
1819CC
5C1FFE
5E11C0
DB31C0
D961C0
D841C0
9801C6
187FFF
1801C0
1803C0
1803C0
180360
180720
180630
180E18
181C1E
18380F
187006
19C000
ENDCHAR
STARTCHAR C2668
ENCODING 9832
SWIDTH 400 0
DWIDTH 24 0
BBX 24 24 0 -2
BITMAP
1C1C00
1C1C00
181800
181800
181807
183FFF
5C3300
5E6300
DB6300
D9C300
D8038C
9803FC
180300
180300
180300
180300
18038C
1803FC
180300
180300
180300
180300
180300
180300
ENDCHAR
STARTCHAR C2669
ENCODING 9833
SWIDTH 400 0
DWIDTH 24 0
BBX 24 24 0 -2
BITMAP
1C1C00
1C1C00
181800
181800
181807
183FFF
5C6007
5E6007
DBC087
D99FC7
D818E7
9818C7
1818C7
1818C7
1818C7
181FC7
1818C7
181007
180006
180006
18000E
1801FC
180078
180030
ENDCHAR
STARTCHAR C266a
ENCODING 9834
SWIDTH 400 0
DWIDTH 24 0
BBX 24 24 0 -2
BITMAP
380070
383070
303860
307060
306060
38E062
7CC1FF
7E8877
F78C67
F39C67
B1D867
B07067
303067
306067
306867
30CC67
30C6C7
31FEC7
31C3C6
308186
30038E
30077C
300E38
301830
ENDCHAR
STARTCHAR C266b
ENCODING 9835
SWIDTH 400 0
DWIDTH 24 0
BBX 24 24 0 -2
BITMAP
387000
387000
306000
306000
306407
386EFF
7DFF46
7FEE46
F66E46
F66E46
B0CE6C
B0CC6C
30CC6C
30CC3C
319C38
339838
319838
307038
307078
30786C
30ECC6
31C787
338303
360601
ENDCHAR
STARTCHAR C266c
ENCODING 9836
SWIDTH 400 0
DWIDTH 24 0
BBX 24 24 0 -2
BITMAP
1C01C0
1C01C0
18018C
18218E
18318C
181998
5C1990
5E0980
DB0184
D97FFE
D80180
980180
180180
180180
180182
18FFFF
180180
180180
180180
180180
180180
180180
180180
180180
ENDCHAR
STARTCHAR C266d
ENCODING 9837
SWIDTH 400 0
DWIDTH 24 0
BBX 24 24 0 -2
BITMAP
1C0000
1C0007
187FFF
1800C0
180180
180180
5C0380
5E0380
DB07A0
D90F90
D80D88
98198C
18398E
183186
186187
18C182
180180
180180
180180
180180
180180
180102
18FFFF
180000
ENDCHAR
STARTCHAR C266e
ENCODING 9838
SWIDTH 400 0
DWIDTH 24 0
BBX 24 24 0 -2
BITMAP
1C1C00
1C1C00
181800
181806
181FFE
183006
5C6006
5E60C6
DBDFE6
D998E6
D818C6
9818C6
1818C6
1818C6
181FC6
181806
1818FC
181838
181811
181801
181803
181FFF
181FFF
180FFE
ENDCHAR
STARTCHAR C266f
ENCODING 9839
SWIDTH 400 0
DWIDTH 24 0
BBX 24 24 0 -2
BITMAP
1C0300
1C0380
180380
1806C0
180640
180C60
5C0C70
5E1838
DB301C
D9604F
D85FE7
988003
190000
180038
183FFC
180030
180060
181840
180C80
180700
180380
1801C0
1800C0
1800C0
ENDCHAR
STARTCHAR C2670
ENCODING 9840
SWIDTH 400 0
DWIDTH 24 0
BBX 24 24 0 -2
BITMAP
00C200
00C300
00C184
00FFFE
7FE000
006060
0030F0
001FC1
003F01
03F783
1F01E7
F0007F
00620E
006300
006184
007FFE
7FF020
003870
001DF0
000F81
003F01
03FBE3
1F00FF
F0003F
ENDCHAR
STARTCHAR C2671
ENCODING 9841
SWIDTH 400 0
DWIDTH 24 0
BBX 24 24 0 -2
BITMAP
0003F0
307FF0
3FF000
300008
3FFFFC
30000C
30000C
3FFFFC
300108
3041C0
307180
303980
301980
300180
31C180
30E180
306180
600182
67FFFF
600180
C00180
C00180
800180
000180
ENDCHAR
STARTCHAR C2672
ENCODING 9842
SWIDTH 400 0
DWIDTH 24 0
BBX 24 24 0 -2
BITMAP
1C0300
1C0180
1C10C6
1C3FFF
1C7006
1D600C
7F4008
1C0460
1C0E70
1C0E60
1C0E60
1F0E60
1C0E60
FC0E60
FC0E60
5C0C60
1C0C60
1C1C60
1C1860
1C1861
1C3061
7C607F
38C03F
1F001E
ENDCHAR
STARTCHAR C2673
ENCODING 9843
SWIDTH 400 0
DWIDTH 24 0
BBX 24 24 0 -2
BITMAP
1C0338
1C3338
1C3B38
1C3338
1C3338
1D3338
7F3338
1C3338
1C333A
1CFFFF
1C3338
1F3338
1C3338
FC3338
FC3338
5C3338
1C33F8
1C3330
1C3000
1C3000
1C3000
7C3006
383FFE
180000
ENDCHAR
STARTCHAR C2674
ENCODING 9844
SWIDTH 400 0
DWIDTH 24 0
BBX 24 24 0 -2
BITMAP
1C1C1C
1C1C1C
1C1818
1C1818
1C1818
1D1818
7F7FFF
1C1C18
1C1818
1C1818
1C1818
1F1818
1C1818
FC1C18
FC1FF8
5C1818
1C1818
1C1818
1C1818
1C1818
1C1818
7C1FF8
381C18
181800
ENDCHAR
STARTCHAR C2675
ENCODING 9845
SWIDTH 400 0
DWIDTH 24 0
BBX 24 24 0 -2
BITMAP
1C01C0
1C01C0
1C0180
1C0180
1C0180
1D018C
7F3FFE
1C0180
1C0180
1C0180
1C0180
1F0186
1CFFFF
FC0300
FC0600
5C0600
1C0C00
1C0C18
1C180C
1C180E
1C31FE
7C7F87
383803
181000
ENDCHAR
STARTCHAR C2676
ENCODING 9846
SWIDTH 400 0
DWIDTH 24 0
BBX 24 24 0 -2
BITMAP
1C0300
1C0300
1C0300
1C0602
1CFFFF
1D0EE0
7F0CC0
1C18C0
1C18C4
1C3FFE
1C3CC6
1F78C6
1C78C6
FCD8C6
FC98C6
5D18C6
1C18C6
1C18C6
1C18C6
1C18FE
1C18DC
7C18C8
1800C0
1800C0
ENDCHAR
STARTCHAR C2677
ENCODING 9847
SWIDTH 400 0
DWIDTH 24 0
BBX 24 24 0 -2
BITMAP
1C01C0
1C01C0
1C19C0
1C1DC0
1C19C0
1D19CC
7F1FFE
1C11C0
1C31C0
1C61C0
1C41C0
1F01C6
1C7FFF
FC01C0
FC03C0
5C03C0
1C0360
1C0720
1C0630
1C0E18
1C1C1E
7C380F
387006
19C000
ENDCHAR
STARTCHAR C2678
ENCODING 9848
SWIDTH 400 0
DWIDTH 24 0
BBX 24 24 0 -2
BITMAP
1C1C1C
1C1C1C
181818
181818
181818
1A3018
7E3018
187FFF
187018
187018
18F218
1CF318
397198
F871D8
F870D8
587018
187018
187018
187018
187018
187018
F871F8
787078
306030
ENDCHAR
STARTCHAR C2679
ENCODING 9849
SWIDTH 400 0
DWIDTH 24 0
BBX 24 24 0 -2
BITMAP
1C0380
1C0380
1C0380
1C07C0
1C0640
1D0C60
7F0C30
1C1838
1C309E
1C21CF
1C4387
1F0700
1C0C30
FC1870
FC20C0
5C0380
1C0708
1C1C1C
1C2038
1C0060
1C01C0
7C0700
381C00
18F000
ENDCHAR
STARTCHAR C267a
ENCODING 9850
SWIDTH 400 0
DWIDTH 24 0
BBX 24 24 0 -2
BITMAP
1C0000
1C300C
1C3FFE
1C300C
1C300C
1D300C
7F300C
1C3FFC
1C300C
1C3200
1C3380
1F3300
1C3300
FC330C
FC33FE
5C7300
1C7300
1C6300
1C6301
1CC301
1CC303
7CC3FF
3983FF
1801FE
ENDCHAR
STARTCHAR C267b
ENCODING 9851
SWIDTH 400 0
DWIDTH 24 0
BBX 24 24 0 -2
BITMAP
1C0000
1C1018
1C1FFC
1C181C
1C1818
1D1818
7F1818
1C1818
1C1818
1C1FF8
1C1818
1F1818
1C1818
FC1818
FC1818
5C1FF8
1C1818
1C1818
1C1818
1C1818
1C1818
7C1818
39FFFF
180000
ENDCHAR
STARTCHAR C267c
ENCODING 9852
SWIDTH 400 0
DWIDTH 24 0
BBX 24 24 0 -2
BITMAP
1C01C0
1C01C0
1C01C0
1C01C0
1C31C4
1D3FFE
7F31C6
1C31C6
1C31C6
1C31C6
1C3FFE
1F31C6
1C31C6
FC31C6
FC31C6
5C3FFE
1C31C4
1C01C0
1C01C0
1C01C0
1C01C0
7C01C0
3801C0
180180
ENDCHAR
STARTCHAR C267d
ENCODING 9853
SWIDTH 400 0
DWIDTH 24 0
BBX 24 24 0 -2
BITMAP
1C01C0
1C01C0
1C0180
1C3198
1C3FFC
1D318C
7F318C
1C318C
1C318C
1C3FFC
1C319C
1F318C
1C318C
FC318C
FC318C
5CFFFF
1C300C
1C300C
1C300C
1C300C
1C300C
7C307C
383038
183030
ENDCHAR
STARTCHAR C267e
ENCODING 9854
SWIDTH 400 0
DWIDTH 24 0
BBX 24 24 0 -2
BITMAP
1C01C0
1C01C0
1C0180
1C0180
1C0180
1D319C
7F3FFC
1C318C
1C318C
1C318C
1C318C
1F318C
1C318C
FC318C
FCFFFF
5C0300
1C0300
1C0320
1C0618
1C0E0C
1C1C0E
7C3807
387007
19C003
ENDCHAR
STARTCHAR C2721
ENCODING 10017
SWIDTH 400 0
DWIDTH 24 0
BBX 24 24 0 -2
BITMAP
1C0020
1C0078
1C07F8
1C7E00
1C0000
1D0600
7F0300
1C0180
1C019C
1C7FFC
1C0018
1F0030
1C0060
FC00C0
FC0180
5C0300
1C0600
1C0C00
1C1800
1C3000
1CF000
7CFFFF
38C7FC
1801F8
ENDCHAR
STARTCHAR C2722
ENCODING 10018
SWIDTH 400 0
DWIDTH 24 0
BBX 24 24 0 -2
BITMAP
0101C0
0981C0
1C81C0
1C8180
18C180
184382
1063FF
30731C
203B0C
603F0C
60050C
DFF118
867198
067098
0670F8
0C7070
0C7060
1C7070
1870F0
1061D8
30E38E
77C70F
E38E07
833800
ENDCHAR
STARTCHAR C2723
ENCODING 10019
SWIDTH 400 0
DWIDTH 24 0
BBX 24 24 0 -2
BITMAP
23801C
3B807E
338FE0
338C00
338C00
338C00
338C00
338C02
7F8FFF
238C38
038C38
038C38
238C38
3F8C38
339C38
339838
339838
639838
639838
639038
63B038
C3A038
83E038
034030
ENDCHAR
STARTCHAR C2724
ENCODING 10020
SWIDTH 400 0
DWIDTH 24 0
BBX 24 24 0 -2
BITMAP
100E00
180E00
0C0E00
0C0C06
04CFFE
FFF800
1C1800
1C1030
1D27F8
1F8638
1DC638
198638
198638
198638
318638
318638
318638
318E38
218E38
618C39
639C39
DF183F
8E301F
04E00E
ENDCHAR
STARTCHAR C2725
ENCODING 10021
SWIDTH 400 0
DWIDTH 24 0
BBX 24 24 0 -2
BITMAP
000000
000300
460180
FF01C0
E700C0
E60006
E6FFFF
E60E00
E60E00
E60E08
E60E1C
FE0FFC
E60C0C
E60C0C
E60C0C
E6180C
E6180C
E6181C
FE3018
C67018
00E038
01C3F0
0381E0
0E00C0
ENDCHAR
STARTCHAR C2726
ENCODING 10022
SWIDTH 400 0
DWIDTH 24 0
BBX 24 24 0 -2
BITMAP
000600
000300
460380
FF0180
E70182
E6FFFF
E61018
E61818
E60818
E60838
E60C30
FE0430
E60660
E60260
E603C0
E603C0
E601C0
E603E0
FE0770
C60E38
001C1C
00300F
00C007
078000
ENDCHAR
STARTCHAR C2727
ENCODING 10023
SWIDTH 400 0
DWIDTH 24 0
BBX 24 24 0 -2
BITMAP
000000
003004
463FFE
FF3000
E73000
E63000
E63008
E6301C
E63FFC
E6320C
E6320C
FE3218
E63318
E63138
E63130
E671B0
E660E0
E660E0
FE61F0
C6C1B8
00C31C
01860F
030C07
023000
ENDCHAR
STARTCHAR C2728
ENCODING 10024
SWIDTH 400 0
DWIDTH 24 0
BBX 24 24 0 -2
BITMAP
001C00
001C00
461800
FF1800
E71806
E63FFF
E63367
E62367
E66367
E64667
E6C667
FE0E67
E60CC7
E60CC7
E619C7
E61987
E63307
E62307
FE4706
C60E06
001C0E
0038FC
002078
000030
ENDCHAR
STARTCHAR C2729
ENCODING 10025
SWIDTH 400 0
DWIDTH 24 0
BBX 24 24 0 -2
BITMAP
000008
00007C
463FFC
FF3000
E73006
E63FFF
E63007
E63007
E63007
E63007
E63007
FE3FFF
E63006
E63000
E63000
E63000
E63000
E67000
FE6000
C66000
00C000
00C000
008000
010000
ENDCHAR
STARTCHAR C272a
ENCODING 10026
SWIDTH 400 0
DWIDTH 24 0
BBX 24 24 0 -2
BITMAP
0C0060
0FFFF0
0C0070
0C0060
0FFFE0
0C0060
0C0060
0FFFE0
0C2060
003000
001804
7FFFFE
0301C0
018180
00C300
006600
003C00
003C00
007700
00C3C0
0380FF
0E007F
30000C
C00000
ENDCHAR
STARTCHAR C272b
ENCODING 10027
SWIDTH 400 0
DWIDTH 24 0
BBX 24 24 0 -2
BITMAP
000000
060060
07FFF0
060060
070060
07FFE0
060060
070060
07FFE0
100006
1FFFFE
180800
180E00
180C00
181C00
181800
301800
303400
306200
30C180
2180E0
63007F
C6003F
BC000E
ENDCHAR
STARTCHAR C272c
ENCODING 10028
SWIDTH 400 0
DWIDTH 24 0
BBX 24 24 0 -2
BITMAP
0007E0
007FF0
1FF800
001800
001800
00300E
7FFFFE
006200
00C180
0180C0
030070
06003F
18001F
300006
C7FFF0
060070
060060
060060
07FFE0
060060
060060
07FFE0
060060
040000
ENDCHAR
STARTCHAR C272d
ENCODING 10029
SWIDTH 400 0
DWIDTH 24 0
BBX 24 24 0 -2
BITMAP
000000
60C40C
7FEFFE
60CE0C
60CE0C
60CE0C
60CE0C
60CE0C
60CE0C
60CE0C
60CE0C
7FCFFC
60CE0C
60CE0C
60CE0C
60CE0C
60CE0C
60CE0C
60CE0C
60CE0C
60CE0C
7FCFFC
60CC0C
000000
ENDCHAR
STARTCHAR C272e
ENCODING 10030
SWIDTH 400 0
DWIDTH 24 0
BBX 24 24 0 -2
BITMAP
000000
000038
467FF8
FF0C38
E70C30
E60C30
E60C30
E60C60
E60C6C
E60FFE
E60E0C
FE1B0C
E6190C
E6190C
E61998
E638F8
E630F0
E63070
FE60F0
C661F8
00C39C
00C70F
018E06
037800
ENDCHAR
STARTCHAR C272f
ENCODING 10031
SWIDTH 400 0
DWIDTH 24 0
BBX 24 24 0 -2
BITMAP
0001C0
0001C0
460180
FF0180
E70186
E67FFE
E60180
E63188
E6398E
E6318C
E6318C
FE318C
E6318C
E6318C
E6318C
E63FFC
E6319C
E60188
FE0181
C60181
000183
0001FF
0001FF
00007E
ENDCHAR
STARTCHAR C2730
ENCODING 10032
SWIDTH 400 0
DWIDTH 24 0
BBX 24 24 0 -2
BITMAP
000300
000380
460380
FF06C0
E70640
E60C60
E60C30
E61838
E6301C
E6300E
E67FEF
FEC007
E78002
E70030
E63FF8
E60038
E60030
E60030
FE0060
C60060
0000C0
0000C0
000180
000180
ENDCHAR
STARTCHAR C2731
ENCODING 10033
SWIDTH 400 0
DWIDTH 24 0
BBX 24 24 0 -2
BITMAP
0000C0
000840
460E60
FF0C60
E70820
E61830
E61818
E61018
E6300C
E6600F
E66007
FEDFFE
E68618
E60618
E60618
E60E18
E60C18
E60C18
FE1818
C61838
003030
0063F0
00C1E0
0180C0
ENDCHAR
STARTCHAR C2732
ENCODING 10034
SWIDTH 400 0
DWIDTH 24 0
BBX 24 24 0 -2
BITMAP
038000
038000
030010
07FFF8
06739C
0C7318
186318
30C318
018618
030C38
061830
1C37F0
00E1E0
0000C0
000000
07FFF0
060070
060060
07FFE0
060060
060060
07FFE0
060060
040000
ENDCHAR
STARTCHAR C2733
ENCODING 10035
SWIDTH 400 0
DWIDTH 24 0
BBX 24 24 0 -2
BITMAP
200000
338004
3F9FFE
338000
338000
338000
338000
338000
3F8002
33BFFF
338330
338330
338330
338330
3F8630
738630
638630
638E30
638C30
639831
C39831
DF303F
86603F
05C00E
ENDCHAR
STARTCHAR C2734
ENCODING 10036
SWIDTH 400 0
DWIDTH 24 0
BBX 24 24 0 -2
BITMAP
1C0000
1C0006
1C1FFE
1C0E38
1D0E38
FF8E38
1C0E38
1C0E38
1C0E38
3E0E38
3F7FFF
3F8E38
7D0E38
7C0C38
5C0C38
DC0C38
9C0C38
1C1838
1C1838
1C1838
1C3038
1C6038
1C4038
188030
ENDCHAR
STARTCHAR C2735
ENCODING 10037
SWIDTH 400 0
DWIDTH 24 0
BBX 24 24 0 -2
BITMAP
1C0000
1C0008
1C1FFC
1C0000
1D0000
FF8000
1C0000
1C0000
1C0006
3E3FFE
3F0660
3F8660
7D0660
7C0660
5C0660
DC0E60
9C0C60
1C0C60
1C1861
1C1861
1C3063
1C607F
1CC03F
19801E
ENDCHAR
STARTCHAR C2736
ENCODING 10038
SWIDTH 400 0
DWIDTH 24 0
BBX 24 24 0 -2
BITMAP
1C01C0
1C01C0
1C01C0
1C01C0
1D01C0
FF81CC
1C3FFE
1C01C0
1C01C0
3E01C0
3F01C0
3F81C6
7D3FFF
7C01C0
5C03C0
DC03C0
9C0360
1C0730
1C0638
1C0E1C
1C1C1E
1C380F
1C7007
19C000
ENDCHAR
STARTCHAR C2737
ENCODING 10039
SWIDTH 400 0
DWIDTH 24 0
BBX 24 24 0 -2
BITMAP
1C0000
1C0006
1C1FFE
1C0C30
1D0C30
FF9830
1C1830
1C1830
1C1832
3E3FFF
3F10F0
3F80F0
7D01B0
7C01B0
5C0330
DC0330
9C0630
1C0E30
1C0C30
1C1830
1C3030
1CE3F0
1D81E0
180040
ENDCHAR
STARTCHAR C2738
ENCODING 10040
SWIDTH 400 0
DWIDTH 24 0
BBX 24 24 0 -2
BITMAP
1C01C0
1C01C0
1C0180
1C0180
1C0186
FF7FFE
1C0180
1C3188
1C398E
3E318C
3F318C
3FB18C
7D318C
7C318C
5C318C
DC3FFC
9C319C
1C0188
1C0181
1C0181
1C0183
1C01FF
1C01FF
18007E
ENDCHAR
STARTCHAR C2739
ENCODING 10041
SWIDTH 400 0
DWIDTH 24 0
BBX 24 24 0 -2
BITMAP
1C0000
1C0018
1C3FFC
1C0E1C
1D0E18
FF8E18
1C0E18
1C0E18
1C0E18
3E0E18
3F0E18
3FFFFF
7D0C38
7C0C38
5C0C38
DC0C38
9C0C38
1C0C38
1C0C38
1C0C38
1C0C38
1C0C3A
1C7FFF
180000
ENDCHAR
STARTCHAR C273a
ENCODING 10042
SWIDTH 400 0
DWIDTH 24 0
BBX 24 24 0 -2
BITMAP
1C0600
1C0300
1C0100
1C0180
1D2187
FFFFFF
1C71C7
1C71C7
1C71C7
3E71C7
3F7367
3FF327
7D7637
7C761F
5C7C1F
DC780F
9C7007
1C7007
1C7007
1C7007
1C7007
1C703F
1C701E
18600C
ENDCHAR
STARTCHAR C273b
ENCODING 10043
SWIDTH 400 0
DWIDTH 24 0
BBX 24 24 0 -2
BITMAP
1C0078
1C01FC
1C3FC0
1C0300
1D0300
FF8300
1C0300
1C0308
1C3FFC
3E0300
3F0300
3F8300
7D0300
7C0304
5C7FFE
DC0300
9C0300
1C0300
1C0301
1C0301
1C0303
1C03FF
1C01FF
1800FE
ENDCHAR
STARTCHAR C273c
ENCODING 10044
SWIDTH 400 0
DWIDTH 24 0
BBX 24 24 0 -2
BITMAP
1C0E00
1C0E00
1C0C00
1C1C00
1D1C07
FF9FFF
1C3007
1C3007
1C6207
3EC307
3F0607
3F8607
7D0C07
7C0847
5C13E7
DC3F67
9C1827
1C0007
1C0006
1C0006
1C000E
1C01FC
1C0078
180030
ENDCHAR
STARTCHAR C273d
ENCODING 10045
SWIDTH 400 0
DWIDTH 24 0
BBX 24 24 0 -2
BITMAP
1C0E00
1C0E00
1C0E00
1C0C00
1D0C00
FF9C0E
1C1FFF
1C198C
1C3188
3E2190
3F0180
3F8180
7D03C0
7C03C0
5C0340
DC0360
9C0660
1C0630
1C0C38
1C0C1C
1C181E
1C300F
1C6007
198000
ENDCHAR
STARTCHAR C273e
ENCODING 10046
SWIDTH 400 0
DWIDTH 24 0
BBX 24 24 0 -2
BITMAP
1C0040
1C0460
1C0E20
1C0E30
1D0C10
FF8C18
1C1808
1C180C
1C3007
3E3FFF
3F4602
3F8600
7D0C00
7C0C38
5C0FFC
DC0018
9C0018
1C0018
1C0038
1C0030
1C0070
1C07E0
1C03C0
180180
ENDCHAR
STARTCHAR C273f
ENCODING 10047
SWIDTH 400 0
DWIDTH 24 0
BBX 24 24 0 -2
BITMAP
1C0040
1C0460
1C0E20
1C0E30
1D0C10
FF8C18
1C0818
1C180C
1C100E
3E3007
3F3007
3FEFFC
7D430C
7C030C
5C030C
DC060C
9C060C
1C0E0C
1C0C1C
1C1818
1C1818
1C33F0
1C61E0
19C040
ENDCHAR
STARTCHAR C2740
ENCODING 10048
SWIDTH 400 0
DWIDTH 24 0
BBX 24 24 0 -2
BITMAP
1C0000
1C0200
1C0100
1C0180
1D00C0
FF80E0
1C0E60
1C0E60
1C0E00
3E0E00
3F0E00
3FAE00
7D2E00
7C2E08
5C6E0C
DC6E06
9C6E07
1CEE03
1CCE0B
1CCE19
1C8E10
1C07F8
1C03F0
180000
ENDCHAR
STARTCHAR C2741
ENCODING 10049
SWIDTH 400 0
DWIDTH 24 0
BBX 24 24 0 -2
BITMAP
1C0000
1C0000
1C001C
1C1FFC
1D0000
FF8000
1C0000
1C0000
1C0002
3E7FFF
3F0700
3F8300
7D0700
7C0600
5C0600
DC0C00
9C0C00
1C1818
1C180C
1C103E
1C3FE7
1C3C07
1C1802
180000
ENDCHAR
STARTCHAR C2742
ENCODING 10050
SWIDTH 400 0
DWIDTH 24 0
BBX 24 24 0 -2
BITMAP
1C0004
1C000E
1C7FFE
1C0E00
1D0E00
FF8E00
1C0C00
1C0C38
1C0FF8
3E0C38
3F1838
3F9838
7D1830
7C1830
5C1830
DC3FF0
9C1060
1C0060
1C0060
1C0060
1C0060
1C0062
1CFFFF
180000
ENDCHAR
STARTCHAR C2743
ENCODING 10051
SWIDTH 400 0
DWIDTH 24 0
BBX 24 24 0 -2
BITMAP
1C0000
1C3007
1C3FFF
1C3000
1D3000
FFB20C
1C33FE
1C330E
1C330C
3E330C
3F330C
3FB30C
7D330C
7C330C
5C730C
DC73FC
9C6318
1C6300
1C4301
1CC301
1CC303
1C83FF
1D83FF
1801FE
ENDCHAR
STARTCHAR C2744
ENCODING 10052
SWIDTH 400 0
DWIDTH 24 0
BBX 24 24 0 -2
BITMAP
1C0E00
1C0E00
1C0C00
1C1806
1D1FFF
FF9007
1C3007
1C2007
1C6047
3E5FE7
3F0007
3F8007
7D0007
7C0007
5C0067
DC1FE7
9C0007
1C0007
1C0006
1C0006
1C000E
1C01FC
1C0078
180030
ENDCHAR
STARTCHAR C2745
ENCODING 10053
SWIDTH 400 0
DWIDTH 24 0
BBX 24 24 0 -2
BITMAP
1C0008
1C007C
1C1FFC
1C01C0
1D01C0
FF81C0
1C01C0
1C01CC
1C1FFC
3E01C0
3F01C0
3F81C0
7D01C2
7C7FFF
5C01C0
DC01C0
9C01C0
1C01C0
1C01C0
1C01C0
1C01C0
1C0FC0
1C0780
180300
ENDCHAR
STARTCHAR C2746
ENCODING 10054
SWIDTH 400 0
DWIDTH 24 0
BBX 24 24 0 -2
BITMAP
1C0000
1C0038
1C7FF8
1C0C38
1D0C30
FF8C30
1C0C30
1C0C60
1C0C6E
3E0FFF
3F0E0E
3F9B0C
7D190C
7C190C
5C1998
DC38F8
9C30F0
1C3070
1C60F0
1C61F8
1CC39C
1CC70F
1D8C06
1B7000
ENDCHAR
STARTCHAR C2747
ENCODING 10055
SWIDTH 400 0
DWIDTH 24 0
BBX 24 24 0 -2
BITMAP
1C0000
1C0E38
1C0FF8
1C0E38
1D0E38
FF8E38
1C0C38
1C181F
1C181F
3E3000
3F6000
3FDFFC
7D0C1C
7C0418
5C0638
DC0230
9C0360
1C01E0
1C01C0
1C01E0
1C033C
1C0E1F
1C180E
18F000
ENDCHAR
STARTCHAR C2748
ENCODING 10056
SWIDTH 400 0
DWIDTH 24 0
BBX 24 24 0 -2
BITMAP
1C09C0
1C0DC0
180DC0
1819C0
1819C0
FF19C0
1839C0
3831C0
3831C6
3C71FE
3E71C0
7EF1C0
7AB1C0
D831C0
D831C0
9831C0
1831C0
1831C0
1831C1
1831C1
1831C3
1831FF
1830FF
18307E
ENDCHAR
STARTCHAR C2749
ENCODING 10057
SWIDTH 400 0
DWIDTH 24 0
BBX 24 24 0 -2
BITMAP
1C0180
1C0380
1C03C0
1C0340
1D0660
FF8620
1C0C30
1C0818
1C181C
3E302F
3F3FF7
3FE003
7D4000
7C0018
5C3FFC
DC001C
9C0018
1C0038
1C0030
1C0060
1C0060
1C00E0
1C00C0
180180
ENDCHAR
STARTCHAR C274a
ENCODING 10058
SWIDTH 400 0
DWIDTH 24 0
BBX 24 24 0 -2
BITMAP
000E00
000E00
420E00
FF0C00
E30C00
E31C0E
E31FFF
E3198C
E33188
E32190
E30180
FF0180
E303C0
E303C0
E30340
E30360
E30660
E30630
FF0C38
C20C1C
00181E
00300F
006007
018000
ENDCHAR
STARTCHAR C274b
ENCODING 10059
SWIDTH 400 0
DWIDTH 24 0
BBX 24 24 0 -2
BITMAP
000038
0301FC
FFBFC0
300180
300180
320180
3F0180
330180
630186
637FFE
430180
E603C0
FE03C0
9E0340
0E0360
0C0660
0C0630
1C0C30
180C18
10180C
30300F
606007
C0C002
838000
ENDCHAR
STARTCHAR C274c
ENCODING 10060
SWIDTH 400 0
DWIDTH 24 0
BBX 24 24 0 -2
BITMAP
000E00
030E00
FF8C00
300C00
301806
321FFF
3F1B37
333337
633337
636337
434367
E60667
FE0667
9E0C67
0E0CC7
0C19C7
0C1987
1C3387
186306
100606
300C0E
6018FC
C03078
800030
ENDCHAR
STARTCHAR C274d
ENCODING 10061
SWIDTH 400 0
DWIDTH 24 0
BBX 24 24 0 -2
BITMAP
300E00
300E00
300C00
304C18
3FEFFC
300C01
304C03
338E06
3E0FFF
3807FE
300000
001FC0
0FFFE0
007000
007000
3FFFF0
007000
007004
FFFFFE
007001
007001
007FFF
003FFF
001FFE
ENDCHAR
STARTCHAR C274e
ENCODING 10062
SWIDTH 400 0
DWIDTH 24 0
BBX 24 24 0 -2
BITMAP
1C0000
1C0008
1FFFFC
180000
300000
3FFFF0
300000
600000
5FFFF0
820070
030060
018460
3FFE60
39C760
30C660
31E630
313630
333E30
361E38
3C0619
38061D
307E0F
301E07
300C03
ENDCHAR
STARTCHAR C274f
ENCODING 10063
SWIDTH 400 0
DWIDTH 24 0
BBX 24 24 0 -2
BITMAP
001C00
001C00
001810
019838
3FDC60
01DDC0
019B00
031900
0718C0
0E1878
1C183F
38F81F
E03006
000060
07FFF0
060070
060060
060060
07FFE0
060060
060060
07FFE0
060060
040000
ENDCHAR
STARTCHAR C2750
ENCODING 10064
SWIDTH 400 0
DWIDTH 24 0
BBX 24 24 0 -2
BITMAP
000200
180300
0C2184
0C3FFE
00600E
01E00C
81C088
E20080
7200C0
360E40
060E40
040E60
0C0E60
080C20
180C30
180C30
301818
F01818
30181C
30300C
38300E
386007
38C007
118000
ENDCHAR
STARTCHAR C2751
ENCODING 10065
SWIDTH 400 0
DWIDTH 24 0
BBX 24 24 0 -2
BITMAP
000600
180300
0C0180
0C0180
000087
017FFF
810380
E20300
720600
360C38
061878
043070
0C38E0
080FC0
180780
180300
300700
F00610
300C18
30181C
3833FE
387F8E
387006
101000
ENDCHAR
STARTCHAR C2752
ENCODING 10066
SWIDTH 400 0
DWIDTH 24 0
BBX 24 24 0 -2
BITMAP
0001C0
1801C0
0C018C
0C218E
00318C
011998
811990
E20980
720184
367FFE
060180
040180
0C0180
080180
180182
18FFFF
300180
F00180
300180
300180
380180
380180
380180
100180
ENDCHAR
STARTCHAR C2753
ENCODING 10067
SWIDTH 400 0
DWIDTH 24 0
BBX 24 24 0 -2
BITMAP
000004
18000E
0C7FFE
0C0180
00018C
01618E
81318C
E21988
721998
3619B0
060980
040182
0CFFFF
080180
180180
180180
300180
F00180
300180
300180
380180
380180
380180
100180
ENDCHAR
STARTCHAR C2754
ENCODING 10068
SWIDTH 400 0
DWIDTH 24 0
BBX 24 24 0 -2
BITMAP
000000
18000C
0C1FFC
0C0000
000000
010000
810000
E20002
727FFF
3601C0
0601C0
0401C0
0C19C0
0819C8
1819CC
1819CE
3031C6
F031C7
3061C3
3041C3
3881C3
3901C0
3801C0
100180
ENDCHAR
STARTCHAR C2755
ENCODING 10069
SWIDTH 400 0
DWIDTH 24 0
BBX 24 24 0 -2
BITMAP
00181C
18181C
0C1818
0C1818
001818
011818
81FFFF
E33818
721818
361818
061818
041818
0C1818
081818
181FF8
181818
301818
F01818
301818
301818
381818
381FF8
381818
101000
ENDCHAR
STARTCHAR C2756
ENCODING 10070
SWIDTH 400 0
DWIDTH 24 0
BBX 24 24 0 -2
BITMAP
000380
180380
0C0330
0C0318
000308
010302
81FFFE
E20300
720300
363338
063338
043338
0C3338
083338
183338
183338
303338
F07338
306338
30431F
38C31F
398300
390300
100300
ENDCHAR
STARTCHAR C2757
ENCODING 10071
SWIDTH 400 0
DWIDTH 24 0
BBX 24 24 0 -2
BITMAP
0001C0
1801C0
0C01DC
0C01CC
0041C4
017FFE
8161C0
E261C0
7261C0
3661CE
0661CE
0461CC
0C60CC
0860CC
1860D8
186078
306070
F06470
307CF0
3071F9
38639D
38270F
380C07
101003
ENDCHAR
STARTCHAR C2758
ENCODING 10072
SWIDTH 400 0
DWIDTH 24 0
BBX 24 24 0 -2
BITMAP
001C00
181C00
0C18E0
0C1870
001830
011802
817FFF
E23800
721800
36180C
061A0C
04320C
0C3218
083318
183138
1871B0
3060E0
F060E0
3061E0
30C1B0
38C31C
39860F
3B1807
127000
ENDCHAR
STARTCHAR C2759
ENCODING 10073
SWIDTH 400 0
DWIDTH 24 0
BBX 24 24 0 -2
BITMAP
200060
319860
19FC60
099860
019860
019060
C5B066
65A3FF
65A067
0DB067
0D9867
199867
199CE7
118CC7
318CC7
318CC7
719DC7
E1F986
619986
31830E
31860C
318CFC
319878
01B030
ENDCHAR
STARTCHAR C275a
ENCODING 10074
SWIDTH 400 0
DWIDTH 24 0
BBX 24 24 0 -2
BITMAP
004000
186007
0C7FFF
0C6007
006007
016007
816067
E267F7
726677
366667
066667
046667
0C6667
086667
186667
1867E7
306667
F06007
306007
306007
386007
38603F
38601E
10600C
ENDCHAR
STARTCHAR C275b
ENCODING 10075
SWIDTH 400 0
DWIDTH 24 0
BBX 24 24 0 -2
BITMAP
000000
180000
0C600E
0C7FFF
006186
016186
816186
E26186
726186
366186
066186
046186
0C7FFE
086186
186186
186186
306186
F06186
306186
306186
386186
387FFE
386004
104000
ENDCHAR
STARTCHAR C275c
ENCODING 10076
SWIDTH 400 0
DWIDTH 24 0
BBX 24 24 0 -2
BITMAP
001C00
181C00
0C1800
0C1800
001807
013FFF
816007
E26007
72C087
369FC7
0618E7
0418C7
0C18C7
0818C7
1818C7
181FC7
3018C7
F01007
300006
300006
38000E
3801FC
380078
100030
ENDCHAR
STARTCHAR C275d
ENCODING 10077
SWIDTH 400 0
DWIDTH 24 0
BBX 24 24 0 -2
BITMAP
0001C0
1801C0
0C11C0
0C1DC0
0019C0
0119CC
813FFE
E231C0
7261C0
3661C0
06C1C0
0481C6
0C7FFF
0801C0
1803C0
1803C0
300360
F00720
300630
300E18
381C1E
38380F
387006
11C000
ENDCHAR
STARTCHAR C275e
ENCODING 10078
SWIDTH 400 0
DWIDTH 24 0
BBX 24 24 0 -2
BITMAP
20181C
30181C
181818
083018
003018
027018
826018
E66FFF
64E018
24E018
0CE218
0DE318
1B6198
1861D8
1860D8
306018
306018
F06018
306018
306018
386018
3861F8
386078
106030
ENDCHAR
STARTCHAR C275f
ENCODING 10079
SWIDTH 400 0
DWIDTH 24 0
BBX 24 24 0 -2
BITMAP
0001C0
1801C0
0C01CC
0C01FE
0003F0
017FC0
8171C0
E271C0
7271C0
3671C0
0671C6
047FFF
0C23C7
0803C7
1807C7
1807C7
300DC7
F01DC7
3019FE
3031CC
3861C0
38C1C0
3981C0
100180
ENDCHAR
STARTCHAR C2760
ENCODING 10080
SWIDTH 400 0
DWIDTH 24 0
BBX 24 24 0 -2
BITMAP
000000
180038
0C21F8
0C7FA0
007720
017320
817320
E27320
727330
367330
067330
047330
0C7338
086318
186618
186618
30460C
F0CC0C
30CCCE
30D866
3999F7
39BF33
3B1831
160000
ENDCHAR
STARTCHAR C2761
ENCODING 10081
SWIDTH 400 0
DWIDTH 24 0
BBX 24 24 0 -2
BITMAP
00003C
1830FE
0C3FC0
0C3000
003000
013000
813002
E23FFF
723060
363060
063060
043070
0C306C
083066
187067
187063
306060
F06060
306060
30C060
38C060
398060
398060
130060
ENDCHAR
STARTCHAR C2762
ENCODING 10082
SWIDTH 400 0
DWIDTH 24 0
BBX 24 24 0 -2
BITMAP
000380
180380
0C0380
0C07C0
000640
010C60
810C30
E21838
72309E
3621CF
064387
048700
0C0C30
081870
1820C0
180380
300708
F01C1C
302038
300060
3801C0
380700
381C00
10F000
ENDCHAR
STARTCHAR C2763
ENCODING 10083
SWIDTH 400 0
DWIDTH 24 0
BBX 24 24 0 -2
BITMAP
060000
060080
0601C0
0601C0
2641C0
7FE1C0
E661C6
C641CE
863FD8
0E0FE0
0C0DE0
0C0DE0
0F0DD0
1F19D8
1F19CE
1B31CF
1B61C7
3BCFC0
330380
330101
630001
43FFFF
83FFFF
00FFFE
ENDCHAR
STARTCHAR C2764
ENCODING 10084
SWIDTH 400 0
DWIDTH 24 0
BBX 24 24 0 -2
BITMAP
060060
060060
060060
060060
060060
06C06C
06E06E
3EC3EC
FECFEC
3F83F8
3F03F0
3F03F0
378378
378378
378378
668668
66C66C
66C66C
C6EC6E
866867
066067
3E03E2
1C01C0
180180
ENDCHAR
STARTCHAR C2765
ENCODING 10085
SWIDTH 400 0
DWIDTH 24 0
BBX 24 24 0 -2
BITMAP
070000
07000C
060FFE
06001C
060018
060330
0671E0
36E0C0
F780C6
371FFF
3700C6
3780CC
3780C8
3680C0
36C0C0
6640C0
6660C0
6670C0
C638C0
8610C0
0600C0
3E0FC0
1E03C0
0C0180
ENDCHAR
STARTCHAR C2766
ENCODING 10086
SWIDTH 400 0
DWIDTH 24 0
BBX 24 24 0 -2
BITMAP
000200
180300
0C2182
0C7FFF
006007
01E006
81C00C
E20000
720002
367FFF
060180
040180
0C0180
080180
180180
180180
300180
F00180
300180
300180
380180
381F80
380F00
100200
ENDCHAR
STARTCHAR C2767
ENCODING 10087
SWIDTH 400 0
DWIDTH 24 0
BBX 24 24 0 -2
BITMAP
000004
18000E
0C7FFF
0C0006
000006
0100C6
813FE6
E20006
720006
363186
063FC6
0431C6
0C31C6
0831C6
1831C6
1831C6
303FC6
F03186
302006
300006
380006
38007E
38003C
100008
ENDCHAR
STARTCHAR C2768
ENCODING 10088
SWIDTH 400 0
DWIDTH 24 0
BBX 24 24 0 -2
BITMAP
000000
180006
0C7FFE
0C3000
003000
013000
813000
E23008
723FFC
36300C
06300C
04300C
0C300C
08300C
18300C
183FFC
303008
F03000
303000
303000
383000
383006
38FFFF
100000
ENDCHAR
STARTCHAR C2769
ENCODING 10089
SWIDTH 400 0
DWIDTH 24 0
BBX 24 24 0 -2
BITMAP
000380
180380
0C0300
0C0300
000300
01030E
81FFFE
E20380
7207C0
3607C0
060FC0
040F60
0C1B60
081B30
183338
18331C
30630E
F0C307
319FF3
310380
380300
380300
380300
100300
ENDCHAR
STARTCHAR C276a
ENCODING 10090
SWIDTH 400 0
DWIDTH 24 0
BBX 24 24 0 -2
BITMAP
207000
307000
187000
087000
007000
027766
83FF7F
E67367
647367
247367
0C7367
0C7367
186367
186367
186367
306367
30C367
F0C367
30C367
30C367
398767
3B3E7F
3A1E62
140C00
ENDCHAR
STARTCHAR C276b
ENCODING 10091
SWIDTH 400 0
DWIDTH 24 0
BBX 24 24 0 -2
BITMAP
000000
180006
0CFFFF
0C0E00
000E00
010C00
810C00
E20C00
721800
361800
06180C
043FFE
0C380E
08780C
18780C
18D80C
30980C
F1980C
33180C
30180C
38180C
381FFC
38180C
101000
ENDCHAR
STARTCHAR C276c
ENCODING 10092
SWIDTH 400 0
DWIDTH 24 0
BBX 24 24 0 -2
BITMAP
000000
183018
0C3FFC
0C301C
003018
013018
813018
E23018
723018
363FF8
063018
043018
0C3018
083018
183018
183018
303018
F03FF8
303010
300000
380002
38FFFF
380000
100000
ENDCHAR
STARTCHAR C276d
ENCODING 10093
SWIDTH 400 0
DWIDTH 24 0
BBX 24 24 0 -2
BITMAP
0001C0
1801C0
0C0180
0C718E
00718E
01718C
81718C
E2718C
72718C
36718C
06718C
047FFC
0C018C
080180
184184
187187
306186
F06186
306186
306186
386186
386186
38FFFE
104006
ENDCHAR
STARTCHAR C276e
ENCODING 10094
SWIDTH 400 0
DWIDTH 24 0
BBX 24 24 0 -2
BITMAP
0001C0
1811C0
0C1DC0
0C19C0
0019C0
0131C0
813FFE
E231C0
7261C0
3661C0
0641C0
0481C0
0C01C0
0801C4
183FFE
1801C0
3001C0
F001C0
3001C0
3001C0
3801C0
3801C0
3801C7
10FFFF
ENDCHAR
STARTCHAR C276f
ENCODING 10095
SWIDTH 400 0
DWIDTH 24 0
BBX 24 24 0 -2
BITMAP
200060
302060
187060
086060
00E060
00C062
C5C3FF
6598E7
671C67
0F1867
0FB867
18F067
186067
106067
30D0C7
30D8C7
718CC7
E3FDC7
63C586
310306
30030E
3006FC
300C78
003830
ENDCHAR
STARTCHAR C2770
ENCODING 10096
SWIDTH 400 0
DWIDTH 24 0
BBX 24 24 0 -2
BITMAP
000300
1E0300
1C0300
1C0300
1C0330
1D3FF8
9F8338
DF0338
7E0338
7C0338
3C0338
1C033A
1C7FFF
1C0600
180600
180600
1C0E20
360C10
330C18
23980C
619806
C03007
806003
01C000
ENDCHAR
STARTCHAR C2771
ENCODING 10097
SWIDTH 400 0
DWIDTH 24 0
BBX 24 24 0 -2
BITMAP
00003C
1E00FE
1C1FE0
1C1800
1C1800
1D1800
9F9800
DF1806
7E1FFF
7C1830
3C1830
1C1830
1C1830
1C1830
181830
181830
1C1830
363030
333030
23B030
61E030
C06030
80C030
018030
ENDCHAR
STARTCHAR C2772
ENCODING 10098
SWIDTH 400 0
DWIDTH 24 0
BBX 24 24 0 -2
BITMAP
000000
0C0060
0FFFF0
0C0060
0C0060
0FFFE0
0C0060
0C0060
0C0060
0FFFE0
0C1060
001C00
001800
001820
0C3870
0630C0
027900
026400
00C300
0181C0
0700F0
0E007F
38001E
E00004
ENDCHAR
STARTCHAR C2773
ENCODING 10099
SWIDTH 400 0
DWIDTH 24 0
BBX 24 24 0 -2
BITMAP
000038
1E0038
1C0C30
1C0630
1C0730
1D0330
9F8330
DF0030
7E2030
7C1830
3C0C30
1C0E30
1C0630
1C0030
180032
18FFFF
1C0030
360030
330030
238030
618030
C00030
800030
000030
ENDCHAR
STARTCHAR C2774
ENCODING 10100
SWIDTH 400 0
DWIDTH 24 0
BBX 24 24 0 -2
BITMAP
000600
1E0300
1C0380
1C0180
1C0186
1D7FFF
9F8818
DF0818
7E0818
7C0C38
3C0C30
1C0430
1C0660
1C0260
1803C0
1801C0
1C01C0
3603E0
330770
238E38
619C1C
C0380F
806007
038000
ENDCHAR
STARTCHAR C2775
ENCODING 10101
SWIDTH 400 0
DWIDTH 24 0
BBX 24 24 0 -2
BITMAP
000000
1E0018
1C3FFC
1C0E1C
1C0E18
1D0E18
9F8E18
DF0E18
7E0E18
7C0E18
3C0E18
1CFFFF
1C0C38
1C0C38
180C38
180C38
1C0C38
360C38
330C38
238C38
618C38
C00C3A
80FFFF
000000
ENDCHAR
STARTCHAR C2776
ENCODING 10102
SWIDTH 400 0
DWIDTH 24 0
BBX 24 24 0 -2
BITMAP
0001C0
1E01C0
1C0180
1C0180
1C0180
1D0180
9FFFFE
DF01C0
7E03C0
7C03C0
3C03E0
1C07E0
1C0FB0
1C0DB0
181D98
18199C
1C318E
363187
336183
23C180
600180
C00180
800180
000180
ENDCHAR
STARTCHAR C2777
ENCODING 10103
SWIDTH 400 0
DWIDTH 24 0
BBX 24 24 0 -2
BITMAP
0001C0
1E01C0
1C0180
1C0180
1C0186
1D7FFE
9F8180
DF3188
7E398E
7C318C
3C318C
1C318C
1C318C
1C318C
18318C
183FFC
1C319C
360188
330181
238181
618183
C001FF
8001FF
00007E
ENDCHAR
STARTCHAR C2778
ENCODING 10104
SWIDTH 400 0
DWIDTH 24 0
BBX 24 24 0 -2
BITMAP
000080
1E00C0
1C0040
1C0860
1C0C20
1D0C30
9F9830
DF1818
7E1818
7C301C
3C338C
1C630E
1C6307
1C4307
188600
180600
1C0C00
360C30
331818
23980C
61B0FC
C07F8C
803804
001004
ENDCHAR
STARTCHAR C2779
ENCODING 10105
SWIDTH 400 0
DWIDTH 24 0
BBX 24 24 0 -2
BITMAP
0001C0
0001C0
460180
FF0180
E70184
E64187
E6618E
E6318C
E63998
E61990
E61980
FE0380
E603C0
E603C0
E60360
E60760
E60660
E60E30
FE0C38
C6181C
00300E
00600F
00C007
038000
ENDCHAR
STARTCHAR C277a
ENCODING 10106
SWIDTH 400 0
DWIDTH 24 0
BBX 24 24 0 -2
BITMAP
008E00
00C300
018180
0300E0
060070
0C003F
1FFFEF
306066
E0E060
00C060
0180E0
030FC0
060180
181000
001C00
001830
0C1878
0638E0
026C80
00C600
0183C0
0700FE
1C003E
70000C
ENDCHAR
STARTCHAR C277b
ENCODING 10107
SWIDTH 400 0
DWIDTH 24 0
BBX 24 24 0 -2
BITMAP
0E00E0
0E00E0
7C0CC0
6C0CC0
6C0CC0
6D1CC4
7F9FFE
CC18C0
CC10C0
8C30C0
8C20C0
0C00C0
0F80C0
3E00C7
FC3FFF
6C00C0
0C00C0
0C00C0
0C00C0
0C00C0
0C00C0
0C00C0
0C00C0
0C00C0
ENDCHAR
STARTCHAR C277c
ENCODING 10108
SWIDTH 400 0
DWIDTH 24 0
BBX 24 24 0 -2
BITMAP
040200
860300
4C2182
383FFF
386007
38E006
4CC08C
8C0080
0C00C0
0E0E40
0E0E40
1E0E60
1E0E60
360C20
660C30
C60C30
061818
061818
06181C
06300C
0E300E
7C6007
3CC007
198000
ENDCHAR
STARTCHAR C277d
ENCODING 10109
SWIDTH 400 0
DWIDTH 24 0
BBX 24 24 0 -2
BITMAP
040000
86000C
4C1FFC
380000
380000
380000
4C0000
8C0002
0C7FFF
0E01C0
0E01C0
1E01C0
1E19C0
3619C8
6619CC
C619CE
0631C6
0631C7
0661C3
0641C3
0E81C3
7D01C0
3C01C0
180180
ENDCHAR
STARTCHAR C277e
ENCODING 10110
SWIDTH 400 0
DWIDTH 24 0
BBX 24 24 0 -2
BITMAP
0401C0
8601C0
4C01DC
3801CC
3841C4
387FFE
4C61C0
8C61C0
0C61C0
0E61CE
0E61CE
1E61CC
1E60CC
3660CC
6660D8
C66078
066070
066470
067CF0
0671F9
0E639D
7C270F
3C0C07
181003
ENDCHAR
STARTCHAR C2821
ENCODING 10273
SWIDTH 400 0
DWIDTH 24 0
BBX 24 24 0 -2
BITMAP
040000
860007
4C7FFF
3800C0
380180
380180
4C0380
8C0380
0C0790
0E0F98
0E0D8C
1E1986
1E3987
363183
666183
C6C181
060180
060180
060180
060180
0E0180
7C0102
3CFFFF
180000
ENDCHAR
STARTCHAR C2822
ENCODING 10274
SWIDTH 400 0
DWIDTH 24 0
BBX 24 24 0 -2
BITMAP
0401C0
8601C0
4C0180
380180
380180
380180
4C0186
8CFFFF
0C0180
0E0180
0E0180
1E0180
1E0180
36718C
667FFE
C6700C
06700C
06700C
06700C
06700C
0E700C
7C7FFC
3C700C
186000
ENDCHAR
STARTCHAR C2823
ENCODING 10275
SWIDTH 400 0
DWIDTH 24 0
BBX 24 24 0 -2
BITMAP
040660
860660
4C0660
38066C
383FFE
38066E
4C066C
8C066C
0C266C
0E7FFC
0E766C
1E6660
1E6660
3666E7
667FFF
C60E67
060C67
060C67
060C67
06187E
0E306E
7C606C
3CC060
198040
ENDCHAR
STARTCHAR C2824
ENCODING 10276
SWIDTH 400 0
DWIDTH 24 0
BBX 24 24 0 -2
BITMAP
040004
86300E
4C3FFF
383006
383006
383006
4C3006
8C3FFE
0C3006
0E3200
0E3380
1E3300
1E3300
363304
6633FE
C67300
067300
066300
066301
06C301
0EC303
7CC3FF
3D83FF
1801FE
ENDCHAR
STARTCHAR C2825
ENCODING 10277
SWIDTH 400 0
DWIDTH 24 0
BBX 24 24 0 -2
BITMAP
040000
863018
4C3FFC
38301C
383018
383018
4C3018
8C3018
0C3018
0E3FF8
0E3018
1E3018
1E3018
363018
663018
C63018
063018
063FF8
063010
060000
0E0002
7CFFFF
3C0000
180000
ENDCHAR
STARTCHAR C2826
ENCODING 10278
SWIDTH 400 0
DWIDTH 24 0
BBX 24 24 0 -2
BITMAP
0401C0
8611C0
4C1DC0
3819C0
3819C0
3831C0
4C3FFE
8C31C0
0C61C0
0E61C0
0E41C0
1E81C0
1E01C0
3601C4
663FFE
C601C0
0601C0
0601C0
0601C0
0601C0
0E01C0
7C01C0
3C01C7
187FFF
ENDCHAR
STARTCHAR C2827
ENCODING 10279
SWIDTH 400 0
DWIDTH 24 0
BBX 24 24 0 -2
BITMAP
040180
860380
4C03C0
380340
380660
380620
4C0C30
8C1818
0C181E
0E302F
0E6FF7
1EC000
1E0008
36001C
661FFC
C60038
060030
060860
0606C0
060380
0E0180
7C00C0
3C00E0
180060
ENDCHAR
STARTCHAR C2828
ENCODING 10280
SWIDTH 400 0
DWIDTH 24 0
BBX 24 24 0 -2
BITMAP
0001C0
0001C0
030198
FF01FC
180FE0
181980
180180
180180
180184
1A7FFE
7F0180
180180
180180
180180
180186
18FFFF
180180
1F0180
FC0180
F00180
600180
000180
000180
000180
ENDCHAR
STARTCHAR C2829
ENCODING 10281
SWIDTH 400 0
DWIDTH 24 0
BBX 24 24 0 -2
BITMAP
000000
000006
031FFE
FF1830
181830
181830
181830
183030
183032
1A3FFF
7F31B0
1801B0
180330
180330
180330
180630
180E30
1F0C30
FC1830
F03030
606030
00C3F0
0301E0
000040
ENDCHAR
STARTCHAR C282a
ENCODING 10282
SWIDTH 400 0
DWIDTH 24 0
BBX 24 24 0 -2
BITMAP
0040E0
0070E0
0660C0
FF60C0
1860C0
1860C0
1860C0
1860C0
1860C0
187EFE
7E60C0
1860C0
1860C0
1860C0
1860C0
1860C0
1860C0
1E60C0
F860C1
F062C1
607CC3
0078FF
00707F
00603E
ENDCHAR
STARTCHAR C282b
ENCODING 10283
SWIDTH 400 0
DWIDTH 24 0
BBX 24 24 0 -2
BITMAP
000300
000300
030300
FF0300
180330
183FF8
180338
180338
180338
1A0338
7F0338
18033A
187FFF
180600
180600
180600
180E20
1F0C10
FC0C18
F0180C
601806
003007
006003
01C000
ENDCHAR
STARTCHAR C282c
ENCODING 10284
SWIDTH 400 0
DWIDTH 24 0
BBX 24 24 0 -2
BITMAP
000040
000860
030E20
FF0C30
180830
181818
181818
18100C
18300E
1A6007
7F6007
18DFFC
18860C
18060C
18060C
180E0C
180C0C
1F0C0C
FC181C
F01818
603018
0063F0
00C1E0
018040
ENDCHAR
STARTCHAR C282d
ENCODING 10285
SWIDTH 400 0
DWIDTH 24 0
BBX 24 24 0 -2
BITMAP
000180
000180
030380
FF0340
180760
180630
180C38
18181C
18300F
1A6827
7FCC32
188C30
180C30
180C30
180C30
180C30
181830
1F1830
FC1830
F01030
603030
006030
00C030
018030
ENDCHAR
STARTCHAR C282e
ENCODING 10286
SWIDTH 400 0
DWIDTH 24 0
BBX 24 24 0 -2
BITMAP
000008
00181C
031FFC
FF180C
18180C
18190C
18198C
1818CC
1818CC
1A180C
7F1C1D
187FFF
18180C
18180C
18180C
18180C
18180C
1F300C
FC300C
F0300C
60600C
0060FC
00C078
018030
ENDCHAR
STARTCHAR C282f
ENCODING 10287
SWIDTH 400 0
DWIDTH 24 0
BBX 24 24 0 -2
BITMAP
000E00
000E00
030C00
FF0C00
181C0C
181FFC
1819C0
1831C0
1831C0
1A61C0
7F41C0
1801C6
187FFF
1801C0
1801C0
1801C0
1801C0
1F01C0
FC01C0
F001C0
6001C0
0001C0
0001C0
000180
ENDCHAR
STARTCHAR C2830
ENCODING 10288
SWIDTH 400 0
DWIDTH 24 0
BBX 24 24 0 -2
BITMAP
01C200
07E380
7E8300
668706
6687FE
668606
668C06
668806
66D306
66C186
66C0C6
66C0C6
66C006
664006
6C600E
6C600C
6C301C
6C39F8
799C30
D0CE00
F1E700
FF63FF
9C61FF
00003C
ENDCHAR
STARTCHAR C2831
ENCODING 10289
SWIDTH 400 0
DWIDTH 24 0
BBX 24 24 0 -2
BITMAP
000004
00000E
007FFE
010C00
7F8C00
1C0C00
1C0C18
1C0FFC
1C1818
1C1818
1C1818
1C1B18
1C1B98
1C1998
1C19D8
1C18B8
1C1838
3F9838
F81838
E01839
0018F9
007F3F
00781F
00300E
ENDCHAR
STARTCHAR C2832
ENCODING 10290
SWIDTH 400 0
DWIDTH 24 0
BBX 24 24 0 -2
BITMAP
000000
000200
000300
830180
FF01C0
9300C2
937FFF
931800
931800
931800
DB1800
FF1800
931800
931800
931800
931800
931800
FF1800
831800
801800
001FFE
000FFF
000000
000000
ENDCHAR
STARTCHAR C2833
ENCODING 10291
SWIDTH 400 0
DWIDTH 24 0
BBX 24 24 0 -2
BITMAP
000000
0C0060
0FFFF0
0C1860
0C1860
0C1860
0FFFE0
0C1860
0C1860
0C1860
0FFFE0
000000
000006
FFFFFF
038180
038180
030180
030180
030180
060180
0C0180
180180
300180
600180
ENDCHAR
STARTCHAR C2834
ENCODING 10292
SWIDTH 400 0
DWIDTH 24 0
BBX 24 24 0 -2
BITMAP
061830
0E1870
0C3060
1820C0
304180
30C180
1C30E0
0E1870
060C38
020410
000000
100010
1FFFF8
183838
181838
181838
181838
1FFFF8
181838
181838
181838
181838
1FFFF8
180030
ENDCHAR
STARTCHAR C2835
ENCODING 10293
SWIDTH 400 0
DWIDTH 24 0
BBX 24 24 0 -2
BITMAP
001800
001800
001808
3FFFFC
003800
001800
001860
0FFFF0
001870
001862
FFFFFF
001860
001860
0FFFE0
001800
001800
071830
061FF8
061800
0E1800
0D9800
18FFFF
307FFC
601FF8
ENDCHAR
STARTCHAR C2836
ENCODING 10294
SWIDTH 400 0
DWIDTH 24 0
BBX 24 24 0 -2
BITMAP
001800
000C00
180606
1FFFFF
1C0000
9C0000
DC0000
7C0018
7CFFF8
1C0300
1C0300
1C0300
1C0300
3C0300
FC0300
D80300
180300
180300
300300
300300
200300
600306
47FFFF
000000
ENDCHAR
STARTCHAR C2837
ENCODING 10295
SWIDTH 400 0
DWIDTH 24 0
BBX 24 24 0 -2
BITMAP
060000
06000C
060FFC
0640C0
6EE0C0
7FF0C0
66C0C0
66C0C0
6680C0
6600C2
6EFFFF
7FC0C0
78C0C0
68C0C0
6D80C0
6780C0
6700C0
6700C0
C780C0
CCC0C0
9840C0
B000C0
6000C0
0000C0
ENDCHAR
STARTCHAR C2838
ENCODING 10296
SWIDTH 400 0
DWIDTH 24 0
BBX 24 24 0 -2
BITMAP
000000
460600
FF0300
E70380
E60180
E60186
E6FFFF
E61800
FE1800
E61800
E61800
E61800
E61800
FE1800
E61800
E61800
E61800
E61800
E61800
FE1800
E61FFE
401FFF
000000
000000
ENDCHAR
STARTCHAR C2839
ENCODING 10297
SWIDTH 400 0
DWIDTH 24 0
BBX 24 24 0 -2
BITMAP
000000
46000C
FF1FFC
E701C0
E601C0
E601C0
E601C0
E601C0
FE01C2
E67FFF
E601C0
E601C0
E601C0
FE01C0
E601C0
E601C0
E601C0
E601C0
E601C0
FE01C0
E601C0
400FC0
000780
000300
ENDCHAR
STARTCHAR C283a
ENCODING 10298
SWIDTH 400 0
DWIDTH 24 0
BBX 24 24 0 -2
BITMAP
000000
46000C
FF3FFC
E70180
E60180
E60180
E60180
E60180
FE0180
E60186
E6FFFF
E60180
E60180
FE0180
E60180
E60180
E60180
E60180
E60180
FE0180
E60180
400180
000180
000180
ENDCHAR
STARTCHAR C283b
ENCODING 10299
SWIDTH 400 0
DWIDTH 24 0
BBX 24 24 0 -2
BITMAP
000E00
460E00
FF0E00
E70C04
E60C0E
E61FFE
E61800
E63000
FE6000
E60030
E61FF0
E60070
E600E0
FE01C0
E60380
E60700
E60E00
E61C00
E61801
FE3001
E63003
403FFF
001FFF
0007FE
ENDCHAR
STARTCHAR C283c
ENCODING 10300
SWIDTH 400 0
DWIDTH 24 0
BBX 24 24 0 -2
BITMAP
000000
01000C
7F9FFC
1801C0
1801C0
3001C0
3001C0
3001C0
3201C0
7F01C2
733FFF
7301C0
F301C0
F301C0
3301C0
3301C0
3301C0
3301C0
3F01C0
3301C0
3301C0
2001C0
0001C0
000180
ENDCHAR
STARTCHAR C283d
ENCODING 10301
SWIDTH 400 0
DWIDTH 24 0
BBX 24 24 0 -2
BITMAP
000000
010000
7F800C
183FFE
180180
300180
300180
300180
320180
7F0180
730180
730180
F30180
F30180
330180
330180
330180
330180
3F0180
330180
330182
20FFFF
000000
000000
ENDCHAR
STARTCHAR C283e
ENCODING 10302
SWIDTH 400 0
DWIDTH 24 0
BBX 24 24 0 -2
BITMAP
000000
010007
7FBFFF
180E30
180E30
300E30
300E30
300E30
320E30
7F0E30
730E30
730E30
F30E30
F30C30
330C30
330C30
331830
331830
3F1830
333031
333031
20603F
00C03F
01800E
ENDCHAR
STARTCHAR C283f
ENCODING 10303
SWIDTH 400 0
DWIDTH 24 0
BBX 24 24 0 -2
BITMAP
000700
010700
7F8600
180600
180E07
300FFF
301800
301000
322000
7F0030
731FF8
730038
F30060
F300C0
330180
330300
330600
330C00
3F1801
331801
331803
201FFF
000FFF
0003FE
ENDCHAR
STARTCHAR C2840
ENCODING 10304
SWIDTH 400 0
DWIDTH 24 0
BBX 24 24 0 -2
BITMAP
000010
010078
7F81F8
180F80
183F00
300300
300300
300300
320300
7F0300
730306
733FFE
F30300
F30300
330300
330300
330300
330300
3F0301
330301
330303
2003FF
0003FF
0001FE
ENDCHAR
STARTCHAR C2841
ENCODING 10305
SWIDTH 400 0
DWIDTH 24 0
BBX 24 24 0 -2
BITMAP
000000
01000C
7F9FFE
18001C
180030
300060
3001C0
3001C0
3201C0
7F01C0
7301C6
737FFF
F301C0
F301C0
3301C0
3301C0
3301C0
3301C0
3F01C0
3301C0
3301C0
200FC0
000780
000300
ENDCHAR
STARTCHAR C2842
ENCODING 10306
SWIDTH 400 0
DWIDTH 24 0
BBX 24 24 0 -2
BITMAP
2001C0
3001C0
181DC0
0A19C0
0719C0
7F99C0
0319C6
0619FE
06FFCE
0C19CC
1C19CC
1E19CC
3F19CC
3D19D8
5D99D8
9C19D0
1C19C0
1C1980
1C1801
1C1801
1C1803
1C1FFF
1C1FFF
180FFE
ENDCHAR
STARTCHAR C2843
ENCODING 10307
SWIDTH 400 0
DWIDTH 24 0
BBX 24 24 0 -2
BITMAP
200E00
300E00
180E00
0A0C00
070C06
7F9FFF
031807
061807
063007
0C2007
1C0607
1E0307
3F0187
3D00C7
5D80C7
9C0007
1C0007
1C0007
1C0006
1C0006
1C000E
1C01FC
1C0078
180030
ENDCHAR
STARTCHAR C2844
ENCODING 10308
SWIDTH 400 0
DWIDTH 24 0
BBX 24 24 0 -2
BITMAP
030008
0F803C
3C00FC
4C07C0
0C1B00
0C0300
7F8300
0C0300
0C0300
1C0300
1E0387
1F3FFF
3D8300
3C8300
2C0300
6C0300
4C0300
CC0300
8C0301
0C0301
0C0303
0C03FF
0C01FF
0C00FE
ENDCHAR
STARTCHAR C2845
ENCODING 10309
SWIDTH 400 0
DWIDTH 24 0
BBX 24 24 0 -2
BITMAP
003000
201800
201806
7FFFFF
E18306
C3830C
830308
0603FC
0C71FE
706000
00C000
01FFF0
030070
060060
0CE0C0
383180
001B00
000600
000C00
001800
007000
01C000
070000
7C0000
ENDCHAR
STARTCHAR C2846
ENCODING 10310
SWIDTH 400 0
DWIDTH 24 0
BBX 24 24 0 -2
BITMAP
003000
201800
201806
7FFFFF
E18306
C3830C
830308
0603FC
0C01FE
700000
000020
07FFE0
001800
001800
001802
FFFFFF
001C00
001800
001800
001800
001800
00F800
007800
003000
ENDCHAR
STARTCHAR C2847
ENCODING 10311
SWIDTH 400 0
DWIDTH 24 0
BBX 24 24 0 -2
BITMAP
1C0300
1C3306
1FFFFF
330CC0
218860
419020
800000
002000
007000
007000
007018
3FFFFC
00601C
006018
00E018
00C018
00C018
018018
018038
030030
060070
0C0FE0
1803C0
600180
ENDCHAR
STARTCHAR C2848
ENCODING 10312
SWIDTH 400 0
DWIDTH 24 0
BBX 24 24 0 -2
BITMAP
1C01C0
1C01C0
9D81C0
DD81C0
7F01C0
7F01C0
3E01C0
1C01C0
FF81C6
1C3FFF
1C01C0
1E01C0
3F01C0
3F01C0
7D81C0
7C01C0
DC01C0
9C01C0
1C01C0
1C01C0
1C01C0
1C01C0
1C01C0
180180
ENDCHAR
STARTCHAR C2849
ENCODING 10313
SWIDTH 400 0
DWIDTH 24 0
BBX 24 24 0 -2
BITMAP
000000
0E0002
0C3FFF
1C0060
180060
310060
338060
630060
F70060
7E0060
0C0060
1A0060
130060
218060
7F8060
F88060
610060
098060
4D8060
4C8060
C48060
C407E0
8003C0
000180
ENDCHAR
STARTCHAR C284a
ENCODING 10314
SWIDTH 400 0
DWIDTH 24 0
BBX 24 24 0 -2
BITMAP
000000
00C002
FFDFFF
630060
630060
630060
630060
7F0060
630060
630060
630060
630060
7F0060
630060
630060
630060
630060
670060
FB0060
E30060
630060
0307E0
0303C0
030180
ENDCHAR
STARTCHAR C284b
ENCODING 10315
SWIDTH 400 0
DWIDTH 24 0
BBX 24 24 0 -2
BITMAP
00E000
003800
003C00
006700
00C180
0180E0
03187C
0C181F
38180F
FFFFF2
183038
183C38
186738
18D3B8
1B9938
183838
183838
186738
18C3B8
1981B8
1A0038
1803F8
1800F0
180060
ENDCHAR
STARTCHAR C284c
ENCODING 10316
SWIDTH 400 0
DWIDTH 24 0
BBX 24 24 0 -2
BITMAP
020300
270180
3F81C0
3300C6
333FFE
330000
330000
3F0420
370FF0
330E30
330E30
330E30
330E30
3F0E30
3B0E30
330C30
230C30
631C30
631830
631831
633031
5F603F
CEC03F
87800E
ENDCHAR
STARTCHAR C284d
ENCODING 10317
SWIDTH 400 0
DWIDTH 24 0
BBX 24 24 0 -2
BITMAP
020180
270380
3F83C0
330340
330660
330620
330C30
3F0818
37181C
33302F
333FF7
336003
33C000
3F0018
3B3FFC
33001C
230018
230038
630030
630060
630060
5F00E0
CE00C0
840180
ENDCHAR
STARTCHAR C284e
ENCODING 10318
SWIDTH 400 0
DWIDTH 24 0
BBX 24 24 0 -2
BITMAP
020040
270060
3F8F20
330E30
330E30
330C18
330C18
3F180C
37188F
3331E7
3361C2
33C1C0
3301C0
3F01C4
3B3FFE
3301C0
2301C0
6301C0
6301C0
6301C0
6301C0
5F01C0
CE01C0
840180
ENDCHAR
STARTCHAR C284f
ENCODING 10319
SWIDTH 400 0
DWIDTH 24 0
BBX 24 24 0 -2
BITMAP
02001C
27187E
3F9FE0
331800
331800
331800
331806
3F1FFF
371830
331830
331830
331830
331830
3F1830
3B1830
331830
231830
633030
633030
632030
636030
DF4030
CEC030
858030
ENDCHAR
STARTCHAR C2850
ENCODING 10320
SWIDTH 400 0
DWIDTH 24 0
BBX 24 24 0 -2
BITMAP
020600
270300
3F8100
330180
332187
337FFF
3371C7
3F71C7
3771C7
3371C7
337367
337327
337637
3F761F
3B7C1F
33780F
237007
637007
637007
637007
637007
DF703F
CE701E
84600C
ENDCHAR
STARTCHAR C2851
ENCODING 10321
SWIDTH 400 0
DWIDTH 24 0
BBX 24 24 0 -2
BITMAP
060000
060006
0D1FFF
3F8187
31C187
318187
3D8187
378187
378187
318187
33C187
FF8387
F18307
718307
3D8307
378307
378607
218607
618E06
618C0E
619C0C
5FB9FC
C7F078
83C030
ENDCHAR
STARTCHAR C2852
ENCODING 10322
SWIDTH 400 0
DWIDTH 24 0
BBX 24 24 0 -2
BITMAP
0700E0
0700E0
0660C2
FFE7FF
0600C0
0600C0
003000
001800
00180E
7FFFFE
0201C0
010180
018180
008300
00C300
006600
003E00
003C00
003E00
007700
01C1F0
0700FF
1C003E
700004
ENDCHAR
STARTCHAR C2853
ENCODING 10323
SWIDTH 400 0
DWIDTH 24 0
BBX 24 24 0 -2
BITMAP
0700E0
0700E0
0660C2
FFE7FF
0600C0
0620C0
001800
001804
7FFFFE
000000
000000
030180
03FFC0
0381C0
0381C0
0381C0
0301C0
0301C0
0301C1
0601C1
0C01C3
1801FF
3000FF
60007E
ENDCHAR
STARTCHAR C2854
ENCODING 10324
SWIDTH 400 0
DWIDTH 24 0
BBX 24 24 0 -2
BITMAP
0700E0
0700E0
0660C2
FFE7FF
0600C0
0600C0
000000
000020
07FFE0
000000
000000
000004
7FFFFE
01C380
00C300
00C300
018300
018300
038301
030301
060303
0C03FF
1801FF
6000FE
ENDCHAR
STARTCHAR C2855
ENCODING 10325
SWIDTH 400 0
DWIDTH 24 0
BBX 24 24 0 -2
BITMAP
0700E0
0700E0
0660C2
FFE7FF
0600C0
0610C0
001C00
001800
00180E
7FFFFE
001800
081820
1E1838
1C1830
1C1830
1C1830
1C3830
1FFFF0
001821
001801
001803
001FFF
001FFF
000FFE
ENDCHAR
STARTCHAR C2856
ENCODING 10326
SWIDTH 400 0
DWIDTH 24 0
BBX 24 24 0 -2
BITMAP
0700E0
0700E0
0660C2
FFE7FF
0600C0
0600C0
000000
000600
1C0700
180600
180600
180600
180600
18660C
1FE7FC
180600
180600
180600
180601
180601
19F603
1F07FF
1C03FF
1801FE
ENDCHAR
STARTCHAR C2857
ENCODING 10327
SWIDTH 400 0
DWIDTH 24 0
BBX 24 24 0 -2
BITMAP
0700E0
0700E0
0660C2
FFE7FF
0600C0
0600C0
000000
000060
0FFFE0
007060
007060
007066
FFFFFF
007060
007060
007060
0FFFE0
006040
00C000
00C000
018000
030000
060000
380000
ENDCHAR
STARTCHAR C2858
ENCODING 10328
SWIDTH 400 0
DWIDTH 24 0
BBX 24 24 0 -2
BITMAP
0700E0
0700E0
0660C2
FFE7FF
0600C0
0600C0
003800
003800
003000
003060
0FFFF0
003070
003060
003060
003062
FFFFFF
007000
006000
006380
00C060
018038
07001C
1C000E
700006
ENDCHAR
STARTCHAR C2859
ENCODING 10329
SWIDTH 400 0
DWIDTH 24 0
BBX 24 24 0 -2
BITMAP
0700E0
0700E0
0660C2
FFE7FF
0600C0
0600C0
000000
0000E0
07FFE0
0001C0
003300
001E00
000E06
FFFFFF
001807
00180C
001808
001800
001800
001800
001800
01F800
007800
003000
ENDCHAR
STARTCHAR C285a
ENCODING 10330
SWIDTH 400 0
DWIDTH 24 0
BBX 24 24 0 -2
BITMAP
0700E0
0700E0
0660C2
FFE7FF
0600C0
0600C0
006000
003000
301818
3FFFFC
301818
303C18
307618
306318
30C198
3180F8
330078
3C0018
300018
300018
300018
3001F8
300078
300030
ENDCHAR
STARTCHAR C285b
ENCODING 10331
SWIDTH 400 0
DWIDTH 24 0
BBX 24 24 0 -2
BITMAP
0700E0
0700E0
0660C2
FFE7FF
0600C0
0600C0
000000
0001C0
00FFE0
0FF000
003000
003020
003FF0
1FF000
003000
003006
003FFF
FFF000
003000
003001
003003
003FFE
001FFE
000FFC
ENDCHAR
STARTCHAR C285c
ENCODING 10332
SWIDTH 400 0
DWIDTH 24 0
BBX 24 24 0 -2
BITMAP
0700E0
0700E0
0660C2
FFE7FF
0600C0
0600C0
000000
0E0000
0C0030
0FFFF8
180000
1FFFC0
300000
600030
1FFFF8
000030
000030
000030
000030
000039
000019
00001F
00000F
000007
ENDCHAR
STARTCHAR C285d
ENCODING 10333
SWIDTH 400 0
DWIDTH 24 0
BBX 24 24 0 -2
BITMAP
0700E0
0700E0
0660C2
FFE7FF
0600C0
0600C0
000000
0001C0
01FFE0
0FF800
001800
001800
001806
7FFFFE
003800
007400
006600
00E300
01C380
0381C0
0700F8
0E003F
18000E
600004
ENDCHAR
STARTCHAR C285e
ENCODING 10334
SWIDTH 400 0
DWIDTH 24 0
BBX 24 24 0 -2
BITMAP
0700E0
0700E0
0660C2
FFE7FF
0600C0
0600C0
040000
060000
060008
0FFFFC
0C639C
1C630C
18630C
30C30C
60C30C
41C60C
018E0C
030C0C
06181C
0C3018
186038
70C7F0
0381E0
0200C0
ENDCHAR
STARTCHAR C285f
ENCODING 10335
SWIDTH 400 0
DWIDTH 24 0
BBX 24 24 0 -2
BITMAP
0700E0
0700E0
0660C2
FFE7FF
0600C0
0600C0
000000
1FFF80
018180
018180
018300
018300
01FFC0
01E0E0
03E0C0
0320C0
061180
061B80
0E0F00
1C0F00
381FC0
7070FF
C1C03F
1E000C
ENDCHAR
STARTCHAR C2860
ENCODING 10336
SWIDTH 400 0
DWIDTH 24 0
BBX 24 24 0 -2
BITMAP
0700E0
0700E0
0660C2
FFE7FF
0600C0
0600C0
000000
020000
030000
030018
07FFFC
061838
0C1830
181860
303C00
403400
006200
006300
00C180
0180E0
030078
06003F
1C000E
700004
ENDCHAR
STARTCHAR C2861
ENCODING 10337
SWIDTH 400 0
DWIDTH 24 0
BBX 24 24 0 -2
BITMAP
0700E0
0700E0
0660C2
FFE7FF
0600C0
0610C0
003800
007800
00EC00
01C600
038380
0701E0
0FFF7F
18003F
70000E
C000C0
07FFE0
0001C0
000180
000180
000300
000600
000C00
001800
ENDCHAR
STARTCHAR C2862
ENCODING 10338
SWIDTH 400 0
DWIDTH 24 0
BBX 24 24 0 -2
BITMAP
0700E0
0700E0
0660C2
FFE7FF
0600C0
0600C0
001800
001800
101838
0C1830
061860
071840
031880
033900
003C00
007400
006200
00E300
01C180
0380E0
070078
0E003F
18000E
600004
ENDCHAR
STARTCHAR C2863
ENCODING 10339
SWIDTH 400 0
DWIDTH 24 0
BBX 24 24 0 -2
BITMAP
0700E0
0700E0
0660C2
FFE7FF
0600C0
0600C0
000000
007300
3FFB80
006300
00C300
018300
038300
038300
03FB00
FFC300
FB8300
638300
038301
038301
038303
3F03FF
1E01FF
0400FE
ENDCHAR
STARTCHAR C2864
ENCODING 10340
SWIDTH 400 0
DWIDTH 24 0
BBX 24 24 0 -2
BITMAP
0700E0
0700E0
0660C2
FFE7FF
0600C0
0680C0
00E000
00C000
00C00E
7FFFFE
018000
018060
01FFF0
032060
0330C0
0610C0
061980
0C0F80
180700
300F80
601DF0
C0707F
01C01E
0E0004
ENDCHAR
STARTCHAR C2865
ENCODING 10341
SWIDTH 400 0
DWIDTH 24 0
BBX 24 24 0 -2
BITMAP
0700E0
0700E0
0660C2
FFE7FF
0600C0
0000C0
0E0000
0E0000
0C001C
1FFFFC
18000C
18E00C
30C00C
60C00C
01800C
03040C
06060C
0FFF0C
0F831C
060018
000018
0003F0
0001E0
000040
ENDCHAR
STARTCHAR C2866
ENCODING 10342
SWIDTH 400 0
DWIDTH 24 0
BBX 24 24 0 -2
BITMAP
0700E0
0700E0
0660C2
FFE7FF
0600C0
0600C0
000000
070000
070000
060000
0C0008
0CFFFC
1C0000
1C0000
3C0000
5C0000
9C0000
1C0000
1C0000
1C0000
1C0002
1CFFFF
1C0000
180000
ENDCHAR
STARTCHAR C2867
ENCODING 10343
SWIDTH 400 0
DWIDTH 24 0
BBX 24 24 0 -2
BITMAP
1C0000
1C0002
1C3FFF
1C00C0
1C00C0
5D00C0
FF80C0
DD80C0
DD80C0
DD80C0
DD80C0
DD80C0
DD80C0
FF80C0
DC00C0
1C00C0
1C00C0
1E00C0
1F00C0
1D80C0
FF80C0
F08FC0
4003C0
000180
ENDCHAR
STARTCHAR C2868
ENCODING 10344
SWIDTH 400 0
DWIDTH 24 0
BBX 24 24 0 -2
BITMAP
1C000E
1C000E
1C080C
1C0E0C
1C0C0C
5D8C0C
FFCC0C
DD8C0C
DD8C0C
DD8C0C
DD8C0C
DD8C0C
DD8C0C
FF8C0C
DC0C0C
1C0FFC
1C080C
1F000C
1D800C
1FC00C
FCC00C
F0C00C
40000C
00000C
ENDCHAR
STARTCHAR C2869
ENCODING 10345
SWIDTH 400 0
DWIDTH 24 0
BBX 24 24 0 -2
BITMAP
1C0000
1C0004
1C3FFE
1C0306
1C0306
5D8306
FFC306
DD8306
DD8306
DD8306
DD8306
DD8306
DD8306
FF8306
DC0606
1C0606
1C0606
1D0C0E
1D8C0C
1FD80C
F8F01C
6063F8
00C0F0
018060
ENDCHAR
STARTCHAR C286a
ENCODING 10346
SWIDTH 400 0
DWIDTH 24 0
BBX 24 24 0 -2
BITMAP
1C0000
1C0820
1C0FF0
1C0C30
1C0C30
5D0C30
FF8C30
DD8C30
DD8C30
DD8C30
DD8C30
DD8C30
DD8C30
FF8C30
DC0C30
1C0C30
1C1830
1E1830
1F1831
1D9831
FFB033
F0B03F
40603F
00C00E
ENDCHAR
STARTCHAR C286b
ENCODING 10347
SWIDTH 400 0
DWIDTH 24 0
BBX 24 24 0 -2
BITMAP
000004
00000E
7FFFFE
003800
007000
00E000
01D008
03881C
060C3C
1C1E70
3037C0
426300
01C300
038700
07CF80
1C7BC0
607360
00F370
01F73C
07061F
3C0E0F
70FC02
007800
001000
ENDCHAR
STARTCHAR C286c
ENCODING 10348
SWIDTH 400 0
DWIDTH 24 0
BBX 24 24 0 -2
BITMAP
000600
000300
700300
38FFFE
1C0000
000000
000FF0
000C70
0C0C60
FE0C60
1C0C60
180C60
301860
3E1860
7F1861
463061
0C7073
0CE03F
19C01E
380000
7F0000
E7FFFF
007FFC
001FF8
ENDCHAR
STARTCHAR C286d
ENCODING 10349
SWIDTH 400 0
DWIDTH 24 0
BBX 24 24 0 -2
BITMAP
000000
00000C
703FFC
380180
1C0180
000180
000180
000180
0C0180
FE1FF8
1C0180
180180
300180
3E0180
7F0180
460180
0C0184
0C7FFE
180000
380000
7F0000
E7FFFF
007FFC
001FF8
ENDCHAR
STARTCHAR C286e
ENCODING 10350
SWIDTH 400 0
DWIDTH 24 0
BBX 24 24 0 -2
BITMAP
000000
00180C
701FFC
381830
1C1830
001830
001830
001832
0C3FFF
FE11B0
1C01B0
180330
300330
3E0630
7F0C30
461830
0C3030
0CE7F0
1980E0
380040
7F0000
E7FFFF
007FFC
001FF8
ENDCHAR
STARTCHAR C286f
ENCODING 10351
SWIDTH 400 0
DWIDTH 24 0
BBX 24 24 0 -2
BITMAP
000380
000380
700300
380304
1CFFFE
000300
000300
00731C
0C7318
FE7318
1C7318
187318
307FF8
3E0318
7F0302
460302
0C0306
0C03FE
1801FE
380000
7F0000
E7FFFF
007FFC
001FF8
ENDCHAR
STARTCHAR C2870
ENCODING 10352
SWIDTH 400 0
DWIDTH 24 0
BBX 24 24 0 -2
BITMAP
0001C0
0001C0
7001A0
380198
1C0198
000188
007FFE
000180
0C0180
FE03C0
1C03C0
180360
300760
3E0630
7F0E38
460C1C
0C180E
0C3006
18E002
380000
7F0000
E7FFFF
007FFC
001FF8
ENDCHAR
STARTCHAR C2871
ENCODING 10353
SWIDTH 400 0
DWIDTH 24 0
BBX 24 24 0 -2
BITMAP
001C00
001C00
701800
381808
1C1FFC
003180
006180
00C180
0C0180
FE0180
1C0186
187FFE
300180
3E0180
7F0180
460180
0C0180
0C0180
180180
380100
7F0000
E7FFFF
007FFC
001FF8
ENDCHAR
STARTCHAR C2872
ENCODING 10354
SWIDTH 400 0
DWIDTH 24 0
BBX 24 24 0 -2
BITMAP
000000
00000C
701FFC
380180
1C0180
000180
000180
000186
0C7FFE
FE03C0
1C03C0
180360
300760
3E0630
7F0E38
460C1C
0C180E
0C3006
18E002
380000
7F0000
E7FFFF
007FFC
001FF8
ENDCHAR
STARTCHAR C2873
ENCODING 10355
SWIDTH 400 0
DWIDTH 24 0
BBX 24 24 0 -2
BITMAP
000004
0201CE
0189FF
00CDC6
00D9CC
0E19CC
0E39D8
0C31D0
0C71D0
0C61C8
0CC1C4
2CC1C6
6DD1C7
6D89C3
6F8DC3
EF0FC3
CE07C3
CE11FF
1E11DE
1E11CC
37F1C0
67F1C0
8001C0
000180
ENDCHAR
STARTCHAR C2874
ENCODING 10356
SWIDTH 400 0
DWIDTH 24 0
BBX 24 24 0 -2
BITMAP
000004
0019CE
FFF9FF
0301C6
0301CC
0301CC
C319D8
FFFDD0
E31DD0
E319C8
E799C4
E6D9C6
E6F9C7
EC79C3
EC79C3
F839C3
F019C3
E019FF
E019DE
E019CC
E019C0
E0F9C0
E079C0
C03180
ENDCHAR
STARTCHAR C2875
ENCODING 10357
SWIDTH 400 0
DWIDTH 24 0
BBX 24 24 0 -2
BITMAP
387004
3871CE
3071FF
3071C6
3071CC
3071CC
FFF9D8
3871D0
3071D0
3071C8
3071C4
3071C6
3071C7
3871C3
3FF1C3
3071C3
3071C3
3071FF
3071DE
3071CC
3071C0
3FF1C0
3861C0
300180
ENDCHAR
STARTCHAR C2876
ENCODING 10358
SWIDTH 400 0
DWIDTH 24 0
BBX 24 24 0 -2
BITMAP
000004
000DCE
FFFDFF
0181C6
0301CC
0301CC
0701D8
0701D0
0F41D0
1F21C8
1B31C4
3319C6
331DC7
630DC3
C30DC3
8301C3
0301C3
0301FF
0301DE
037DCC
FFE1C0
F801C0
6001C0
000180
ENDCHAR
STARTCHAR C2877
ENCODING 10359
SWIDTH 400 0
DWIDTH 24 0
BBX 24 24 0 -2
BITMAP
070004
0701CE
0601FF
0E01C6
0C01CC
1841CC
1021D8
3031D0
6019D0
FFFDC8
FC0DC4
600DC6
0001C7
0031C3
3FF9C3
3039C3
3031C3
3031FF
3031DE
3031CC
3031C0
3FF1C0
3031C0
200180
ENDCHAR
STARTCHAR C2878
ENCODING 10360
SWIDTH 400 0
DWIDTH 24 0
BBX 24 24 0 -2
BITMAP
0001C0
E601C0
FF0180
E60180
E60180
E4018C
EC3FFE
E80180
E80180
EC0180
E60180
E60186
E7FFFF
E30300
E30600
E30600
E70C00
FE0C18
E6180C
E0180E
E031FE
E07F87
E03803
C01000
ENDCHAR
STARTCHAR C2879
ENCODING 10361
SWIDTH 400 0
DWIDTH 24 0
BBX 24 24 0 -2
BITMAP
0001C0
E601C0
FF0180
E60180
E60180
E40186
EC01FF
E80180
E80180
EC0180
E60180
E60180
E7618C
E37FFE
E3700E
E3700C
E7700C
FE700C
E6700C
E0700C
E0700C
E07FFC
E0700C
C06000
ENDCHAR
STARTCHAR C287a
ENCODING 10362
SWIDTH 400 0
DWIDTH 24 0
BBX 24 24 0 -2
BITMAP
001800
E61800
FF1800
E63000
E63007
E47FFF
EC6300
E84300
E8C300
EC8300
E6030C
E603FC
E70300
E30300
E30300
E30300
E7030C
FE03FC
E60300
E00300
E00300
E00300
E00300
C00200
ENDCHAR
STARTCHAR C287b
ENCODING 10363
SWIDTH 400 0
DWIDTH 24 0
BBX 24 24 0 -2
BITMAP
000078
E603FC
FF7FC0
E661C0
E661C0
E461C0
EC61C0
E861C0
E861C4
EC7FFE
E661C0
E661C0
E760C0
E360C0
E360E0
E36060
E76060
FE6030
E66131
E06E19
E0781F
E0600F
E00FE7
C00002
ENDCHAR
STARTCHAR C287c
ENCODING 10364
SWIDTH 400 0
DWIDTH 24 0
BBX 24 24 0 -2
BITMAP
000000
E60007
FF7FFF
E60180
E60180
E40180
EC6186
E87FFE
E86186
EC6186
E663C6
E66366
E76336
E36636
E3663E
E36C1E
E77806
FE7006
E66006
E06006
E06006
E0607E
E0603C
C06008
ENDCHAR
STARTCHAR C287d
ENCODING 10365
SWIDTH 400 0
DWIDTH 24 0
BBX 24 24 0 -2
BITMAP
038600
038300
072310
067FF8
06701C
0C7018
1C7018
1C7018
3C7FF8
3C7018
7C7018
5C7018
9C7FF8
1C7400
1C760E
1C721C
1C7330
1C71C0
1C70C0
1C7060
1C7630
1C7C1F
1C700F
183006
ENDCHAR
STARTCHAR C287e
ENCODING 10366
SWIDTH 400 0
DWIDTH 24 0
BBX 24 24 0 -2
BITMAP
0381C0
0381C0
070198
06018C
06018C
0CFFFF
1C0180
1C0180
3C4184
3C3187
7C198C
5C1998
9C19A0
1C0180
1C0180
1C05E0
1C19B8
1C719E
1DE18F
1CC187
1C0180
1C1F80
1C0F00
180200
ENDCHAR
STARTCHAR C2921
ENCODING 10529
SWIDTH 400 0
DWIDTH 24 0
BBX 24 24 0 -2
BITMAP
038004
03800E
077FFE
061000
0619CE
0C19CC
1C318C
1C3318
3C6210
3C6210
7C3108
5C398C
9C19CC
1C1884
1C0000
1C3FFE
1C01C0
1C01C0
1C01C0
1C01C0
1C01C0
1C01C0
1C01C7
187FFF
ENDCHAR
STARTCHAR C2922
ENCODING 10530
SWIDTH 400 0
DWIDTH 24 0
BBX 24 24 0 -2
BITMAP
030000
032004
077FFE
067000
067000
0C7008
1C7FFC
1C7000
3C7000
3C7004
7C700E
5C7FFE
9C7E40
1C6E46
1C6E6F
1C6E7C
1C6E30
1CCE30
1CCE18
1CCE5C
1C8F8E
1D8F0F
1D0E07
180600
ENDCHAR
STARTCHAR C2923
ENCODING 10531
SWIDTH 400 0
DWIDTH 24 0
BBX 24 24 0 -2
BITMAP
030000
03000C
077FFC
060E00
060E00
0C0E10
1C7FF8
1C0E1C
3C0E18
3C0C18
7C0C18
5C0C18
9CFFFF
1C0000
1C0000
1C0018
1C3FFC
1C300C
1C300C
1C300C
1C300C
1C300C
1C3FFC
183008
ENDCHAR
STARTCHAR C2924
ENCODING 10532
SWIDTH 400 0
DWIDTH 24 0
BBX 24 24 0 -2
BITMAP
039000
039838
071FFC
061818
061818
0C1818
1C1FF8
1C0000
3C000C
3C7FFE
7C718E
5C718C
9C718C
1C718C
1C7FFC
1C700C
1C7000
1C7000
1C7001
1C7001
1C7003
1C7FFF
1C3FFF
181FFE
ENDCHAR
STARTCHAR C2925
ENCODING 10533
SWIDTH 400 0
DWIDTH 24 0
BBX 24 24 0 -2
BITMAP
038000
039838
071FF8
061838
06D838
0CF838
1CDFF8
1CD800
3CC000
3CC018
7CFFFC
5C0618
9C0618
1C0618
1C0618
1CFFFF
1C0E00
1C0C20
1C0C18
1C180C
1C300E
1C6007
1CC007
1B8000
ENDCHAR
STARTCHAR C2926
ENCODING 10534
SWIDTH 400 0
DWIDTH 24 0
BBX 24 24 0 -2
BITMAP
038008
03B01C
073FFC
06300C
06300C
0C300C
1C3FFC
1C300C
3C300C
3C300C
7C3FFC
5C300C
9C300C
1C300C
1C3FFC
1C2668
1C0660
1C0660
1C0C61
1C0C61
1C1863
1C307F
1C607F
19803E
ENDCHAR
STARTCHAR C2927
ENCODING 10535
SWIDTH 400 0
DWIDTH 24 0
BBX 24 24 0 -2
BITMAP
0381C0
0381C0
07218C
067FFE
06718C
0C718C
1C7FFC
1C718C
3C718C
3C718C
6C7FFC
4C0000
8CFFFF
0C1C00
0C1800
0C180C
0C3FFE
0C100E
0C000C
0C000C
0C001C
0C03F8
0C00F0
0C0060
ENDCHAR
STARTCHAR C2928
ENCODING 10536
SWIDTH 400 0
DWIDTH 24 0
BBX 24 24 0 -2
BITMAP
039018
038E3C
0703E0
0601E0
060378
0C1E1C
1C730C
1C0300
3C0606
3CFFFF
7C0DC0
5C1DC0
9C19CC
1C3FFE
1C39CE
1C79CC
1CF9CC
1C99CC
1D19CC
1C19CC
1C19FC
1C19CC
1C01C0
180180
ENDCHAR
STARTCHAR C2929
ENCODING 10537
SWIDTH 400 0
DWIDTH 24 0
BBX 24 24 0 -2
BITMAP
038840
038C60
071C30
061830
061818
0C300C
1C600F
1C7FFF
3CB00C
3C300C
7C300C
5C300C
9C300C
1C3FFC
1C0668
1C0660
1C0660
1C0E60
1C0C61
1C0C61
1C1863
1C307F
1C607F
19803E
ENDCHAR
STARTCHAR C292a
ENCODING 10538
SWIDTH 400 0
DWIDTH 24 0
BBX 24 24 0 -2
BITMAP
0381C0
0381C0
070180
06198C
06198C
0C198C
1C3198
1C399C
3C7DBE
3C6DB6
6C47A3
4CC7E3
8CC1E0
0C0180
0C0184
0C7FFE
0C0180
0C0180
0C0180
0C0180
0C0180
0C0180
0C0187
0CFFFF
ENDCHAR
STARTCHAR C292b
ENCODING 10539
SWIDTH 400 0
DWIDTH 24 0
BBX 24 24 0 -2
BITMAP
039C00
039C00
071870
061FF8
063060
0C3040
1C60CC
1C7FFE
3CE30E
3C630C
7C630C
5C630C
9C630C
1C7FFC
1C636C
1C0760
1C0660
1C0E60
1C0C60
1C1861
1C3061
1C607F
1CC07F
1B803E
ENDCHAR
STARTCHAR C292c
ENCODING 10540
SWIDTH 400 0
DWIDTH 24 0
BBX 24 24 0 -2
BITMAP
0C3800
0C3802
0D77FF
1CE060
18C060
19E060
336060
303060
703060
703060
F07064
B07BFE
30D860
309860
311860
321860
301860
301860
301860
303860
303062
33F7FF
30E000
30C000
ENDCHAR
STARTCHAR C292d
ENCODING 10541
SWIDTH 400 0
DWIDTH 24 0
BBX 24 24 0 -2
BITMAP
030000
030007
077FFF
060180
060380
0C0380
1C0780
1C0D98
3C0D8C
3C198E
7C1187
5C2183
9C4183
1C8188
1C3FFC
1C300C
1C300C
1C300C
1C300C
1C300C
1C300C
1C3FFC
1C301C
183008
ENDCHAR
STARTCHAR C292e
ENCODING 10542
SWIDTH 400 0
DWIDTH 24 0
BBX 24 24 0 -2
BITMAP
0701C0
0721CC
06718E
06718C
0C718C
0C7FFC
1C218C
1C0380
3C03C0
7C0660
7C0E30
DC1C1C
1C382F
1C7FF7
1CE003
1D8018
1C3FFC
1C0038
1C0030
1C0030
1C0060
1C0060
1C00C0
180180
ENDCHAR
STARTCHAR C292f
ENCODING 10543
SWIDTH 400 0
DWIDTH 24 0
BBX 24 24 0 -2
BITMAP
070078
0703FC
06FF80
060004
0C0206
0C618E
1C718C
1C2018
3C0000
7C0E00
7C0E20
DC0C32
1CFFFF
1C1C30
1C1830
1C1860
1C3060
1C7860
1C0FC0
1C01C0
1C03F0
1C0E1C
1C180E
18E004
ENDCHAR
STARTCHAR C2930
ENCODING 10544
SWIDTH 400 0
DWIDTH 24 0
BBX 24 24 0 -2
BITMAP
0C0008
0C003C
0C20FC
1FF3E0
187060
186060
306060
30C060
70C064
7193FE
F1F860
B03060
303060
303060
323060
317060
31F060
30E7FE
30E000
30F000
30F800
319FFF
330FFF
3603FC
ENDCHAR
STARTCHAR C2931
ENCODING 10545
SWIDTH 400 0
DWIDTH 24 0
BBX 24 24 0 -2
BITMAP
0C1C00
0C7C00
0DF038
1F7030
187030
187030
33FE30
307030
707030
707060
F0F860
B0FC60
30FE60
30F460
31F040
3370C0
3270C0
36718C
347186
307307
3073FF
3073C3
307101
306000
ENDCHAR
STARTCHAR C2932
ENCODING 10546
SWIDTH 400 0
DWIDTH 24 0
BBX 24 24 0 -2
BITMAP
000007
001807
FFF806
2201C6
3339C6
3331C6
6671C6
6661C6
CCC1C6
CCC1C6
6661C6
7771C6
3331C6
3311C6
0001C6
7FF9C6
0301C6
030186
030006
030006
033806
FFE07E
FC003C
600008
ENDCHAR
STARTCHAR C2933
ENCODING 10547
SWIDTH 400 0
DWIDTH 24 0
BBX 24 24 0 -2
BITMAP
038007
038007
339006
3B98E6
3398E6
3398C6
33B0C6
33B8C6
7BECC6
CFEEC6
87C4C6
0380C6
0380C6
0388C6
7FFCC6
0380C6
0380C6
0380C6
038006
038006
0FFC06
FF007E
E0003C
200008
ENDCHAR
STARTCHAR C2934
ENCODING 10548
SWIDTH 400 0
DWIDTH 24 0
BBX 24 24 0 -2
BITMAP
0600E0
0600E0
0620C0
FFF0C0
0E00C0
0600C0
0660C6
7FE7FF
6060C7
6060C7
6060C7
6060C7
7FE0C7
1F80C7
1F81C7
1F8187
1B8187
1B8387
1BB307
33C306
33860E
718CFC
E01878
80E030
ENDCHAR
STARTCHAR C2935
ENCODING 10549
SWIDTH 400 0
DWIDTH 24 0
BBX 24 24 0 -2
BITMAP
0700E0
0700E0
7600C0
6600C0
6760C0
7FE0C0
C600C6
C607FF
8600C7
0630C7
FFF8C7
0000C7
0040C7
20E0C7
3FF1C7
306187
306187
306387
306307
306306
3FE60E
304CFC
201878
00E030
ENDCHAR
STARTCHAR C2936
ENCODING 10550
SWIDTH 400 0
DWIDTH 24 0
BBX 24 24 0 -2
BITMAP
000004
00000E
FFFFFE
600040
61FFE0
618060
618060
61FFE0
618060
618060
61FFE0
607184
6FFFFE
606180
60C300
61E700
603E00
601FC0
60F0F0
638030
700000
3FFFFF
1FFFFF
000000
ENDCHAR
STARTCHAR C2937
ENCODING 10551
SWIDTH 400 0
DWIDTH 24 0
BBX 24 24 0 -2
BITMAP
000700
000700
000630
008FF8
FFCC30
331860
3318C2
333FFF
331800
331804
331BFE
331B0E
331B0C
331B0C
331B0C
337B0C
33DBFC
639B38
633311
403301
C06303
8043FF
0081FF
0000FE
ENDCHAR
STARTCHAR C2938
ENCODING 10552
SWIDTH 400 0
DWIDTH 24 0
BBX 24 24 0 -2
BITMAP
000000
300007
3FFFFF
300C00
300600
30060C
33FFFC
300020
304070
302060
303040
301884
37FFFE
300600
300600
300600
200608
61FFFC
600600
600600
C00600
C00600
800600
000600
ENDCHAR
STARTCHAR C2939
ENCODING 10553
SWIDTH 400 0
DWIDTH 24 0
BBX 24 24 0 -2
BITMAP
000000
300007
3FFFFF
30C000
30C000
30D80E
30D81C
30C030
3FFC60
30C1C0
30C30E
30C018
31F030
31F0C0
31F307
31F00E
237018
637070
6371C0
667701
C67001
CC7FFF
983FFF
301FFE
ENDCHAR
STARTCHAR C293a
ENCODING 10554
SWIDTH 400 0
DWIDTH 24 0
BBX 24 24 0 -2
BITMAP
000000
300007
3FFFFF
300700
300700
30060C
37FFFE
300600
310618
31FFFC
318618
318618
31FFF8
318618
318618
31FFF8
200600
600602
6FFFFF
600600
C00600
C00600
800600
000600
ENDCHAR
STARTCHAR C293b
ENCODING 10555
SWIDTH 400 0
DWIDTH 24 0
BBX 24 24 0 -2
BITMAP
000000
300007
3FFFFF
300000
300018
31FFFC
31861C
318618
318618
31FFF8
318618
318618
318618
318618
31FFF8
310600
200600
600610
61FFF8
600600
C00600
C00600
800606
07FFFE
ENDCHAR
STARTCHAR C293c
ENCODING 10556
SWIDTH 400 0
DWIDTH 24 0
BBX 24 24 0 -2
BITMAP
000000
000004
003FFE
C60000
FF0000
E71008
E61FFC
E6181C
E6180C
E6180C
E6180C
E6180C
E61FFC
E6180C
E6180C
E6180C
FE180C
E61FFC
C6180C
001000
000000
000002
00FFFF
000000
ENDCHAR
STARTCHAR C293d
ENCODING 10557
SWIDTH 400 0
DWIDTH 24 0
BBX 24 24 0 -2
BITMAP
000000
000006
007FFE
C61838
FF1838
E71838
E61FF8
E61838
E61838
E61838
E61838
E61FF8
E61838
E61838
E61838
E6183A
FEFFFF
E60038
C60038
000038
000038
000038
000038
000030
ENDCHAR
STARTCHAR C293e
ENCODING 10558
SWIDTH 400 0
DWIDTH 24 0
BBX 24 24 0 -2
BITMAP
0001C0
0001C0
0001C0
C601C0
FF01C2
E77FFF
E601C0
E601C0
E601C0
E601C0
E601C4
E63FFE
E60000
E60000
E6200C
E63FFE
FE300C
E6300C
C6300C
00300C
00300C
003FFC
00300C
003000
ENDCHAR
ENDFONT
